<svg width="124" height="124" viewBox="0 0 124 124" fill="none" xmlns="http://www.w3.org/2000/svg">
<rect x="1.24" y="1.24" width="121.222" height="121.52" rx="60.611" fill="#EAFCDE"/>
<rect x="1.24" y="1.24" width="121.222" height="121.52" rx="60.611" stroke="#5BCA11" stroke-width="2.48"/>
<g filter="url(#filter0_i_2404_17895)">
<g clip-path="url(#clip0_2404_17895)">
<rect x="16.1206" y="16.1211" width="91.76" height="91.76" rx="45.88" fill="#5BCA11"/>
<g filter="url(#filter1_i_2404_17895)">
<path d="M62.0016 84.8057C55.7044 91.103 45.4938 91.103 39.1965 84.8057C32.8993 78.5085 32.8993 68.2979 39.1965 62.0007C32.8993 55.7034 32.8993 45.4928 39.1965 39.1956C45.4938 32.8984 55.7044 32.8984 62.0016 39.1956C68.2989 32.8984 78.5095 32.8984 84.8067 39.1956C91.1039 45.4928 91.1039 55.7034 84.8067 62.0007C91.1039 68.2979 91.1039 78.5085 84.8067 84.8057C78.5095 91.103 68.2989 91.103 62.0016 84.8057Z" fill="#EAFCDE"/>
</g>
<rect x="2.01318" y="67.0781" width="115.118" height="3.24277" transform="rotate(-34.4243 2.01318 67.0781)" fill="white" fill-opacity="0.39"/>
<rect x="2.60156" y="77.4961" width="115.118" height="32.5661" transform="rotate(-34.4243 2.60156 77.4961)" fill="white" fill-opacity="0.39"/>
<g filter="url(#filter2_d_2404_17895)">
<path d="M53.6867 78.1194C52.0178 78.1194 50.8398 77.0504 50.8398 75.6394V51.0104C50.8398 49.3001 51.9197 48.3594 53.8339 48.3594H63.0125C69.8842 48.3594 74.3998 52.6352 74.3998 58.2794C74.3998 64.0945 69.8351 68.1994 63.0125 68.1994H56.4844V75.6394C56.4844 77.0504 55.2573 78.1194 53.6867 78.1194ZM56.4844 53.0628V63.4959H62.6689C66.3993 63.4959 68.7062 61.4435 68.7062 58.2794C68.7062 55.1152 66.3993 53.0628 62.6689 53.0628H56.4844Z" fill="#5BCA11"/>
<path d="M49.9098 75.6394C49.9098 77.6705 51.6176 79.0494 53.6867 79.0494C55.6576 79.0494 57.4144 77.6705 57.4144 75.6394V69.1294H63.0125C66.6081 69.1294 69.686 68.0463 71.8787 66.1185C74.0802 64.183 75.3298 61.4454 75.3298 58.2794C75.3298 52.0251 70.2957 47.4294 63.0125 47.4294H53.8339C52.7369 47.4294 51.7384 47.6984 51.004 48.3459C50.2514 49.0095 49.9098 49.9518 49.9098 51.0104V75.6394ZM62.6689 62.5659H57.4144V53.9928H62.6689C64.3694 53.9928 65.6421 54.4597 66.4756 55.1858C67.2954 55.9 67.7762 56.9379 67.7762 58.2794C67.7762 59.6209 67.2954 60.6588 66.4756 61.373C65.6421 62.099 64.3694 62.5659 62.6689 62.5659Z" stroke="#5BCA11" stroke-width="1.86"/>
</g>
<circle cx="52.5544" cy="50.6286" r="1.41379" fill="white"/>
</g>
</g>
<path d="M37.0981 19.05C36.8967 19.1406 36.6439 19.0422 36.5544 18.8384L34.2397 13.5687C34.0919 13.2321 34.2174 12.9211 34.5412 12.7755C34.7513 12.681 34.973 12.7086 35.1549 12.8601L39.1278 16.0584L39.4312 10.9264C39.4458 10.6971 39.5654 10.516 39.7755 10.4215C40.0994 10.2759 40.4028 10.394 40.5506 10.7306L42.8653 16.0003C42.9548 16.2041 42.8663 16.456 42.665 16.5465C42.4636 16.637 42.2108 16.5386 42.1213 16.3349L40.1645 11.88L39.8805 16.6744C39.8679 16.8604 39.7658 17.0336 39.582 17.1163C39.3981 17.199 39.2027 17.1596 39.0578 17.0445L35.3416 14.0489L37.2984 18.5039C37.3879 18.7076 37.2994 18.9595 37.0981 19.05Z" fill="#5BCA11" stroke="#5BCA11" stroke-width="0.62"/>
<path d="M47.2538 14.9976C45.4982 15.4522 43.7775 14.3672 43.2993 12.4703C42.8212 10.5735 43.8175 8.78491 45.5731 8.33031C47.3286 7.8757 49.0493 8.96064 49.5275 10.8575C50.0057 12.7544 49.0093 14.5429 47.2538 14.9976ZM47.0549 14.2088C48.387 13.8638 49.1293 12.5212 48.76 11.0563C48.3907 9.59135 47.104 8.77416 45.7719 9.11911C44.4398 9.46406 43.6975 10.8067 44.0668 12.2716C44.4361 13.7365 45.7228 14.5537 47.0549 14.2088Z" fill="#5BCA11" stroke="#5BCA11" stroke-width="0.62"/>
<path d="M51.6188 13.6304C51.37 13.6735 51.1426 13.526 51.1057 13.3062C51.096 13.2489 51.0968 13.1898 51.1111 13.148L52.5659 7.01681C52.6278 6.75047 52.8476 6.53547 53.1482 6.48347C53.4487 6.43148 53.7264 6.56043 53.8718 6.79091L57.245 12.0771C57.2738 12.1213 57.2922 12.1673 57.3018 12.2246C57.3403 12.4539 57.1636 12.6713 56.9148 12.7143C56.7179 12.7484 56.5344 12.6719 56.4449 12.5203L55.4968 11.003L52.3979 11.5391L51.99 13.3008C51.9535 13.4644 51.8053 13.5982 51.6188 13.6304ZM53.3144 7.53624L52.5859 10.6905L55.0319 10.2674L53.3144 7.53624Z" fill="#5BCA11" stroke="#5BCA11" stroke-width="0.62"/>
<path d="M63.0179 12.6191C62.7539 12.6044 62.5635 12.3997 62.576 12.1674L62.8883 6.32204C62.9038 6.03171 63.0921 5.87718 63.409 5.89482L65.3734 6.00416C66.8203 6.08469 67.7005 7.05581 67.6333 8.31392C67.5645 9.60106 66.577 10.4391 65.1407 10.3591L63.5987 10.2733L63.4948 12.2185C63.4824 12.4508 63.2714 12.6332 63.0179 12.6191ZM63.788 6.73126L63.6422 9.46039L65.1419 9.54386C66.0607 9.59501 66.67 9.09506 66.7145 8.26277C66.759 7.43049 66.2065 6.86588 65.2877 6.81474L63.788 6.73126Z" fill="#5BCA11" stroke="#5BCA11" stroke-width="0.62"/>
<path d="M70.8696 13.7648C69.1696 13.3056 68.2305 11.5173 68.7278 9.6255C69.225 7.73369 70.9172 6.65615 72.6173 7.11536C74.3173 7.57457 75.2564 9.36284 74.7591 11.2547C74.2619 13.1465 72.5697 14.224 70.8696 13.7648ZM71.0764 12.9781C72.3664 13.3265 73.6319 12.5149 74.0159 11.0539C74.3999 9.59289 73.7005 8.2505 72.4105 7.90205C71.1205 7.55361 69.855 8.36526 69.471 9.82626C69.087 11.2873 69.7864 12.6297 71.0764 12.9781Z" fill="#5BCA11" stroke="#5BCA11" stroke-width="0.62"/>
<path d="M75.8723 15.1032C75.6521 15.0217 75.5445 14.7863 75.6231 14.5581L77.5481 8.97194C77.6268 8.74374 77.8539 8.63223 78.0742 8.71371C78.2856 8.79192 78.3932 9.02727 78.3146 9.25547L76.3896 14.8417C76.3109 15.0699 76.0838 15.1814 75.8723 15.1032Z" fill="#5BCA11" stroke="#5BCA11" stroke-width="0.62"/>
<path d="M78.9321 16.1498C78.733 16.0554 78.6409 15.7976 78.7341 15.5957L81.1399 10.3812C81.2897 10.0564 81.6114 9.93082 81.9057 10.0705C82.1048 10.1649 82.242 10.3478 82.273 10.5551L83.1208 16.6073L85.2026 12.0951C85.2998 11.8844 85.5498 11.7998 85.7489 11.8942C85.948 11.9887 86.0315 12.2423 85.9383 12.4443L83.5285 17.6676C83.3827 17.9836 83.0696 18.1133 82.7667 17.9695C82.5762 17.8791 82.4436 17.7092 82.4127 17.5019L81.5516 11.4326L79.4698 15.9449C79.3767 16.1468 79.1312 16.2443 78.9321 16.1498Z" fill="#5BCA11" stroke="#5BCA11" stroke-width="0.62"/>
<path d="M86.2787 19.9002C86.0814 19.7634 86.0395 19.4994 86.1691 19.3074L89.2315 14.7722L87.7792 13.7651C87.5976 13.6392 87.5503 13.3832 87.6745 13.1992C87.7987 13.0153 88.0513 12.9673 88.2329 13.0932L91.8322 15.589C92.0138 15.7149 92.0611 15.9709 91.9369 16.1548C91.8127 16.3388 91.5601 16.3868 91.3785 16.2609L89.9183 15.2483L86.8558 19.7836C86.7262 19.9756 86.4682 20.0316 86.2787 19.9002Z" fill="#5BCA11" stroke="#5BCA11" stroke-width="0.62"/>
<path d="M98.5111 19.4346C98.3498 19.2739 98.1585 19.1466 97.9481 19.0601C97.7377 18.9735 97.5124 18.9293 97.285 18.93C97.0575 18.9307 96.8325 18.9763 96.6226 19.0642C96.4128 19.1521 96.2223 19.2806 96.062 19.4423C95.9017 19.604 95.7747 19.7958 95.6883 20.0067C95.602 20.2176 95.5579 20.4435 95.5586 20.6715C95.5593 20.8994 95.6048 21.125 95.6925 21.3354C95.7802 21.5457 95.9084 21.7367 96.0697 21.8974L97.1226 22.9463C97.1692 22.9926 97.2322 23.0185 97.2978 23.0183C97.3634 23.0181 97.4263 22.9918 97.4725 22.9451L98.5188 21.8897C98.8426 21.5631 99.0237 21.121 99.0222 20.6605C99.0208 20.2001 98.8369 19.7591 98.5111 19.4346ZM93.2794 24.712C92.9536 24.3875 92.7698 23.9465 92.7684 23.4861C92.7669 23.0257 92.948 22.5835 93.2717 22.2569C93.5955 21.9304 94.0354 21.7461 94.4947 21.7446C94.954 21.7432 95.3951 21.9247 95.7209 22.2492L96.7738 23.2981C96.8204 23.3444 96.8467 23.4074 96.8469 23.4732C96.8471 23.539 96.8212 23.6021 96.7749 23.6488L95.7286 24.7043C95.4049 25.0309 94.9649 25.2152 94.5056 25.2166C94.0463 25.218 93.6052 25.0365 93.2794 24.712ZM101.319 22.2316C101.48 22.3923 101.608 22.5832 101.696 22.7936C101.784 23.0039 101.829 23.2295 101.83 23.4575C101.831 23.6855 101.787 23.9114 101.7 24.1223C101.614 24.3331 101.487 24.5249 101.327 24.6866C101.166 24.8483 100.976 24.9768 100.766 25.0647C100.556 25.1526 100.331 25.1982 100.104 25.199C99.8763 25.1997 99.6509 25.1555 99.4406 25.0689C99.2302 24.9823 99.0389 24.855 98.8775 24.6944L97.8246 23.6455C97.778 23.5991 97.7518 23.5361 97.7516 23.4704C97.7514 23.4046 97.7772 23.3414 97.8235 23.2948L98.8698 22.2393C99.1936 21.9127 99.6335 21.7284 100.093 21.727C100.552 21.7255 100.993 21.907 101.319 22.2316ZM96.0873 27.509C96.4131 27.8335 96.8542 28.015 97.3135 28.0136C97.7728 28.0121 98.2127 27.8278 98.5365 27.5012C98.8602 27.1747 99.0413 26.7325 99.0398 26.2721C99.0384 25.8117 98.8546 25.3707 98.5288 25.0462L97.4758 23.9973C97.4293 23.951 97.3663 23.925 97.3006 23.9252C97.235 23.9254 97.1722 23.9518 97.1259 23.9984L96.0796 25.0539C95.7558 25.3805 95.5748 25.8226 95.5762 26.283C95.5776 26.7434 95.7615 27.1844 96.0873 27.509Z" fill="#5BCA11"/>
<path d="M29.352 18.2112C29.208 18.0347 29.0308 17.8884 28.8305 17.7805C28.6301 17.6727 28.4105 17.6054 28.1842 17.5827C27.9579 17.5599 27.7294 17.582 27.5116 17.6478C27.2938 17.7135 27.0911 17.8217 26.9151 17.966C26.739 18.1102 26.593 18.2879 26.4854 18.4887C26.3778 18.6896 26.3107 18.9097 26.288 19.1366C26.2653 19.3634 26.2874 19.5925 26.353 19.8108C26.4186 20.0291 26.5264 20.2322 26.6704 20.4087L27.6099 21.5608C27.6515 21.6117 27.7115 21.644 27.7768 21.6506C27.842 21.6571 27.9073 21.6374 27.9581 21.5958L29.1073 20.654C29.4629 20.3626 29.6885 19.9415 29.7344 19.4834C29.7802 19.0253 29.6427 18.5677 29.352 18.2112ZM23.6057 22.9202C23.315 22.5638 23.1775 22.1061 23.2234 21.648C23.2692 21.1899 23.4948 20.7688 23.8504 20.4774C24.206 20.186 24.6625 20.0481 25.1195 20.0941C25.5765 20.1401 25.9966 20.3662 26.2873 20.7227L27.2268 21.8747C27.2684 21.9256 27.288 21.991 27.2815 22.0564C27.2749 22.1219 27.2427 22.182 27.1919 22.2237L26.0426 23.1655C25.687 23.4569 25.2305 23.5948 24.7735 23.5488C24.3165 23.5028 23.8964 23.2767 23.6057 22.9202ZM31.8574 21.2833C32.0014 21.4598 32.1092 21.663 32.1748 21.8812C32.2404 22.0995 32.2625 22.3286 32.2398 22.5555C32.2171 22.7823 32.15 23.0024 32.0424 23.2033C31.9348 23.4041 31.7888 23.5818 31.6127 23.7261C31.4367 23.8704 31.234 23.9785 31.0162 24.0442C30.7985 24.11 30.5699 24.1321 30.3436 24.1094C30.1173 24.0866 29.8977 24.0194 29.6974 23.9115C29.497 23.8037 29.3198 23.6573 29.1758 23.4808L28.2363 22.3288C28.1948 22.2779 28.1751 22.2125 28.1817 22.147C28.1882 22.0816 28.2204 22.0214 28.2712 21.9798L29.4205 21.038C29.7761 20.7466 30.2326 20.6087 30.6896 20.6547C31.1466 20.7007 31.5667 20.9268 31.8574 21.2833ZM26.1112 25.9923C26.4019 26.3487 26.8219 26.5748 27.2789 26.6208C27.736 26.6668 28.1925 26.5289 28.5481 26.2375C28.9037 25.9461 29.1292 25.525 29.1751 25.0669C29.221 24.6088 29.0835 24.1512 28.7927 23.7947L27.8532 22.6427C27.8117 22.5918 27.7517 22.5595 27.6864 22.5529C27.6211 22.5464 27.5559 22.5661 27.5051 22.6077L26.3558 23.5495C26.0002 23.8409 25.7747 24.262 25.7288 24.7201C25.6829 25.1782 25.8204 25.6358 26.1112 25.9923Z" fill="#5BCA11"/>
<path d="M88.1539 105.266C88.3552 105.176 88.6081 105.274 88.6976 105.478L91.0122 110.748C91.1601 111.084 91.0346 111.395 90.7107 111.541C90.5007 111.635 90.2789 111.608 90.0971 111.456L86.1242 108.258L85.8207 113.39C85.8061 113.619 85.6865 113.8 85.4764 113.895C85.1526 114.041 84.8492 113.922 84.7013 113.586L82.3867 108.316C82.2972 108.112 82.3857 107.86 82.587 107.77C82.7883 107.679 83.0412 107.778 83.1307 107.981L85.0874 112.436L85.3714 107.642C85.3841 107.456 85.4862 107.283 85.67 107.2C85.8538 107.117 86.0493 107.157 86.1942 107.272L89.9103 110.268L87.9536 105.813C87.8641 105.609 87.9526 105.357 88.1539 105.266Z" fill="#5BCA11" stroke="#5BCA11" stroke-width="0.62"/>
<path d="M77.9982 109.319C79.7537 108.864 81.4745 109.949 81.9526 111.846C82.4308 113.743 81.4344 115.531 79.6789 115.986C77.9233 116.441 76.2026 115.356 75.7245 113.459C75.2463 111.562 76.2427 109.773 77.9982 109.319ZM78.197 110.108C76.865 110.453 76.1227 111.795 76.4919 113.26C76.8612 114.725 78.148 115.542 79.48 115.197C80.8121 114.852 81.5544 113.51 81.1851 112.045C80.8159 110.58 79.5291 109.763 78.197 110.108Z" fill="#5BCA11" stroke="#5BCA11" stroke-width="0.62"/>
<path d="M73.6332 110.686C73.8819 110.643 74.1093 110.79 74.1463 111.01C74.1559 111.067 74.1552 111.127 74.1409 111.168L72.6861 117.3C72.6242 117.566 72.4043 117.781 72.1038 117.833C71.8032 117.885 71.5256 117.756 71.3802 117.525L68.0069 112.239C67.9782 112.195 67.9598 112.149 67.9501 112.092C67.9116 111.863 68.0884 111.645 68.3371 111.602C68.534 111.568 68.7175 111.644 68.807 111.796L69.7552 113.313L72.8541 112.777L73.262 111.016C73.2985 110.852 73.4466 110.718 73.6332 110.686ZM71.9375 116.78L72.666 113.626L70.2201 114.049L71.9375 116.78Z" fill="#5BCA11" stroke="#5BCA11" stroke-width="0.62"/>
<path d="M62.2341 111.697C62.4981 111.712 62.6884 111.917 62.676 112.149L62.3637 117.994C62.3481 118.285 62.1598 118.439 61.843 118.422L59.8786 118.312C58.4317 118.232 57.5514 117.261 57.6186 116.002C57.6874 114.715 58.6749 113.877 60.1113 113.957L61.6532 114.043L61.7572 112.098C61.7696 111.866 61.9806 111.683 62.2341 111.697ZM61.464 117.585L61.6098 114.856L60.1101 114.773C59.1913 114.721 58.5819 115.221 58.5375 116.054C58.493 116.886 59.0454 117.451 59.9643 117.502L61.464 117.585Z" fill="#5BCA11" stroke="#5BCA11" stroke-width="0.62"/>
<path d="M54.3823 110.552C56.0824 111.011 57.0214 112.799 56.5242 114.691C56.027 116.583 54.3348 117.66 52.6347 117.201C50.9346 116.742 49.9956 114.954 50.4928 113.062C50.99 111.17 52.6822 110.092 54.3823 110.552ZM54.1756 111.338C52.8856 110.99 51.62 111.802 51.2361 113.263C50.8521 114.724 51.5515 116.066 52.8415 116.414C54.1315 116.763 55.397 115.951 55.781 114.49C56.1649 113.029 55.4656 111.687 54.1756 111.338Z" fill="#5BCA11" stroke="#5BCA11" stroke-width="0.62"/>
<path d="M49.3796 109.213C49.5999 109.295 49.7075 109.53 49.6288 109.758L47.7038 115.344C47.6252 115.573 47.398 115.684 47.1778 115.603C46.9664 115.524 46.8587 115.289 46.9374 115.061L48.8624 109.475C48.941 109.247 49.1682 109.135 49.3796 109.213Z" fill="#5BCA11" stroke="#5BCA11" stroke-width="0.62"/>
<path d="M46.3198 108.167C46.5189 108.261 46.611 108.519 46.5179 108.721L44.1121 113.935C43.9622 114.26 43.6405 114.386 43.3462 114.246C43.1472 114.151 43.0099 113.969 42.979 113.761L42.1312 107.709L40.0494 112.221C39.9522 112.432 39.7021 112.517 39.503 112.422C39.3039 112.328 39.2205 112.074 39.3136 111.872L41.7235 106.649C41.8693 106.333 42.1823 106.203 42.4853 106.347C42.6757 106.437 42.8083 106.607 42.8393 106.815L43.7004 112.884L45.7821 108.372C45.8753 108.17 46.1207 108.072 46.3198 108.167Z" fill="#5BCA11" stroke="#5BCA11" stroke-width="0.62"/>
<path d="M38.9732 104.416C39.1705 104.553 39.2125 104.817 39.0829 105.009L36.0204 109.544L37.4728 110.551C37.6543 110.677 37.7017 110.933 37.5774 111.117C37.4532 111.301 37.2006 111.349 37.0191 111.223L33.4197 108.727C33.2382 108.602 33.1908 108.346 33.3151 108.162C33.4393 107.978 33.6919 107.93 33.8734 108.056L35.3337 109.068L38.3961 104.533C38.5258 104.341 38.7838 104.285 38.9732 104.416Z" fill="#5BCA11" stroke="#5BCA11" stroke-width="0.62"/>
<path d="M26.5465 104.882C26.7078 105.042 26.8991 105.17 27.1095 105.256C27.3199 105.343 27.5452 105.387 27.7726 105.386C28.0001 105.386 28.2251 105.34 28.435 105.252C28.6448 105.164 28.8353 105.036 28.9956 104.874C29.1559 104.712 29.2829 104.521 29.3693 104.31C29.4556 104.099 29.4997 103.873 29.499 103.645C29.4983 103.417 29.4528 103.191 29.3651 102.981C29.2774 102.771 29.1492 102.58 28.9879 102.419L27.935 101.37C27.8884 101.324 27.8254 101.298 27.7598 101.298C27.6942 101.298 27.6314 101.325 27.5851 101.371L26.5388 102.427C26.215 102.753 26.0339 103.195 26.0354 103.656C26.0368 104.116 26.2207 104.557 26.5465 104.882ZM31.7782 99.6044C32.104 99.9289 32.2878 100.37 32.2893 100.83C32.2907 101.291 32.1096 101.733 31.7859 102.059C31.4621 102.386 31.0222 102.57 30.5629 102.572C30.1036 102.573 29.6625 102.392 29.3367 102.067L28.2838 101.018C28.2372 100.972 28.211 100.909 28.2108 100.843C28.2105 100.777 28.2364 100.714 28.2827 100.668L29.329 99.6121C29.6528 99.2855 30.0927 99.1013 30.552 99.0998C31.0113 99.0984 31.4524 99.2799 31.7782 99.6044ZM23.7386 102.085C23.5773 101.924 23.4491 101.733 23.3614 101.523C23.2738 101.312 23.2283 101.087 23.2275 100.859C23.2268 100.631 23.2709 100.405 23.3573 100.194C23.4437 99.9833 23.5706 99.7915 23.7309 99.6298C23.8912 99.4681 24.0817 99.3396 24.2916 99.2517C24.5014 99.1638 24.7265 99.1182 24.9539 99.1175C25.1813 99.1167 25.4067 99.1609 25.6171 99.2475C25.8275 99.3341 26.0188 99.4614 26.1801 99.6221L27.233 100.671C27.2796 100.717 27.3058 100.78 27.306 100.846C27.3062 100.912 27.2804 100.975 27.2341 101.022L26.1878 102.077C25.864 102.404 25.4241 102.588 24.9648 102.589C24.5055 102.591 24.0644 102.409 23.7386 102.085ZM28.9703 96.8074C28.6445 96.4829 28.2035 96.3014 27.7441 96.3028C27.2848 96.3043 26.8449 96.4886 26.5212 96.8152C26.1974 97.1417 26.0163 97.5839 26.0178 98.0443C26.0192 98.5047 26.2031 98.9457 26.5289 99.2702L27.5818 100.319C27.6284 100.365 27.6914 100.391 27.757 100.391C27.8226 100.391 27.8854 100.365 27.9317 100.318L28.978 99.2625C29.3018 98.9359 29.4829 98.4938 29.4814 98.0334C29.48 97.573 29.2961 97.132 28.9703 96.8074Z" fill="#5BCA11"/>
<path d="M95.7056 106.101C95.8496 106.278 96.0268 106.424 96.2272 106.532C96.4275 106.64 96.6471 106.707 96.8734 106.73C97.0997 106.753 97.3283 106.73 97.546 106.665C97.7638 106.599 97.9665 106.491 98.1426 106.347C98.3186 106.202 98.4646 106.025 98.5722 105.824C98.6798 105.623 98.7469 105.403 98.7696 105.176C98.7923 104.949 98.7702 104.72 98.7046 104.502C98.639 104.283 98.5312 104.08 98.3872 103.904L97.4477 102.752C97.4062 102.701 97.3461 102.669 97.2809 102.662C97.2156 102.655 97.1504 102.675 97.0996 102.717L95.9503 103.658C95.5947 103.95 95.3691 104.371 95.3233 104.829C95.2774 105.287 95.4149 105.745 95.7056 106.101ZM101.452 101.392C101.743 101.749 101.88 102.206 101.834 102.664C101.788 103.123 101.563 103.544 101.207 103.835C100.852 104.126 100.395 104.264 99.9381 104.218C99.4811 104.172 99.061 103.946 98.7703 103.59L97.8308 102.438C97.7892 102.387 97.7696 102.321 97.7761 102.256C97.7827 102.191 97.8149 102.13 97.8657 102.089L99.015 101.147C99.3706 100.856 99.8271 100.718 100.284 100.764C100.741 100.81 101.161 101.036 101.452 101.392ZM93.2002 103.029C93.0563 102.853 92.9484 102.65 92.8828 102.431C92.8172 102.213 92.7951 101.984 92.8178 101.757C92.8405 101.53 92.9076 101.31 93.0152 101.109C93.1228 100.908 93.2688 100.731 93.4449 100.586C93.6209 100.442 93.8236 100.334 94.0414 100.268C94.2592 100.202 94.4877 100.18 94.714 100.203C94.9403 100.226 95.1599 100.293 95.3603 100.401C95.5606 100.509 95.7378 100.655 95.8818 100.832L96.8213 101.984C96.8629 102.035 96.8825 102.1 96.876 102.165C96.8694 102.231 96.8372 102.291 96.7864 102.333L95.6371 103.274C95.2815 103.566 94.825 103.704 94.368 103.658C93.911 103.612 93.4909 103.386 93.2002 103.029ZM98.9465 98.3202C98.6558 97.9638 98.2357 97.7377 97.7787 97.6917C97.3217 97.6457 96.8651 97.7836 96.5095 98.075C96.1539 98.3664 95.9284 98.7875 95.8825 99.2456C95.8366 99.7037 95.9742 100.161 96.2649 100.518L97.2044 101.67C97.2459 101.721 97.306 101.753 97.3712 101.76C97.4365 101.766 97.5017 101.746 97.5525 101.705L98.7018 100.763C99.0574 100.472 99.2829 100.051 99.3288 99.5924C99.3747 99.1343 99.2372 98.6767 98.9465 98.3202Z" fill="#5BCA11"/>
<defs>
<filter id="filter0_i_2404_17895" x="16.1206" y="16.1211" width="91.7598" height="91.7617" filterUnits="userSpaceOnUse" color-interpolation-filters="sRGB">
<feFlood flood-opacity="0" result="BackgroundImageFix"/>
<feBlend mode="normal" in="SourceGraphic" in2="BackgroundImageFix" result="shape"/>
<feColorMatrix in="SourceAlpha" type="matrix" values="0 0 0 0 0 0 0 0 0 0 0 0 0 0 0 0 0 0 127 0" result="hardAlpha"/>
<feOffset dx="-2.48" dy="4.96"/>
<feComposite in2="hardAlpha" operator="arithmetic" k2="-1" k3="1"/>
<feColorMatrix type="matrix" values="0 0 0 0 0.293879 0 0 0 0 0.68666 0 0 0 0 0.0320247 0 0 0 1 0"/>
<feBlend mode="normal" in2="shape" result="effect1_innerShadow_2404_17895"/>
</filter>
<filter id="filter1_i_2404_17895" x="34.4736" y="34.4727" width="55.0562" height="55.0547" filterUnits="userSpaceOnUse" color-interpolation-filters="sRGB">
<feFlood flood-opacity="0" result="BackgroundImageFix"/>
<feBlend mode="normal" in="SourceGraphic" in2="BackgroundImageFix" result="shape"/>
<feColorMatrix in="SourceAlpha" type="matrix" values="0 0 0 0 0 0 0 0 0 0 0 0 0 0 0 0 0 0 127 0" result="hardAlpha"/>
<feOffset dx="-1.24" dy="1.24"/>
<feComposite in2="hardAlpha" operator="arithmetic" k2="-1" k3="1"/>
<feColorMatrix type="matrix" values="0 0 0 0 0.294118 0 0 0 0 0.686275 0 0 0 0 0.0313726 0 0 0 1 0"/>
<feBlend mode="normal" in2="shape" result="effect1_innerShadow_2404_17895"/>
</filter>
<filter id="filter2_d_2404_17895" x="48.98" y="46.5" width="28.5198" height="34.7205" filterUnits="userSpaceOnUse" color-interpolation-filters="sRGB">
<feFlood flood-opacity="0" result="BackgroundImageFix"/>
<feColorMatrix in="SourceAlpha" type="matrix" values="0 0 0 0 0 0 0 0 0 0 0 0 0 0 0 0 0 0 127 0" result="hardAlpha"/>
<feOffset dx="1.24" dy="1.24"/>
<feComposite in2="hardAlpha" operator="out"/>
<feColorMatrix type="matrix" values="0 0 0 0 0.294118 0 0 0 0 0.686275 0 0 0 0 0.0313726 0 0 0 1 0"/>
<feBlend mode="normal" in2="BackgroundImageFix" result="effect1_dropShadow_2404_17895"/>
<feBlend mode="normal" in="SourceGraphic" in2="effect1_dropShadow_2404_17895" result="shape"/>
</filter>
<clipPath id="clip0_2404_17895">
<rect x="16.1206" y="16.1211" width="91.76" height="91.76" rx="45.88" fill="white"/>
</clipPath>
</defs>
</svg>
