<svg width="160" height="160" viewBox="0 0 160 160" fill="none" xmlns="http://www.w3.org/2000/svg">
<rect width="160" height="160" fill="#E5E7EB"/>
<path d="M75.4842 112.927C74.8557 112.927 74.3462 112.417 74.3462 111.789V98.9367C74.3462 98.1503 73.5659 97.5996 72.8026 97.789C71.5115 98.1094 70.1638 98.2763 68.7596 98.2763C59.4487 98.2763 52 90.9511 52 81.7946C52 77.4265 53.6422 73.4784 56.4947 70.5263C56.8285 70.1809 56.9341 69.6718 56.7651 69.2221C56.0964 67.4424 55.7244 65.5042 55.7244 63.4817C55.7244 54.3252 63.1731 47 72.484 47C78.0763 47 83.0475 49.7146 86.1024 53.8374C86.3257 54.1387 86.6745 54.3252 87.0495 54.3252H87.3814C90.0714 54.3252 92.7351 54.8462 95.2203 55.8586C97.7055 56.8709 99.9637 58.3547 101.866 60.2253C103.768 62.0959 105.277 64.3165 106.306 66.7606C107.336 69.2046 107.865 71.824 107.865 74.4694C107.865 77.1148 107.336 79.7343 106.306 82.1783C105.277 84.6223 103.768 86.843 101.866 88.7136C99.9637 90.5841 97.7055 92.0679 95.2203 93.0803C92.7351 94.0926 90.0714 94.6137 87.3814 94.6137C86.1826 94.6137 84.9838 94.5074 83.7849 94.2949C82.9073 94.1393 82.1179 94.948 82.3684 95.8034L86.9546 111.469C87.1679 112.197 86.6216 112.927 85.8624 112.927L75.4842 112.927Z" fill="#D5D7DD"/>
<ellipse cx="88.3485" cy="99.5536" rx="2.97157" ry="2.97157" fill="#D5D7DD"/>
<ellipse cx="70.3512" cy="102.949" rx="1.95274" ry="1.95275" fill="#D5D7DD"/>
</svg>