<svg width="21" height="20" viewBox="0 0 21 20" fill="none" xmlns="http://www.w3.org/2000/svg">
<path fill-rule="evenodd" clip-rule="evenodd" d="M10.4225 0.166016C4.69732 0.166016 0.0690918 4.67296 0.0690918 10.2487C0.0690918 14.7056 3.03456 18.4783 7.14845 19.8136C7.66279 19.914 7.85119 19.5967 7.85119 19.3297C7.85119 19.096 7.83424 18.2948 7.83424 17.46C4.95418 18.061 4.35443 16.258 4.35443 16.258C3.89158 15.0895 3.20579 14.7892 3.20579 14.7892C2.26315 14.1715 3.27446 14.1715 3.27446 14.1715C4.3201 14.2383 4.86877 15.2065 4.86877 15.2065C5.79425 16.7421 7.28556 16.3082 7.88552 16.0411C7.97114 15.39 8.24558 14.9394 8.53698 14.689C6.23993 14.4553 3.82313 13.5873 3.82313 9.71438C3.82313 8.61264 4.23427 7.71125 4.88572 7.01021C4.78294 6.75987 4.42288 5.72471 4.98872 4.33924C4.98872 4.33924 5.86291 4.0721 7.83403 5.37419C8.67793 5.15349 9.54823 5.04122 10.4225 5.04027C11.2967 5.04027 12.1878 5.15725 13.0107 5.37419C14.982 4.0721 15.8562 4.33924 15.8562 4.33924C16.4221 5.72471 16.0618 6.75987 15.959 7.01021C16.6276 7.71125 17.0218 8.61264 17.0218 9.71438C17.0218 13.5873 14.605 14.4385 12.2908 14.689C12.668 15.0061 12.9936 15.607 12.9936 16.5586C12.9936 17.9107 12.9766 18.9958 12.9766 19.3295C12.9766 19.5967 13.1652 19.914 13.6793 19.8138C17.7932 18.4781 20.7587 14.7056 20.7587 10.2487C20.7757 4.67296 16.1305 0.166016 10.4225 0.166016Z" fill="#000301"/>
</svg>
