<svg width="107" height="20" viewBox="0 0 107 20" fill="none" xmlns="http://www.w3.org/2000/svg">
<path d="M85.9779 9.99963C85.9779 13.2452 83.3381 15.852 80.1118 15.852C76.8855 15.852 74.2456 13.2452 74.2456 9.99963C74.2456 6.75408 76.8855 4.1473 80.1118 4.1473C83.3381 4.1473 85.9779 6.75408 85.9779 9.99963ZM80.1118 19.0645C85.1418 19.0645 89.22 15.0063 89.22 9.99963C89.22 4.99295 85.1418 0.934768 80.1118 0.934768C75.0818 0.934768 71.0036 4.99295 71.0036 9.99963C71.0036 15.0063 75.0818 19.0645 80.1118 19.0645Z" fill="#00320F" stroke="#00320F" stroke-width="0.130463"/>
<path d="M47.0829 9.99963C47.0829 13.2452 44.4431 15.852 41.2168 15.852C37.9905 15.852 35.3506 13.2452 35.3506 9.99963C35.3506 6.75408 37.9905 4.1473 41.2168 4.1473C44.4431 4.1473 47.0829 6.75408 47.0829 9.99963ZM41.2168 19.0645C46.2468 19.0645 50.3249 15.0063 50.3249 9.99963C50.3249 4.99295 46.2468 0.934768 41.2168 0.934768C36.1868 0.934768 32.1086 4.99295 32.1086 9.99963C32.1086 15.0063 36.1868 19.0645 41.2168 19.0645Z" fill="#00320F" stroke="#00320F" stroke-width="0.130463"/>
<path d="M27.195 15.757L27.195 15.757C26.0705 15.9872 24.903 15.8865 23.8352 15.4671L23.8261 15.4635L23.8021 15.5242L23.8261 15.4635C22.7582 15.0421 21.8371 14.3201 21.1754 13.3861L21.1677 13.3751C20.5056 12.436 20.1342 11.3247 20.0992 10.1781L20.0991 10.1773C20.0991 10.1773 20.0991 10.1773 20.0991 10.1773C20.0643 9.03045 20.3675 7.89853 20.9715 6.92109L20.9715 6.92109L20.9782 6.91028C21.582 5.93789 22.4577 5.16163 23.4982 4.67668L23.5082 4.67202C24.5488 4.1894 25.7083 4.01889 26.8448 4.18143L26.8488 4.18201L26.8581 4.11744L26.8488 4.18201C27.972 4.34343 29.0243 4.82323 29.8801 5.56346L29.9111 5.59042L29.9541 5.54138L29.9111 5.59043L29.9218 5.59981L29.9705 5.64272L30.0136 5.59425L32.0504 3.3064L32.094 3.25744L32.0448 3.21409C32.0235 3.19529 32.0021 3.1766 31.9806 3.15801L31.9379 3.20735L31.9806 3.15801C31.1932 2.47695 30.2979 1.93889 29.336 1.56277C28.687 1.30901 28.0077 1.12896 27.3106 1.02846L27.3013 1.09301L27.3106 1.02846L27.3065 1.02787C25.5465 0.774928 23.7506 1.04007 22.1402 1.79061L22.13 1.79536C20.524 2.54622 19.1733 3.74746 18.2438 5.25169L18.237 5.26272L18.2926 5.29693L18.237 5.26272C17.3102 6.76737 16.8449 8.50859 16.8984 10.2728L16.9636 10.2708L16.8984 10.2728L16.8984 10.2736C16.952 12.0379 17.5221 13.748 18.5385 15.1943L18.5463 15.2055C19.5657 16.6514 20.9873 17.7694 22.6364 18.4223L22.6457 18.426C24.2987 19.0783 26.1075 19.235 27.8489 18.8767C27.8489 18.8767 27.8489 18.8767 27.8489 18.8767L27.8546 18.8755C28.5441 18.7332 29.211 18.5126 29.8431 18.2203C30.7799 17.7872 31.6404 17.1966 32.3847 16.4698C32.4052 16.4498 32.4256 16.4297 32.4459 16.4096L32.4923 16.3633L32.4459 16.3171L30.2739 14.156L30.2738 14.1559L30.2737 14.1558L30.2277 14.1102L30.1818 14.1559L30.1717 14.166L30.1422 14.1949C29.3329 14.9851 28.3118 15.5272 27.2006 15.7558L27.2138 15.8197L27.2006 15.7558L27.195 15.757Z" fill="#00320F" stroke="#00320F" stroke-width="0.130463"/>
<path d="M61.6201 15.4978L61.6766 15.4665L66.3509 7.78225V17.9911L66.4161 18.0563H69.5278L69.593 17.9911V2.084L69.5466 2.02156L66.6581 1.1485L66.5835 1.17704L60.3271 11.4622L54.429 1.21069L54.3543 1.18056L51.4467 2.02134L51.3996 2.084V17.9911L51.4648 18.0563H54.5765L54.6417 17.9911V8.06652L58.8799 15.4329L58.9356 15.4656L61.6201 15.4978Z" fill="#00320F" stroke="#00320F" stroke-width="0.130463" stroke-linejoin="bevel"/>
<mask id="path-5-outside-1_2221_2855" maskUnits="userSpaceOnUse" x="87.2253" y="0" width="19" height="19" fill="black">
<rect fill="white" x="87.2253" width="19" height="19"/>
<path fill-rule="evenodd" clip-rule="evenodd" d="M98.3845 1L95.561 1.01997L88.2253 17.0082L91.0581 18.2833L92.5953 14.9331H101.581L103.186 18.3033L106 16.9882L98.3845 1ZM100.113 11.8511L97.0039 5.32459L94.0094 11.8511H100.113Z"/>
</mask>
<path fill-rule="evenodd" clip-rule="evenodd" d="M98.3845 1L95.561 1.01997L88.2253 17.0082L91.0581 18.2833L92.5953 14.9331H101.581L103.186 18.3033L106 16.9882L98.3845 1ZM100.113 11.8511L97.0039 5.32459L94.0094 11.8511H100.113Z" fill="#00320F"/>
<path d="M95.561 1.01997L95.5601 0.889507L95.4424 0.965561L95.561 1.01997ZM98.3845 1L98.5023 0.943896L98.3836 0.86954L98.3845 1ZM88.2253 17.0082L88.1068 16.9538L88.1718 17.1271L88.2253 17.0082ZM91.0581 18.2833L91.0046 18.4023L91.1767 18.3378L91.0581 18.2833ZM92.5953 14.9331V14.8027L92.4767 14.8787L92.5953 14.9331ZM101.581 14.9331L101.698 14.877L101.581 14.8027V14.9331ZM103.186 18.3033L103.068 18.3594L103.241 18.4215L103.186 18.3033ZM106 16.9882L106.055 17.1064L106.118 16.9321L106 16.9882ZM100.113 11.8511V11.9815L100.23 11.795L100.113 11.8511ZM97.0039 5.32459L97.1216 5.26848L96.8853 5.27018L97.0039 5.32459ZM94.0094 11.8511L93.8908 11.7967L94.0094 11.9815V11.8511ZM95.5619 1.15043L98.3854 1.13046L98.3836 0.86954L95.5601 0.889507L95.5619 1.15043ZM88.3439 17.0626L95.6796 1.07437L95.4424 0.965561L88.1068 16.9538L88.3439 17.0626ZM91.1117 18.1644L88.2789 16.8892L88.1718 17.1271L91.0046 18.4023L91.1117 18.1644ZM92.4767 14.8787L90.9396 18.2289L91.1767 18.3378L92.7139 14.9875L92.4767 14.8787ZM101.581 14.8027H92.5953V15.0636H101.581V14.8027ZM103.304 18.2472L101.698 14.877L101.463 14.9892L103.068 18.3594L103.304 18.2472ZM105.945 16.87L103.131 18.1851L103.241 18.4215L106.055 17.1064L105.945 16.87ZM98.2667 1.0561L105.882 17.0443L106.118 16.9321L98.5023 0.943896L98.2667 1.0561ZM100.23 11.795L97.1216 5.26848L96.8861 5.38069L99.9948 11.9072L100.23 11.795ZM96.8853 5.27018L93.8908 11.7967L94.128 11.9055L97.1224 5.37899L96.8853 5.27018ZM94.0094 11.9815H100.113V11.7206H94.0094V11.9815Z" fill="#00320F" mask="url(#path-5-outside-1_2221_2855)"/>
<path d="M11.1365 18.8133L11.1365 18.8133C11.7154 18.6732 12.2765 18.4766 12.8124 18.2277C13.7023 17.8144 14.5225 17.257 15.2387 16.5746C15.2951 16.5209 15.3508 16.4664 15.4059 16.4111L15.4518 16.365L15.4059 16.319L13.252 14.1578L13.2058 14.1114L13.1596 14.1578L13.132 14.1853C13.1053 14.2118 13.0783 14.2379 13.0512 14.2638C12.3044 14.9754 11.3832 15.4774 10.3799 15.7181L10.3626 15.7223C9.32298 15.9684 8.23612 15.9246 7.2196 15.5956L7.19749 15.5884L7.17716 15.6504L7.19749 15.5884C6.18113 15.2551 5.27531 14.649 4.578 13.8362L4.55308 13.8069C3.86249 12.9912 3.40716 12.002 3.23579 10.9462L3.23031 10.9117L3.22852 10.9002L3.21857 10.8357L3.15405 10.8457L0.1438 11.3131L0.0794069 11.3231L0.0893391 11.3875L0.100548 11.4583C0.267043 12.4842 0.607386 13.4693 1.1028 14.3724C1.38745 14.8913 1.72329 15.3831 2.10676 15.8401L2.13198 15.87L2.18095 15.8285L2.13198 15.87C3.20732 17.1402 4.61074 18.0882 6.1879 18.6101L6.2084 18.5482L6.18791 18.6101L6.21039 18.6175C7.79671 19.1378 9.49566 19.2071 11.1188 18.8176L11.1365 18.8133Z" fill="#00320F" stroke="#00320F" stroke-width="0.130463"/>
<path d="M0.0848441 11.4324L0.159658 11.4862L0.439124 11.4408C0.663149 11.7314 0.927019 11.956 1.16298 12.1241C1.58642 12.4258 2.08352 12.6625 2.58728 12.8494C3.59908 13.225 4.84994 13.4779 6.14074 13.5887C8.6293 13.8023 11.8199 13.5293 13.9308 12.007C16.3943 10.2305 16.5624 7.1527 15.3093 4.85432C14.0214 2.49206 11.242 0.781738 7.54653 1.05289C4.88999 1.24781 2.75991 2.54023 1.43539 4.49435C0.128065 6.42309 -0.33454 8.8991 0.0848441 11.4324ZM7.78594 4.25664C10.2845 4.07332 11.8121 5.19857 12.4569 6.38126C13.1356 7.62604 12.8642 8.80295 12.023 9.40957C11.4499 9.8229 10.6116 10.1164 9.63233 10.282C8.65416 10.4474 7.54043 10.4843 6.42058 10.3882C5.34489 10.2958 4.39572 10.0902 3.7245 9.84104C3.48142 9.75082 3.30158 9.66471 3.17654 9.59259C3.18346 8.29399 3.53627 7.15669 4.12677 6.2855C4.89285 5.15528 6.11623 4.37915 7.78594 4.25664Z" fill="#00320F" stroke="#00320F" stroke-width="0.130463" stroke-linejoin="bevel"/>
</svg>
