<svg width="800" height="400" viewBox="0 0 800 400" fill="none" xmlns="http://www.w3.org/2000/svg">
<rect width="800" height="400" fill="#CBF5CB"/>
<mask id="mask0_2428_18794" style="mask-type:alpha" maskUnits="userSpaceOnUse" x="0" y="0" width="800" height="400">
<rect width="800" height="400" fill="#CBF5CB"/>
</mask>
<g mask="url(#mask0_2428_18794)">
<circle cx="634" cy="206" r="296" fill="url(#paint0_radial_2428_18794)" fill-opacity="0.2"/>
<circle cx="634" cy="206" r="185" fill="url(#paint1_radial_2428_18794)" fill-opacity="0.2"/>
<path fill-rule="evenodd" clip-rule="evenodd" d="M139.798 54.4656H145.436C159.012 54.4656 170.018 65.4711 170.018 79.047C170.018 92.6229 159.012 103.628 145.436 103.628H95.5814C82.0054 103.628 71 92.6229 71 79.047C71 68.1666 78.069 58.9373 87.8648 55.7012C89.6248 42.8779 100.625 33 113.931 33C126.808 33 137.524 42.2489 139.798 54.4656Z" fill="#FBFFEE"/>
<path fill-rule="evenodd" clip-rule="evenodd" d="M215.069 49.2901H217.626C223.784 49.2901 228.777 54.2822 228.777 60.4404C228.777 66.5985 223.784 71.5907 217.626 71.5907H195.012C188.853 71.5907 183.861 66.5985 183.861 60.4404C183.861 55.5049 187.068 51.3183 191.511 49.8505C192.31 44.0336 197.299 39.5527 203.336 39.5527C209.176 39.5527 214.037 43.7483 215.069 49.2901Z" fill="#FBFFEE"/>
<path d="M204 401C466.129 353.54 694.999 357.519 802 358.525V401H204Z" fill="#00691E"/>
<path fill-rule="evenodd" clip-rule="evenodd" d="M342.723 194.315C354.601 194.315 364.322 184.895 364.322 173.165C364.322 161.435 354.601 152.015 342.723 152.015C330.844 152.015 321.124 161.435 321.124 173.165C321.124 184.895 330.844 194.315 342.723 194.315ZM342.723 205.33C360.909 205.33 375.653 190.929 375.653 173.165C375.653 155.401 360.909 141 342.723 141C324.536 141 309.793 155.401 309.793 173.165C309.793 190.929 324.536 205.33 342.723 205.33Z" fill="#0D9C36"/>
<path fill-rule="evenodd" clip-rule="evenodd" d="M201.09 194.315C212.968 194.315 222.689 184.895 222.689 173.165C222.689 161.435 212.968 152.015 201.09 152.015C189.211 152.015 179.491 161.435 179.491 173.165C179.491 184.895 189.211 194.315 201.09 194.315ZM201.09 205.33C219.277 205.33 234.02 190.929 234.02 173.165C234.02 155.401 219.277 141 201.09 141C182.903 141 168.16 155.401 168.16 173.165C168.16 190.929 182.903 205.33 201.09 205.33Z" fill="#0D9C36"/>
<path fill-rule="evenodd" clip-rule="evenodd" d="M160.928 188.326C157.949 191.181 154.19 193.14 150.099 193.966C150.092 193.968 150.085 193.969 150.078 193.97C145.938 194.802 141.64 194.438 137.709 192.923C137.698 192.919 137.687 192.914 137.675 192.91C133.744 191.387 130.353 188.778 127.916 185.403C127.907 185.39 127.897 185.377 127.888 185.363C125.45 181.97 124.082 177.954 123.954 173.81C123.954 173.809 123.953 173.808 123.953 173.807C123.825 169.663 124.942 165.572 127.166 162.04C127.174 162.027 127.182 162.014 127.19 162.001C129.413 158.487 132.637 155.682 136.468 153.929C136.481 153.924 136.493 153.918 136.505 153.912C140.336 152.169 144.605 151.552 148.789 152.14C148.794 152.14 148.799 152.141 148.804 152.142C152.939 152.725 156.813 154.459 159.964 157.134C160.002 157.166 160.04 157.198 160.078 157.231C160.091 157.242 160.104 157.254 160.117 157.265L167.534 149.088C167.457 149.021 167.379 148.955 167.302 148.889C164.455 146.472 161.218 144.563 157.74 143.229C155.394 142.328 152.938 141.689 150.417 141.332C150.413 141.332 150.408 141.331 150.403 141.33C144.039 140.433 137.546 141.374 131.724 144.037C131.711 144.043 131.699 144.048 131.687 144.054C125.881 146.718 120.997 150.981 117.637 156.318C117.629 156.331 117.62 156.344 117.612 156.357C114.262 161.696 112.58 167.875 112.773 174.134C112.773 174.135 112.773 174.136 112.773 174.137C112.967 180.397 115.028 186.465 118.702 191.597C118.712 191.61 118.721 191.624 118.731 191.637C122.416 196.767 127.555 200.734 133.518 203.051C133.529 203.056 133.54 203.06 133.551 203.064C139.528 205.379 146.068 205.935 152.364 204.664C152.371 204.662 152.378 204.661 152.384 204.66C154.877 204.155 157.288 203.372 159.574 202.335C162.961 200.798 166.072 198.702 168.763 196.123C168.837 196.052 168.911 195.981 168.984 195.909L161.075 188.185L161.074 188.185C161.062 188.197 161.049 188.209 161.037 188.221C161.001 188.256 160.965 188.291 160.928 188.326Z" fill="#0D9C36"/>
<path fill-rule="evenodd" clip-rule="evenodd" d="M292.853 164.408L275.391 192.583L265.616 192.467L249.739 165.383V201.727H238.408V144.874L248.996 141.869L270.674 178.85L293.666 141.754L304.184 144.874V201.727H292.853V164.408Z" fill="#0D9C36"/>
<path fill-rule="evenodd" clip-rule="evenodd" d="M409.268 141L398.986 141.071L372.273 198.214L382.589 202.771L388.186 190.799H420.907L426.752 202.843L437 198.143L409.268 141ZM415.561 179.783L404.24 156.456L393.335 179.783H415.561Z" fill="#0D9C36"/>
<path fill-rule="evenodd" clip-rule="evenodd" d="M97.5545 202.362C95.6174 203.245 93.5889 203.942 91.496 204.44C91.4747 204.445 91.4535 204.45 91.4322 204.455C85.5643 205.837 79.4224 205.591 73.6876 203.745C73.6605 203.736 73.6334 203.727 73.6063 203.718C67.9047 201.867 62.831 198.503 58.9434 193.996C58.9129 193.961 58.8825 193.925 58.8522 193.89C57.4659 192.268 56.2517 190.523 55.2226 188.682C53.4315 185.477 52.2011 181.982 51.5991 178.342C51.5853 178.258 51.5718 178.174 51.5586 178.09L62.5204 176.42C62.5226 176.434 62.5248 176.448 62.527 176.462C62.5336 176.503 62.5403 176.544 62.5472 176.586C63.1781 180.401 64.8545 183.976 67.3972 186.924C67.4277 186.959 67.4583 186.994 67.489 187.029C70.0564 189.967 73.3917 192.157 77.1341 193.362C77.1612 193.37 77.1883 193.379 77.2155 193.388C80.9585 194.577 84.9605 194.735 88.7885 193.846C88.8098 193.841 88.8311 193.836 88.8523 193.831C92.5465 192.961 95.9386 191.146 98.6881 188.575C98.7882 188.481 98.8874 188.387 98.9857 188.291C99.0197 188.258 99.0536 188.225 99.0875 188.192L106.931 195.916C106.732 196.112 106.53 196.306 106.326 196.496C103.737 198.917 100.772 200.895 97.5545 202.362Z" fill="#0D9C36"/>
<path fill-rule="evenodd" clip-rule="evenodd" d="M96.5703 160.124C94.1747 155.812 88.5201 151.749 79.3351 152.41C73.1833 152.853 68.6619 155.664 65.831 159.763C63.6307 162.949 62.3306 167.108 62.3294 171.846C62.8023 172.126 63.5067 172.465 64.4801 172.82C66.9491 173.719 70.4274 174.458 74.3602 174.789C82.5509 175.479 90.664 174.261 94.9207 171.248C98.1001 168.998 99.0868 164.655 96.5703 160.124ZM52.7019 178.066C53.5167 179.135 54.4956 179.958 55.3728 180.571C56.8923 181.634 58.6819 182.471 60.5042 183.135C64.1639 184.468 68.697 185.369 73.3818 185.763C82.4263 186.525 93.9733 185.544 101.59 180.154C110.44 173.89 111.061 163.029 106.54 154.89C101.898 146.533 91.8687 140.462 78.498 141.425C68.8957 142.116 61.2055 146.699 56.4236 153.623C51.7019 160.46 50.0246 169.247 51.5433 178.251L52.7019 178.066ZM61.7339 171.425C61.7345 171.425 61.7434 171.433 61.7585 171.45C61.7408 171.434 61.7332 171.425 61.7339 171.425Z" fill="#0D9C36"/>
<mask id="mask1_2428_18794" style="mask-type:alpha" maskUnits="userSpaceOnUse" x="306" y="224" width="142" height="143">
<rect x="306" y="274.83" width="103.104" height="105.106" transform="rotate(-29.5375 306 274.83)" fill="#D9D9D9"/>
</mask>
<g mask="url(#mask1_2428_18794)">
<path d="M338.602 318.228C364.564 333.498 385.199 322.35 390.461 318.935C391.326 318.373 391.853 317.478 391.923 316.448C392.344 310.22 392.015 286.965 365.992 271.66C345.52 259.619 325.013 265.646 316.389 269.21C313.701 270.32 312.142 272.985 312.482 275.874C313.577 285.206 318.296 306.285 338.602 318.228Z" fill="#FF738F"/>
<path d="M416.281 274.213C416.038 304.331 395.87 316.303 390.236 319.062C389.31 319.516 388.27 319.508 387.352 319.038C381.793 316.198 362.013 303.965 362.256 273.776C362.448 250.027 378.158 235.532 385.647 229.966C387.981 228.231 391.068 228.263 393.371 230.038C400.814 235.775 416.471 250.655 416.281 274.213Z" fill="#FF738F"/>
<ellipse cx="6.62605" cy="6.62605" rx="6.62605" ry="6.62605" transform="matrix(-0.803291 0.595586 0.595586 0.803291 366.988 285.398)" fill="white"/>
<ellipse cx="4.94621" cy="4.9462" rx="4.94621" ry="4.9462" transform="matrix(-0.803291 0.595586 0.595586 0.803291 366.637 287.748)" fill="black"/>
<ellipse cx="6.62605" cy="6.62605" rx="6.62605" ry="6.62605" transform="matrix(-0.803291 0.595586 0.595586 0.803291 380.326 276.434)" fill="white"/>
<ellipse cx="4.94621" cy="4.9462" rx="4.94621" ry="4.9462" transform="matrix(-0.803291 0.595586 0.595586 0.803291 379.975 278.783)" fill="black"/>
<path d="M375.381 302.518C375.381 302.518 376.177 302.945 376.971 302.355C377.765 301.766 377.127 301.221 377.921 300.631C378.715 300.041 379.052 300.81 379.846 300.22C380.64 299.63 380.002 299.085 380.795 298.496C381.589 297.906 381.927 298.674 382.72 298.085C383.514 297.495 383.417 296.548 383.417 296.548" stroke="#DC3D5C" stroke-width="5.98058" stroke-linecap="round"/>
<path d="M375.381 302.518C375.381 302.518 376.177 302.945 376.971 302.355C377.765 301.766 377.127 301.221 377.921 300.631C378.715 300.041 379.052 300.81 379.846 300.22C380.64 299.63 380.002 299.085 380.795 298.496C381.589 297.906 381.927 298.674 382.72 298.085C383.514 297.495 383.417 296.548 383.417 296.548" stroke="black" stroke-width="1.08738" stroke-linecap="round"/>
</g>
<circle cx="366.071" cy="292.184" r="1.00101" transform="rotate(-29.5375 366.071 292.184)" fill="white"/>
<circle cx="379.06" cy="283.291" r="1.00101" transform="rotate(-29.5375 379.06 283.291)" fill="white"/>
<path d="M661.459 247.422C661.459 295.565 622.432 334.592 574.289 334.592C526.147 334.592 487.119 295.565 487.119 247.422C487.119 199.279 526.147 160.252 574.289 160.252C622.432 160.252 661.459 199.279 661.459 247.422Z" fill="#0FCE45"/>
<path d="M757.806 282.75C757.806 324.051 724.119 357.532 682.564 357.532C641.009 357.532 607.323 324.051 607.323 282.75C607.323 241.448 641.009 207.967 682.564 207.967C724.119 207.967 757.806 241.448 757.806 282.75Z" fill="#0FCE45"/>
<path d="M728.442 177.227C728.442 214.474 698.453 244.669 661.459 244.669C624.465 244.669 594.476 214.474 594.476 177.227C594.476 139.98 624.465 109.785 661.459 109.785C698.453 109.785 728.442 139.98 728.442 177.227Z" fill="#0FCE45"/>
<path d="M567.981 402.236L614.156 297.999C614.186 297.932 614.252 297.889 614.324 297.889H635.126C635.227 297.889 635.309 297.972 635.309 298.073V402.31C635.309 402.411 635.227 402.493 635.126 402.493H568.149C568.016 402.493 567.928 402.357 567.981 402.236Z" fill="#0FCE45"/>
<ellipse cx="651.103" cy="236.168" rx="18.2215" ry="18.2214" transform="rotate(7.01693 651.103 236.168)" fill="white"/>
<ellipse cx="651.102" cy="236.169" rx="13.6019" ry="13.6019" transform="rotate(7.01693 651.102 236.169)" fill="black"/>
<ellipse cx="607.037" cy="232.811" rx="18.2215" ry="18.2214" transform="rotate(7.01693 607.037 232.811)" fill="white"/>
<ellipse cx="607.038" cy="232.812" rx="13.6019" ry="13.6019" transform="rotate(7.01693 607.038 232.812)" fill="black"/>
<circle cx="656.847" cy="231.167" r="2.47561" fill="white"/>
<circle cx="613.521" cy="228.69" r="2.47561" fill="white"/>
<path d="M616.896 264.051C616.896 264.051 620.538 266.037 627.844 266.237C634.539 266.421 637.819 264.782 637.819 264.782" stroke="#F27840" stroke-width="15.5084" stroke-linecap="round"/>
<path d="M616.896 264.051C616.896 264.051 620.538 266.037 627.844 266.237C634.539 266.421 637.819 264.782 637.819 264.782" stroke="black" stroke-width="2.81972" stroke-linecap="round"/>
<path d="M775.253 151.828C776.884 147.421 783.116 147.421 784.747 151.828L785.134 152.875C785.647 154.261 786.739 155.353 788.125 155.866L789.172 156.253C793.579 157.884 793.579 164.116 789.172 165.747L788.125 166.134C786.739 166.647 785.647 167.739 785.134 169.125L784.747 170.172C783.116 174.579 776.884 174.579 775.253 170.172L774.866 169.125C774.353 167.739 773.261 166.647 771.875 166.134L770.828 165.747C766.421 164.116 766.421 157.884 770.828 156.253L771.875 155.866C773.261 155.353 774.353 154.261 774.866 152.875L775.253 151.828Z" fill="#FFD64E"/>
<path d="M752.406 172.659C753.125 170.715 755.875 170.715 756.594 172.659L756.71 172.971C756.936 173.582 757.418 174.064 758.029 174.29L758.341 174.406C760.285 175.125 760.285 177.875 758.341 178.594L758.029 178.71C757.418 178.936 756.936 179.418 756.71 180.029L756.594 180.341C755.875 182.285 753.125 182.285 752.406 180.341L752.29 180.029C752.064 179.418 751.582 178.936 750.971 178.71L750.659 178.594C748.715 177.875 748.715 175.125 750.659 174.406L750.971 174.29C751.582 174.064 752.064 173.582 752.29 172.971L752.406 172.659Z" fill="#FFD64E"/>
<path d="M207.411 339.424C219.92 322.157 235.293 319.964 242.675 320.036C245.509 320.064 248.012 321.623 249.288 324.154C252.619 330.766 257.428 345.573 247.13 364.25C234.703 384.13 220.085 379.571 214.662 376.901C213.163 376.163 211.759 375.272 210.448 374.236C205.67 370.463 195.092 359.133 207.411 339.424Z" fill="#FFD64E"/>
<ellipse cx="233.992" cy="345.02" rx="3.95803" ry="3.95802" transform="rotate(24.0243 233.992 345.02)" fill="white"/>
<ellipse cx="233.99" cy="345.017" rx="2.95458" ry="2.95458" transform="rotate(24.0243 233.99 345.017)" fill="black"/>
<ellipse cx="225.053" cy="341.52" rx="3.95803" ry="3.95802" transform="rotate(24.0243 225.053 341.52)" fill="white"/>
<ellipse cx="225.05" cy="341.521" rx="2.95458" ry="2.95458" transform="rotate(24.0243 225.05 341.521)" fill="black"/>
<path d="M226.314 352.291C226.89 352.467 227.365 352.228 227.601 352.064C227.852 351.891 228.044 351.664 228.186 351.466C228.476 351.058 228.72 350.525 228.892 349.963C229.064 349.401 229.16 348.823 229.147 348.322C229.141 348.078 229.108 347.783 228.998 347.499C228.893 347.231 228.633 346.767 228.057 346.591C227.482 346.415 227.007 346.654 226.77 346.818C226.52 346.991 226.327 347.218 226.186 347.416C225.896 347.825 225.651 348.357 225.48 348.919C225.308 349.481 225.212 350.059 225.224 350.56C225.231 350.804 225.264 351.099 225.374 351.383C225.478 351.651 225.739 352.115 226.314 352.291Z" fill="black" stroke="#F26A40" stroke-width="2.37266"/>
<circle cx="226.541" cy="341.323" r="0.597944" transform="rotate(17.0073 226.541 341.323)" fill="white"/>
<circle cx="235.516" cy="344.694" r="0.597944" transform="rotate(17.0073 235.516 344.694)" fill="white"/>
<path d="M209.674 315.91C209.187 314.591 207.322 314.591 206.835 315.91V315.91C206.681 316.324 206.354 316.651 205.94 316.804V316.804C204.622 317.292 204.622 319.156 205.94 319.644V319.644C206.354 319.797 206.681 320.124 206.835 320.539V320.539C207.322 321.857 209.187 321.857 209.674 320.539V320.539C209.828 320.124 210.155 319.797 210.569 319.644V319.644C211.887 319.156 211.887 317.292 210.569 316.804V316.804C210.155 316.651 209.828 316.324 209.674 315.91V315.91Z" fill="#FFD64E"/>
<path d="M213.766 322.453C213.551 321.871 212.728 321.871 212.513 322.453V322.453C212.445 322.636 212.301 322.78 212.118 322.847V322.847C211.537 323.063 211.537 323.885 212.118 324.1V324.1C212.301 324.168 212.445 324.312 212.513 324.495V324.495C212.728 325.076 213.551 325.076 213.766 324.495V324.495C213.834 324.312 213.978 324.168 214.161 324.1V324.1C214.742 323.885 214.742 323.063 214.161 322.847V322.847C213.978 322.78 213.834 322.636 213.766 322.453V322.453Z" fill="#FFD64E"/>
</g>
<circle cx="86.2533" cy="276.041" r="30.3529" transform="rotate(20.438 86.2533 276.041)" fill="#28B0FB"/>
<circle cx="68.0404" cy="324.914" r="30.3529" transform="rotate(20.438 68.0404 324.914)" fill="#28B0FB"/>
<circle cx="139.933" cy="296.045" r="30.3529" transform="rotate(20.438 139.933 296.045)" fill="#28B0FB"/>
<circle cx="121.722" cy="344.92" r="30.3529" transform="rotate(20.438 121.722 344.92)" fill="#28B0FB"/>
<rect x="78.3281" y="266.701" width="64.1258" height="64.1258" transform="rotate(20.438 78.3281 266.701)" fill="#28B0FB"/>
<ellipse cx="112.605" cy="316.525" rx="8.48922" ry="8.48921" transform="rotate(23.6692 112.605 316.525)" fill="white"/>
<ellipse cx="112.606" cy="316.526" rx="6.33709" ry="6.33709" transform="rotate(23.6692 112.606 316.526)" fill="black"/>
<ellipse cx="93.3866" cy="309.146" rx="8.48922" ry="8.48921" transform="rotate(23.6692 93.3866 309.146)" fill="white"/>
<ellipse cx="93.3869" cy="309.147" rx="6.33709" ry="6.33709" transform="rotate(23.6692 93.3869 309.147)" fill="black"/>
<path d="M96.0911 323.305C96.0911 323.305 95.2904 326.048 97.892 327.024C100.494 327.999 101.536 325.423 101.536 325.423" stroke="#DF8080" stroke-width="4.69705" stroke-linecap="round"/>
<path d="M96.0911 323.305C96.0911 323.305 95.2904 326.048 97.892 327.024C100.494 327.999 101.536 325.423 101.536 325.423" stroke="black" stroke-width="1.17426" stroke-linecap="round"/>
<circle cx="96.7773" cy="307.792" r="1.28242" transform="rotate(20.438 96.7773 307.792)" fill="white"/>
<circle cx="116.006" cy="314.956" r="1.28242" transform="rotate(20.438 116.006 314.956)" fill="white"/>
<defs>
<radialGradient id="paint0_radial_2428_18794" cx="0" cy="0" r="1" gradientUnits="userSpaceOnUse" gradientTransform="translate(634 328.79) rotate(-90) scale(423.051)">
<stop stop-color="#17FF5D" stop-opacity="0"/>
<stop offset="0.986102" stop-color="#37E307" stop-opacity="0.88"/>
</radialGradient>
<radialGradient id="paint1_radial_2428_18794" cx="0" cy="0" r="1" gradientUnits="userSpaceOnUse" gradientTransform="translate(634 282.744) rotate(-90) scale(264.407)">
<stop stop-color="#17FF5D" stop-opacity="0"/>
<stop offset="0.986102" stop-color="#37E307" stop-opacity="0.88"/>
</radialGradient>
</defs>
</svg>
