<svg width="344" height="268" viewBox="0 0 344 268" fill="none" xmlns="http://www.w3.org/2000/svg">
<g clip-path="url(#clip0_1442_2870)">
<rect x="202" y="12" width="78" height="78" rx="39" fill="#FFEFEE"/>
<rect x="223.223" y="29.4639" width="35.5556" height="15.8334" rx="7.91671" fill="#000301"/>
<path d="M231.626 40.4746C229.901 40.4746 229.104 39.0494 229.104 37.1459C229.104 35.2424 229.901 33.8171 231.626 33.8171C233.361 33.8171 234.149 35.2424 234.149 37.1459C234.149 39.0494 233.361 40.4746 231.626 40.4746ZM231.626 39.4619C232.658 39.4619 233.08 38.5711 233.08 37.1459C233.08 35.7206 232.658 34.8298 231.626 34.8298C230.604 34.8298 230.182 35.7206 230.182 37.1459C230.182 38.5711 230.604 39.4619 231.626 39.4619ZM235.604 40.4465C235.248 40.4465 234.948 40.1558 234.948 39.7995C234.948 39.4338 235.248 39.1431 235.604 39.1431C235.97 39.1431 236.27 39.4338 236.27 39.7995C236.27 40.1558 235.97 40.4465 235.604 40.4465ZM240.543 40.4371C240.243 40.4371 240.018 40.2027 240.018 39.912V38.768H237.477C237.149 38.768 236.896 38.5524 236.896 38.2336C236.896 38.0742 236.952 37.9148 237.046 37.7741L239.643 34.2297C239.821 33.9859 240.028 33.8546 240.328 33.8546C240.787 33.8546 241.059 34.2015 241.059 34.6141V37.7741H241.556C241.828 37.7741 242.053 37.9991 242.053 38.2711C242.053 38.5524 241.828 38.768 241.556 38.768H241.059V39.912C241.059 40.2027 240.834 40.4371 240.543 40.4371ZM240.028 35.2517L238.171 37.7741H240.028V35.2517ZM243.649 40.4371C243.359 40.4371 243.134 40.2121 243.134 39.912V34.3703C243.134 34.0796 243.359 33.8546 243.649 33.8546C243.949 33.8546 244.174 34.0796 244.174 34.3703V38.046L246.209 35.8706C246.331 35.7393 246.462 35.6737 246.612 35.6737C246.875 35.6737 247.1 35.8987 247.1 36.1613C247.1 36.2738 247.053 36.3957 246.931 36.5364L245.75 37.7554L247.091 39.612C247.175 39.7432 247.212 39.8276 247.212 39.9401C247.212 40.2121 246.978 40.4371 246.697 40.4371C246.509 40.4371 246.359 40.334 246.228 40.1464L245.028 38.4774L244.174 39.3775V39.912C244.174 40.2121 243.949 40.4371 243.649 40.4371ZM250.788 42.2187H248.931C248.669 42.2187 248.462 42.0218 248.462 41.7499C248.462 41.4779 248.669 41.281 248.931 41.281H250.816C251.379 41.281 251.697 41.0185 251.697 40.3902V39.6964C251.341 40.1183 250.797 40.3527 250.178 40.3527C248.819 40.3527 247.844 39.3213 247.844 37.9898C247.844 36.6676 248.894 35.6362 250.178 35.6362C250.807 35.6362 251.35 35.8706 251.707 36.3019V36.18C251.707 35.8894 251.922 35.6643 252.213 35.6643C252.494 35.6643 252.71 35.8894 252.71 36.18V40.3434C252.71 41.6467 251.885 42.2187 250.788 42.2187ZM250.272 39.3869C251.079 39.3869 251.669 38.7962 251.669 37.9898C251.669 37.1834 251.079 36.5926 250.272 36.5926C249.466 36.5926 248.884 37.1834 248.884 37.9898C248.884 38.7962 249.466 39.3869 250.272 39.3869Z" fill="white"/>
<path d="M239.787 47.3321C239.445 47.6673 238.897 47.6673 238.555 47.3321L236.479 45.2968L241.863 45.2968L239.787 47.3321Z" fill="#000301"/>
<path d="M248.282 51.5361C250.225 51.5361 251.801 53.1114 251.801 55.0547L251.801 69.0201C251.801 70.962 250.227 72.5361 248.285 72.5361L233.717 72.5361C231.775 72.5361 230.201 70.962 230.201 69.0201L230.201 55.0547C230.201 53.1114 231.776 51.5361 233.719 51.5361L248.282 51.5361Z" fill="#FF7D6F"/>
<path d="M248.282 51.5361C250.225 51.5361 251.801 53.1114 251.801 55.0547L251.801 69.0201C251.801 70.962 250.227 72.5361 248.285 72.5361L233.717 72.5361C231.775 72.5361 230.201 70.962 230.201 69.0201L230.201 55.0547C230.201 53.1114 231.776 51.5361 233.719 51.5361L248.282 51.5361Z" stroke="white"/>
<rect x="121" y="171" width="40" height="40" rx="20" fill="#CEDAFE"/>
<rect x="130.752" y="182.209" width="20.4958" height="9.74364" rx="4.87182" fill="#525660"/>
<path d="M136.023 189.139C134.962 189.139 134.471 188.262 134.471 187.09C134.471 185.919 134.962 185.042 136.023 185.042C137.091 185.042 137.576 185.919 137.576 187.09C137.576 188.262 137.091 189.139 136.023 189.139ZM136.023 188.516C136.658 188.516 136.918 187.967 136.918 187.09C136.918 186.213 136.658 185.665 136.023 185.665C135.394 185.665 135.135 186.213 135.135 187.09C135.135 187.967 135.394 188.516 136.023 188.516ZM138.471 189.121C138.252 189.121 138.067 188.943 138.067 188.723C138.067 188.498 138.252 188.319 138.471 188.319C138.696 188.319 138.881 188.498 138.881 188.723C138.881 188.943 138.696 189.121 138.471 189.121ZM140.265 189.116C140.074 189.116 139.936 188.971 139.936 188.787V185.936L139.457 186.294C139.411 186.329 139.347 186.352 139.278 186.352C139.116 186.352 138.984 186.219 138.984 186.052C138.984 185.948 139.024 185.867 139.099 185.809L139.982 185.146C140.045 185.1 140.138 185.065 140.236 185.065C140.461 185.065 140.588 185.232 140.588 185.44V188.787C140.588 188.971 140.449 189.116 140.265 189.116ZM141.839 189.116C141.66 189.116 141.521 188.977 141.521 188.793V185.382C141.521 185.203 141.66 185.065 141.839 185.065C142.023 185.065 142.162 185.203 142.162 185.382V187.644L143.414 186.306C143.489 186.225 143.57 186.184 143.662 186.184C143.824 186.184 143.962 186.323 143.962 186.484C143.962 186.554 143.933 186.629 143.858 186.715L143.131 187.465L143.956 188.608C144.008 188.689 144.031 188.741 144.031 188.81C144.031 188.977 143.887 189.116 143.714 189.116C143.599 189.116 143.506 189.052 143.425 188.937L142.687 187.91L142.162 188.464V188.793C142.162 188.977 142.023 189.116 141.839 189.116ZM146.232 190.212H145.089C144.927 190.212 144.801 190.091 144.801 189.924C144.801 189.756 144.927 189.635 145.089 189.635H146.249C146.595 189.635 146.791 189.473 146.791 189.087V188.66C146.572 188.919 146.237 189.064 145.857 189.064C145.02 189.064 144.42 188.429 144.42 187.61C144.42 186.796 145.066 186.161 145.857 186.161C146.243 186.161 146.578 186.306 146.797 186.571V186.496C146.797 186.317 146.93 186.179 147.109 186.179C147.282 186.179 147.415 186.317 147.415 186.496V189.058C147.415 189.86 146.907 190.212 146.232 190.212ZM145.914 188.469C146.41 188.469 146.774 188.106 146.774 187.61C146.774 187.113 146.41 186.75 145.914 186.75C145.418 186.75 145.06 187.113 145.06 187.61C145.06 188.106 145.418 188.469 145.914 188.469Z" fill="white"/>
<path d="M140.947 193.205C140.736 193.411 140.399 193.411 140.189 193.205L138.911 191.952L142.225 191.952L140.947 193.205Z" fill="#525660"/>
<path d="M145.4 195.791C146.505 195.791 147.4 196.687 147.4 197.792C147.4 198.896 146.505 199.791 145.401 199.791L136.6 199.791C135.495 199.791 134.6 198.896 134.6 197.792C134.6 196.687 135.496 195.791 136.601 195.791L145.4 195.791Z" fill="#5E85FD"/>
<path d="M145.4 195.791C146.505 195.791 147.4 196.687 147.4 197.792C147.4 198.896 146.505 199.791 145.401 199.791L136.6 199.791C135.495 199.791 134.6 198.896 134.6 197.792C134.6 196.687 135.496 195.791 136.601 195.791L145.4 195.791Z" stroke="white"/>
<path d="M282.389 267.869L258.884 214.809C258.869 214.775 258.836 214.753 258.799 214.753H248.21C248.158 214.753 248.117 214.795 248.117 214.846V267.907C248.117 267.959 248.158 268.001 248.21 268.001H282.304C282.371 268.001 282.416 267.931 282.389 267.869Z" fill="#28B0FB"/>
<circle cx="226.163" cy="152.163" r="33.163" fill="#28B0FB"/>
<circle cx="226.163" cy="209.147" r="33.163" fill="#28B0FB"/>
<circle cx="288.753" cy="152.163" r="33.163" fill="#28B0FB"/>
<circle cx="288.753" cy="209.147" r="33.163" fill="#28B0FB"/>
<rect x="214.484" y="145.624" width="70.0627" height="70.0627" fill="#28B0FB"/>
<ellipse cx="268.586" cy="183.559" rx="9.27545" ry="9.27544" transform="rotate(3.2312 268.586 183.559)" fill="white"/>
<ellipse cx="268.587" cy="183.559" rx="6.92392" ry="6.92392" transform="rotate(3.2312 268.587 183.559)" fill="black"/>
<ellipse cx="246.093" cy="183.335" rx="9.27545" ry="9.27544" transform="rotate(3.2312 246.093 183.335)" fill="white"/>
<ellipse cx="246.095" cy="183.335" rx="6.92392" ry="6.92392" transform="rotate(3.2312 246.095 183.335)" fill="black"/>
<path d="M254.264 196.799C254.264 196.799 254.491 199.913 257.527 199.92C260.563 199.926 260.647 196.89 260.647 196.89" stroke="#DF8080" stroke-width="3.73668" stroke-linecap="round"/>
<path d="M254.264 196.799C254.264 196.799 254.491 199.913 257.527 199.92C260.563 199.926 260.647 196.89 260.647 196.89" stroke="black" stroke-width="0.934169" stroke-linecap="round"/>
<circle cx="249.05" cy="180.655" r="1.40125" fill="white"/>
<circle cx="271.47" cy="180.655" r="1.40125" fill="white"/>
<path fill-rule="evenodd" clip-rule="evenodd" d="M47.5 73C32.8645 73 21 84.8645 21 99.5C21 114.136 32.8645 126 47.5 126H110.42L144.702 138.673C146.661 139.397 148.743 137.948 148.743 135.859V126L174.5 126C189.136 126 201 114.136 201 99.5C201 84.8645 189.136 73 174.5 73H47.5Z" fill="#000132"/>
<path d="M50.7539 86.2227V87.4297H47.2148V88.4375H50.5312V89.6211H47.2148V90.6875C48.9375 90.6758 50.0859 90.6289 51.3281 90.4062L51.4922 91.5781C50.0508 91.8477 48.7383 91.8887 46.5938 91.8828H45.7031V86.2227H50.7539ZM53.7656 85.4141V88.5664H55.207V89.8086H53.7656V93.3125H52.2539V85.4141H53.7656ZM54.1641 94.6719V95.8906H46.8516V92.5977H48.3633V94.6719H54.1641ZM65.3058 93.5938V94.8242H55.5675V93.5938H59.6339V91.2031H61.1456V93.5938H65.3058ZM61.1925 86.7852C61.1984 88.2852 62.546 89.8906 64.9777 90.2891L64.3448 91.5547C62.464 91.209 61.0812 90.1953 60.3839 88.8711C59.6808 90.1895 58.298 91.209 56.423 91.5547L55.8019 90.2891C58.2159 89.8906 59.5753 88.2559 59.5753 86.7852V86.0117H61.1925V86.7852ZM70.3275 86.3633V88.7656H71.7455V86.3633H73.1517V93.5352H68.8978V86.3633H70.3275ZM70.3275 92.3398H71.7455V89.9492H70.3275V92.3398ZM77.8392 85.4141V96.0664H76.3978V90.6992H75.4603V95.5977H74.0423V85.5781H75.4603V89.4805H76.3978V85.4141H77.8392ZM88.5708 89.9375V91.0508H84.4692V91.707H87.3989V94.332H81.4809V94.8945H87.6802V96.0078H79.9809V93.3242H85.8989V92.7969H79.9575V91.707H82.9575V91.0508H78.8677V89.9375H88.5708ZM84.4575 85.4023V86.2344H87.6333V87.3477H84.645C84.938 87.9395 85.9927 88.4609 88.1723 88.543L87.7505 89.668C85.7583 89.5625 84.3813 89.0645 83.7075 88.2734C83.022 89.0645 81.6509 89.5625 79.6645 89.668L79.2427 88.543C81.4165 88.4609 82.4712 87.9395 82.77 87.3477H79.7817V86.2344H82.9458V85.4023H84.4575ZM100.811 85.4141V96.0664H99.2878V85.4141H100.811ZM98.5027 87.0078V88.2148H92.1159V87.0078H94.5417V85.5664H96.0652V87.0078H98.5027ZM95.3269 88.8125C96.8972 88.8066 98.0749 89.8613 98.0691 91.3438C98.0749 92.832 96.8972 93.8867 95.3269 93.8867C93.7331 93.8867 92.5671 92.832 92.573 91.3438C92.5671 89.8613 93.7331 88.8066 95.3269 88.8125ZM95.3269 90.043C94.5652 90.043 94.0144 90.5293 94.0144 91.3438C94.0144 92.1699 94.5652 92.6562 95.3269 92.6562C96.0769 92.6562 96.6101 92.1699 96.6159 91.3438C96.6101 90.5293 96.0769 90.043 95.3269 90.043ZM107.769 86.7969C107.775 88.3613 109.14 90.0254 111.543 90.4297L110.898 91.6953C109.035 91.3262 107.652 90.2832 106.961 88.918C106.264 90.2832 104.892 91.3379 103.035 91.6953L102.379 90.4297C104.781 90.0195 106.152 88.332 106.152 86.7969V86.0352H107.769V86.7969ZM111.883 93.5352V94.7773H102.144V93.5352H111.883ZM121.103 90.6875V91.8945H118.009V93.6758H122.134V94.8945H112.395V93.6758H116.509V91.8945H113.532V86.1289H121.02V87.3477H115.079V88.4023H120.774V89.5742H115.079V90.6875H121.103ZM131.588 85.4023V96.1016H130.076V85.4023H131.588ZM128.283 86.3164V90.4297H124.756V92.3633C126.391 92.3516 127.779 92.2812 129.315 92.0234L129.467 93.2422C127.715 93.5469 126.145 93.6113 124.17 93.6055H123.221V89.2344H126.736V87.5234H123.209V86.3164H128.283ZM144.203 85.4258V88.4609H145.575V89.7148H144.203V92.668H142.692V85.4258H144.203ZM135.555 91.2852C136.346 91.2852 137.225 91.2852 138.133 91.2617V90.6523C136.979 90.4941 136.264 89.9375 136.27 89.1289C136.264 88.1504 137.301 87.5352 138.883 87.5352C140.471 87.5352 141.502 88.1504 141.496 89.1289C141.502 89.9375 140.793 90.4941 139.645 90.6523V91.2148C140.518 91.1738 141.391 91.1094 142.211 91.0039L142.328 92.0469C140.055 92.4336 137.612 92.4512 135.731 92.457L135.555 91.2852ZM144.203 93.1016V96.0781H142.692V94.2734H136.914V93.1016H144.203ZM141.942 86.1992V87.2891H135.825V86.1992H138.133V85.332H139.645V86.1992H141.942ZM138.883 88.5312C138.151 88.5312 137.705 88.7305 137.711 89.1289C137.705 89.5156 138.151 89.7266 138.883 89.7266C139.621 89.7266 140.061 89.5156 140.067 89.1289C140.061 88.7305 139.621 88.5312 138.883 88.5312ZM154.865 85.4258V93.0898H153.341V85.4258H154.865ZM155.146 94.6719V95.8906H147.716V92.3164H149.228V94.6719H155.146ZM149.017 86.0938C150.658 86.0938 151.935 87.2246 151.935 88.8008C151.935 90.3594 150.658 91.502 149.017 91.5078C147.359 91.502 146.087 90.3594 146.087 88.8008C146.087 87.2246 147.359 86.0938 149.017 86.0938ZM149.017 87.4062C148.197 87.4004 147.57 87.916 147.576 88.8008C147.57 89.6621 148.197 90.1777 149.017 90.1836C149.831 90.1777 150.453 89.6621 150.447 88.8008C150.453 87.916 149.831 87.4004 149.017 87.4062ZM164.612 85.4141V89.5742H166.17V90.8398H164.612V96.0781H163.1V85.4141H164.612ZM162.397 86.9844V88.2031H156.128V86.9844H158.518V85.5898H160.042V86.9844H162.397ZM159.28 88.8125C160.85 88.8066 162.004 89.8613 162.01 91.3438C162.004 92.832 160.85 93.8867 159.28 93.8867C157.721 93.8867 156.561 92.832 156.561 91.3438C156.561 89.8613 157.721 88.8066 159.28 88.8125ZM159.28 90.043C158.542 90.043 158.008 90.5293 158.014 91.3438C158.008 92.1699 158.542 92.6562 159.28 92.6562C160.024 92.6562 160.557 92.1699 160.557 91.3438C160.557 90.5293 160.024 90.043 159.28 90.043ZM175.226 86.3281V87.3359C175.226 88.6719 175.226 90.1719 174.804 92.4453L173.293 92.2812C173.685 90.2656 173.709 88.7773 173.703 87.5352H167.433V86.3281H175.226ZM176.175 93.5586V94.7891H166.437V93.5586H169.894V89.8906H171.418V93.5586H176.175ZM54.5508 102.414V113.066H53.1094V102.414H54.5508ZM52.3359 102.578V112.598H50.918V107.57H50.0508C49.9277 109.668 49.043 110.91 47.7188 110.91C46.3125 110.91 45.3984 109.451 45.3984 107.031C45.3984 104.635 46.3125 103.158 47.7188 103.152C49.0078 103.158 49.8809 104.354 50.0391 106.34H50.918V102.578H52.3359ZM47.7188 104.594C47.127 104.594 46.7754 105.396 46.7812 107.031C46.7754 108.666 47.127 109.475 47.7188 109.48C48.3398 109.475 48.6855 108.666 48.6914 107.031C48.6855 105.396 48.3398 104.594 47.7188 104.594ZM64.5792 102.414V113.102H63.0675V106.938H60.1613V105.719H63.0675V102.414H64.5792ZM57.6183 103.551V109.328C58.9659 109.305 60.3663 109.199 61.8253 108.918L61.9777 110.148C60.255 110.5 58.6202 110.6 57.0206 110.594H56.1183V103.551H57.6183ZM69.9553 105.297C69.9553 107.025 70.8401 108.865 72.6272 109.609L71.7952 110.805C70.5588 110.271 69.6916 109.211 69.217 107.922C68.7366 109.328 67.8577 110.5 66.592 111.074L65.7248 109.879C67.5178 109.076 68.4143 107.102 68.4202 105.297V104.676H66.1584V103.434H72.1936V104.676H69.9553V105.297ZM74.7366 102.414V113.078H73.2131V102.414H74.7366ZM85.808 107.195V108.297H76.0697V107.195H85.808ZM84.6478 108.836V111.379H78.683V111.965H84.9525V112.984H77.1712V110.406H83.1595V109.867H77.1595V108.836H84.6478ZM84.6244 102.602V105.109H78.765V105.672H84.8236V106.691H77.2767V104.148H83.1244V103.621H77.265V102.602H84.6244ZM95.2008 102.812V104.02H93.0914C93.1383 105.098 93.9 106.199 95.5172 106.656L94.8141 107.852C93.6188 107.5 92.7984 106.797 92.3297 105.906C91.8492 106.891 90.9879 107.699 89.7281 108.062L89.0133 106.879C90.6832 106.352 91.4918 105.133 91.5445 104.02H89.4117V102.812H95.2008ZM98.0953 102.414V107.828H96.5719V105.789H94.9195V104.594H96.5719V102.414H98.0953ZM98.0953 108.262V111.133H92.5055V111.789H98.4117V112.973H91.0172V110.031H96.5953V109.434H90.9938V108.262H98.0953ZM109.202 103.809V105.039H107.807V106.117H109.202V107.359H107.807V108.707H106.296V102.414H107.807V103.809H109.202ZM107.807 109.141V113.078H106.296V110.336H100.647V109.141H107.807ZM102.346 102.988C104.005 102.988 105.27 104.084 105.264 105.602C105.27 107.119 104.01 108.203 102.346 108.203C100.688 108.203 99.4343 107.119 99.4284 105.602C99.4343 104.084 100.688 102.988 102.346 102.988ZM102.346 104.277C101.526 104.277 100.905 104.758 100.905 105.602C100.905 106.445 101.532 106.932 102.346 106.938C103.173 106.932 103.788 106.445 103.788 105.602C103.788 104.758 103.178 104.277 102.346 104.277ZM114.461 102.555C116.922 102.561 118.357 103.205 118.363 104.383C118.357 105.561 116.922 106.205 114.461 106.211C112.017 106.205 110.576 105.561 110.57 104.383C110.576 103.205 112.017 102.561 114.461 102.555ZM114.461 103.68C112.896 103.674 112.152 103.902 112.152 104.383C112.152 104.881 112.896 105.098 114.461 105.098C116.037 105.098 116.787 104.881 116.781 104.383C116.787 103.902 116.037 103.674 114.461 103.68ZM119.336 106.703V107.898H109.598V106.703H119.336ZM118.152 108.508V111.238H112.234V111.859H118.433V113.008H110.734V110.184H116.652V109.633H110.711V108.508H118.152ZM131.576 102.414V107.805H130.053V102.414H131.576ZM131.576 108.273V111.156H125.916V111.824H131.857V113.008H124.428V110.066H130.076V109.434H124.416V108.273H131.576ZM126.725 103.457C126.719 104.729 127.498 105.971 129.244 106.469L128.518 107.652C127.293 107.295 126.449 106.557 125.975 105.602C125.482 106.639 124.604 107.459 123.326 107.852L122.6 106.645C124.393 106.105 125.178 104.764 125.178 103.457V102.66H126.725V103.457ZM136.835 104.91C136.835 106.111 137.609 107.348 139.343 107.863L138.616 109.047C137.421 108.695 136.589 107.975 136.109 107.055C135.634 108.051 134.79 108.836 133.554 109.223L132.816 108.039C134.556 107.494 135.318 106.211 135.323 104.91V104.863H133.191V103.68H135.323V102.496H136.835V103.68H138.968V104.863H136.835V104.91ZM141.898 102.426V110.312H140.363V106.75H138.616V105.52H140.363V102.426H141.898ZM142.132 111.672V112.891H134.796V109.656H136.32V111.672H142.132ZM148.293 104.02V105.227H143.137V104.02H144.989V102.695H146.489V104.02H148.293ZM145.727 105.707C147.098 105.707 148.082 106.756 148.082 108.238C148.082 109.732 147.098 110.775 145.727 110.77C144.368 110.775 143.371 109.732 143.371 108.238C143.371 106.756 144.368 105.707 145.727 105.707ZM145.727 106.973C145.129 106.967 144.713 107.436 144.719 108.238C144.713 109.059 145.129 109.516 145.727 109.516C146.319 109.516 146.746 109.059 146.746 108.238C146.746 107.436 146.319 106.967 145.727 106.973ZM152.383 102.414V113.066H150.942V107.969H150.098V112.621H148.68V102.602H150.098V106.75H150.942V102.414H152.383ZM163.138 110.605V111.836H153.4V110.605H155.556V107.98C154.736 107.488 154.238 106.732 154.244 105.801C154.238 104.061 155.943 102.936 158.251 102.941C160.578 102.936 162.277 104.061 162.271 105.801C162.277 106.727 161.785 107.482 160.97 107.98V110.605H163.138ZM158.251 104.113C156.751 104.119 155.732 104.734 155.732 105.801C155.732 106.855 156.751 107.477 158.251 107.477C159.769 107.477 160.783 106.855 160.783 105.801C160.783 104.734 159.769 104.119 158.251 104.113ZM157.068 110.605H159.458V108.543C159.083 108.613 158.679 108.648 158.251 108.648C157.835 108.648 157.437 108.613 157.068 108.543V110.605ZM168.549 109.023C167.389 109.023 166.938 108.145 166.253 108.145C165.965 108.145 165.696 108.332 165.069 108.953L163.92 107.793C164.846 106.914 165.315 106.492 166.1 106.492C167.249 106.492 167.7 107.371 168.385 107.371C168.672 107.371 168.942 107.184 169.569 106.551L170.729 107.723C169.792 108.602 169.323 109.023 168.549 109.023Z" fill="white"/>
</g>
<defs>
<clipPath id="clip0_1442_2870">
<rect width="344" height="268" fill="white"/>
</clipPath>
</defs>
</svg>
