<svg width="344" height="268" viewBox="0 0 344 268" fill="none" xmlns="http://www.w3.org/2000/svg">
<g clip-path="url(#clip0_1442_2814)">
<rect x="202" y="12" width="78" height="78" rx="39" fill="#CEDAFE"/>
<path d="M234.502 47.7461H247.502ZM232.877 54.2461H234.502ZM247.502 54.2461H249.127Z" fill="#5E85FD"/>
<path d="M234.502 47.7461H247.502M232.877 54.2461H234.502M247.502 54.2461H249.127" stroke="#5E85FD" stroke-width="2.4375" stroke-linecap="round" stroke-linejoin="round"/>
<path d="M226.375 60.7471V50.0383C226.375 49.5986 226.465 49.1635 226.638 48.7594L230.407 39.9682C230.657 39.3834 231.073 38.8849 231.604 38.5345C232.135 38.1842 232.757 37.9973 233.393 37.9971H248.607C249.243 37.9971 249.864 38.1838 250.395 38.5339C250.926 38.8839 251.343 39.3821 251.593 39.9666L255.363 48.7578C255.537 49.163 255.626 49.5993 255.625 50.0399V60.7471M226.375 60.7471V64.6471C226.375 64.9057 226.478 65.1537 226.661 65.3365C226.843 65.5193 227.091 65.6221 227.35 65.6221H231.9C232.159 65.6221 232.407 65.5193 232.589 65.3365C232.772 65.1537 232.875 64.9057 232.875 64.6471V60.7471M226.375 60.7471H232.875ZM255.625 60.7471V64.6471C255.625 64.9057 255.522 65.1537 255.339 65.3365C255.157 65.5193 254.909 65.6221 254.65 65.6221H250.1C249.972 65.6221 249.845 65.5969 249.727 65.5479C249.609 65.4989 249.501 65.427 249.411 65.3365C249.32 65.246 249.248 65.1385 249.199 65.0202C249.15 64.9019 249.125 64.7751 249.125 64.6471V60.7471M255.625 60.7471H249.125ZM232.875 60.7471H249.125Z" fill="#5E85FD"/>
<path d="M226.375 60.7471V50.0383C226.375 49.5986 226.465 49.1635 226.638 48.7594L230.407 39.9682C230.657 39.3834 231.073 38.8849 231.604 38.5345C232.135 38.1842 232.757 37.9973 233.393 37.9971H248.607C249.243 37.9971 249.864 38.1838 250.395 38.5339C250.926 38.8839 251.343 39.3821 251.593 39.9666L255.363 48.7578C255.537 49.163 255.626 49.5993 255.625 50.0399V60.7471M226.375 60.7471V64.6471C226.375 64.9057 226.478 65.1537 226.661 65.3365C226.843 65.5193 227.091 65.6221 227.35 65.6221H231.9C232.159 65.6221 232.407 65.5193 232.589 65.3365C232.772 65.1537 232.875 64.9057 232.875 64.6471V60.7471M226.375 60.7471H232.875M255.625 60.7471V64.6471C255.625 64.9057 255.522 65.1537 255.339 65.3365C255.157 65.5193 254.909 65.6221 254.65 65.6221H250.1C249.972 65.6221 249.845 65.5969 249.727 65.5479C249.609 65.4989 249.501 65.427 249.411 65.3365C249.32 65.246 249.248 65.1385 249.199 65.0202C249.15 64.9019 249.125 64.7751 249.125 64.6471V60.7471M255.625 60.7471H249.125M232.875 60.7471H249.125" stroke="#5E85FD" stroke-width="2.4375"/>
<path d="M247.533 47.7529H234.467" stroke="#F2F2F2" stroke-width="2.08929" stroke-linecap="round"/>
<path d="M234.467 54.251H232.875" stroke="#F2F2F2" stroke-width="2.08929" stroke-linecap="round"/>
<path d="M249.131 54.251H247.539" stroke="#F2F2F2" stroke-width="2.08929" stroke-linecap="round"/>
<rect x="121" y="171" width="40" height="40" rx="20" fill="#F5CEC9"/>
<path d="M133.5 186.369H148.5ZM139.125 190.072V195.628ZM142.875 190.072V195.628ZM134.438 186.369L135.375 197.48C135.375 197.971 135.573 198.442 135.924 198.789C136.276 199.137 136.753 199.332 137.25 199.332H144.75C145.247 199.332 145.724 199.137 146.076 198.789C146.427 198.442 146.625 197.971 146.625 197.48L147.563 186.369M138.188 186.369V183.591C138.188 183.345 138.286 183.11 138.462 182.936C138.638 182.763 138.876 182.665 139.125 182.665H142.875C143.124 182.665 143.362 182.763 143.538 182.936C143.714 183.11 143.813 183.345 143.813 183.591V186.369" fill="#FF7D6F"/>
<path d="M133.5 186.369H148.5M139.125 190.072V195.628M142.875 190.072V195.628M134.438 186.369L135.375 197.48C135.375 197.971 135.573 198.442 135.924 198.789C136.276 199.137 136.753 199.332 137.25 199.332H144.75C145.247 199.332 145.724 199.137 146.076 198.789C146.427 198.442 146.625 197.971 146.625 197.48L147.563 186.369M138.188 186.369V183.591C138.188 183.345 138.286 183.11 138.462 182.936C138.638 182.763 138.876 182.665 139.125 182.665H142.875C143.124 182.665 143.362 182.763 143.538 182.936C143.714 183.11 143.813 183.345 143.813 183.591V186.369" stroke="#FF7D6F" stroke-width="1.25" stroke-linecap="round" stroke-linejoin="round"/>
<path d="M139.102 189.997L139.102 195.676" stroke="#F2F2F2" stroke-width="1.07143" stroke-linecap="round"/>
<path d="M142.895 189.997L142.895 195.676" stroke="#F2F2F2" stroke-width="1.07143" stroke-linecap="round"/>
<path fill-rule="evenodd" clip-rule="evenodd" d="M302.615 148.944C302.615 156.613 300.229 163.722 296.164 169.558C309.271 176.113 318.263 189.604 318.263 205.182C318.263 227.194 300.31 245.038 278.163 245.038C268.624 245.038 259.862 241.727 252.979 236.199V268.902C252.979 268.956 252.935 269 252.881 269H217.185C217.115 269 217.067 268.927 217.096 268.863L233.947 230.823C229.678 232.117 225.149 232.812 220.458 232.812C194.8 232.812 174 212.012 174 186.354C174 160.696 194.8 139.897 220.458 139.897C224.448 139.897 228.321 140.4 232.016 141.346C235.479 125.144 249.789 113 266.916 113C286.632 113 302.615 129.092 302.615 148.944Z" fill="#0FCE45"/>
<ellipse cx="258.679" cy="186.253" rx="9.71121" ry="9.7112" transform="rotate(7.01693 258.679 186.253)" fill="white"/>
<ellipse cx="258.678" cy="186.252" rx="7.24921" ry="7.2492" transform="rotate(7.01693 258.678 186.252)" fill="black"/>
<ellipse cx="235.194" cy="184.464" rx="9.71121" ry="9.7112" transform="rotate(7.01693 235.194 184.464)" fill="white"/>
<ellipse cx="235.194" cy="184.464" rx="7.24921" ry="7.2492" transform="rotate(7.01693 235.194 184.464)" fill="black"/>
<path d="M240.449 201.115C240.449 201.115 242.39 202.174 246.283 202.28C249.852 202.378 251.6 201.505 251.6 201.505" stroke="#F27840" stroke-width="6.01821" stroke-linecap="round"/>
<path d="M240.449 201.115C240.449 201.115 242.39 202.174 246.283 202.28C249.852 202.378 251.6 201.505 251.6 201.505" stroke="black" stroke-width="1.09422" stroke-linecap="round"/>
<circle cx="238.551" cy="182.931" r="1.46708" fill="white"/>
<circle cx="261.535" cy="184.887" r="1.46708" fill="white"/>
<path fill-rule="evenodd" clip-rule="evenodd" d="M47.5 74C32.8643 74 21 85.8645 21 100.5C21 115.135 32.8643 127 47.5 127H110.42L144.702 139.673C146.662 140.397 148.743 138.948 148.743 136.859V127H174.5C189.136 127 201 115.135 201 100.5C201 85.8645 189.136 74 174.5 74H47.5Z" fill="#00320F"/>
<path d="M61.2344 98.1016H59.7109V87.4023H61.2344V98.1016ZM55.4453 88.1523C55.9883 88.1523 56.4727 88.3086 56.8984 88.6211C57.3242 88.9336 57.6582 89.377 57.9004 89.9512C58.1465 90.5254 58.2695 91.1914 58.2695 91.9492C58.2695 92.7148 58.1465 93.3867 57.9004 93.9648C57.6582 94.543 57.3242 94.9883 56.8984 95.3008C56.4727 95.6133 55.9883 95.7695 55.4453 95.7695C54.9023 95.7695 54.416 95.6133 53.9863 95.3008C53.5605 94.9883 53.2266 94.543 52.9844 93.9648C52.7422 93.3867 52.6211 92.7148 52.6211 91.9492C52.6211 91.1914 52.7422 90.5254 52.9844 89.9512C53.2266 89.377 53.5605 88.9336 53.9863 88.6211C54.416 88.3086 54.9023 88.1523 55.4453 88.1523ZM55.4453 89.5234C55.1719 89.5273 54.9316 89.623 54.7246 89.8105C54.5176 89.998 54.3574 90.2734 54.2441 90.6367C54.1309 90.9961 54.0742 91.4336 54.0742 91.9492C54.0742 92.4688 54.1309 92.9141 54.2441 93.2852C54.3574 93.6523 54.5176 93.9297 54.7246 94.1172C54.9316 94.3047 55.1719 94.3984 55.4453 94.3984C55.7188 94.3984 55.957 94.3047 56.1602 94.1172C56.3672 93.9258 56.5254 93.6465 56.6348 93.2793C56.748 92.9121 56.8047 92.4688 56.8047 91.9492C56.8047 91.4375 56.748 91 56.6348 90.6367C56.5254 90.2734 56.3672 89.998 56.1602 89.8105C55.957 89.623 55.7188 89.5273 55.4453 89.5234ZM71.5675 95.2891H70.0323V91.457H68.0988V93.625H63.0128V88.1172H64.5245V89.7461H66.6105V88.1172H68.0988V90.25H70.0323V87.4258H71.5675V95.2891ZM71.7902 97.8906H64.4425V94.5156H65.9659V96.6719H71.7902V97.8906ZM66.6105 92.418V90.9062H64.5245V92.418H66.6105ZM80.7845 89.1484H77.4798V91.293C78.433 91.2852 79.222 91.2559 79.847 91.2051C80.4759 91.1543 81.0931 91.0664 81.6986 90.9414L81.8509 92.1133C81.2064 92.2539 80.5404 92.3496 79.8529 92.4004C79.1693 92.4512 78.2689 92.4766 77.1517 92.4766H76.8587H75.9681V87.9648H80.7845V89.1484ZM84.0541 89.4297H85.4955V90.6602H84.0541V92.7109H82.5423V87.4141H84.0541V89.4297ZM84.0541 96.0859H78.4877V96.7656H84.3822V97.9609H76.9877V94.9727H82.5658V94.3398H76.9642V93.1562H84.0541V96.0859ZM94.0797 89.4297H90.5406V90.4375H93.857V91.6211H90.5406V92.6875C91.4781 92.6797 92.2516 92.6582 92.8609 92.623C93.4703 92.584 94.068 92.5117 94.6539 92.4062L94.818 93.5781C94.1734 93.6992 93.5172 93.7812 92.8492 93.8242C92.1813 93.8633 91.3219 93.8828 90.2711 93.8828H89.9195H89.0289V88.2227H94.0797V89.4297ZM97.0914 90.5664H98.5328V91.8086H97.0914V95.3125H95.5797V87.4141H97.0914V90.5664ZM97.4898 97.8906H90.1773V94.5977H91.6891V96.6719H97.4898V97.8906ZM108.632 96.8242H98.8933V95.5938H102.96V93.2031H104.471V95.5938H108.632V96.8242ZM104.518 88.7852C104.522 89.2969 104.673 89.7969 104.969 90.2852C105.27 90.7734 105.706 91.1973 106.276 91.5566C106.846 91.916 107.522 92.1602 108.303 92.2891L107.671 93.5547C106.749 93.3867 105.946 93.0664 105.262 92.5938C104.583 92.1211 104.065 91.5469 103.71 90.8711C103.35 91.5469 102.829 92.1211 102.145 92.5938C101.466 93.0664 100.667 93.3867 99.7487 93.5547L99.1277 92.2891C99.9011 92.1602 100.573 91.9141 101.143 91.5508C101.714 91.1875 102.149 90.7617 102.45 90.2734C102.751 89.7812 102.901 89.2852 102.901 88.7852V88.0117H104.518V88.7852ZM113.653 90.7656H115.071V88.3633H116.478V95.5352H112.224V88.3633H113.653V90.7656ZM115.071 94.3398V91.9492H113.653V94.3398H115.071ZM121.165 98.0664H119.724V92.6992H118.786V97.5977H117.368V87.5781H118.786V91.4805H119.724V87.4141H121.165V98.0664ZM131.897 93.0508H127.795V93.707H130.725V96.332H124.807V96.8945H131.006V98.0078H123.307V95.3242H129.225V94.7969H123.283V93.707H126.283V93.0508H122.193V91.9375H131.897V93.0508ZM127.783 88.2344H130.959V89.3477H127.965C128.129 89.668 128.502 89.9375 129.084 90.1562C129.666 90.375 130.471 90.5039 131.498 90.543L131.076 91.668C130.092 91.6172 129.256 91.4727 128.568 91.2344C127.885 90.9961 127.373 90.6777 127.033 90.2793C126.686 90.6777 126.17 90.9961 125.486 91.2344C124.803 91.4727 123.971 91.6172 122.99 91.668L122.568 90.543C123.592 90.5039 124.395 90.375 124.977 90.1562C125.559 89.9375 125.932 89.668 126.096 89.3477H123.107V88.2344H126.272V87.4023H127.783V88.2344ZM142.323 90.0859H140.882V91.0938H142.323V92.3359H140.882V93.8359H139.37V87.4141H140.882V88.8438H142.323V90.0859ZM137.706 91.2344H134.32V92.1602C135.253 92.1562 136.04 92.1328 136.681 92.0898C137.325 92.043 137.972 91.9609 138.62 91.8438L138.761 93.0508C138.046 93.1875 137.316 93.2793 136.57 93.3262C135.823 93.3691 134.874 93.3906 133.722 93.3906H132.808V90.1094H136.218V89.2422H132.808V88.0352H137.706V91.2344ZM137.366 94.0352C138.109 94.0352 138.751 94.1152 139.294 94.2754C139.841 94.4316 140.261 94.6641 140.554 94.9727C140.851 95.2773 140.999 95.6406 140.999 96.0625C140.999 96.4805 140.853 96.8398 140.56 97.1406C140.267 97.4453 139.847 97.6777 139.3 97.8379C138.753 97.998 138.109 98.0781 137.366 98.0781C136.62 98.0781 135.974 97.998 135.427 97.8379C134.88 97.6777 134.458 97.4453 134.161 97.1406C133.868 96.8398 133.722 96.4805 133.722 96.0625C133.722 95.6406 133.87 95.2773 134.167 94.9727C134.464 94.6641 134.886 94.4316 135.433 94.2754C135.98 94.1152 136.624 94.0352 137.366 94.0352ZM137.366 95.1836C135.933 95.1836 135.214 95.4766 135.21 96.0625C135.214 96.6406 135.933 96.9297 137.366 96.9297C138.8 96.9297 139.515 96.6406 139.511 96.0625C139.515 95.4766 138.8 95.1836 137.366 95.1836ZM151.602 98.1016H150.078V87.4023H151.602V98.1016ZM145.813 88.1523C146.356 88.1523 146.84 88.3086 147.266 88.6211C147.692 88.9336 148.026 89.377 148.268 89.9512C148.514 90.5254 148.637 91.1914 148.637 91.9492C148.637 92.7148 148.514 93.3867 148.268 93.9648C148.026 94.543 147.692 94.9883 147.266 95.3008C146.84 95.6133 146.356 95.7695 145.813 95.7695C145.27 95.7695 144.784 95.6133 144.354 95.3008C143.928 94.9883 143.594 94.543 143.352 93.9648C143.11 93.3867 142.989 92.7148 142.989 91.9492C142.989 91.1914 143.11 90.5254 143.352 89.9512C143.594 89.377 143.928 88.9336 144.354 88.6211C144.784 88.3086 145.27 88.1523 145.813 88.1523ZM145.813 89.5234C145.539 89.5273 145.299 89.623 145.092 89.8105C144.885 89.998 144.725 90.2734 144.612 90.6367C144.498 90.9961 144.442 91.4336 144.442 91.9492C144.442 92.4688 144.498 92.9141 144.612 93.2852C144.725 93.6523 144.885 93.9297 145.092 94.1172C145.299 94.3047 145.539 94.3984 145.813 94.3984C146.086 94.3984 146.325 94.3047 146.528 94.1172C146.735 93.9258 146.893 93.6465 147.002 93.2793C147.116 92.9121 147.172 92.4688 147.172 91.9492C147.172 91.4375 147.116 91 147.002 90.6367C146.893 90.2734 146.735 89.998 146.528 89.8105C146.325 89.623 146.086 89.5273 145.813 89.5234ZM61.3047 109.734H59.7812V107.742H58.0469C57.9531 108.109 57.7754 108.434 57.5137 108.715C57.252 108.996 56.9277 109.215 56.541 109.371C56.1582 109.527 55.7383 109.605 55.2812 109.605C54.7461 109.605 54.2617 109.5 53.8281 109.289C53.3945 109.078 53.0547 108.787 52.8086 108.416C52.5664 108.045 52.4453 107.625 52.4453 107.156C52.4453 106.684 52.5664 106.262 52.8086 105.891C53.0547 105.516 53.3926 105.223 53.8223 105.012C54.2559 104.801 54.7422 104.695 55.2812 104.695C55.7344 104.695 56.1523 104.773 56.5352 104.93C56.918 105.082 57.2383 105.297 57.4961 105.574C57.7578 105.852 57.9375 106.172 58.0352 106.535H59.7812V104.414H61.3047V109.734ZM55.2812 105.926C55.0117 105.926 54.7715 105.977 54.5605 106.078C54.3535 106.176 54.1895 106.318 54.0684 106.506C53.9473 106.689 53.8867 106.906 53.8867 107.156C53.8867 107.41 53.9473 107.631 54.0684 107.818C54.1895 108.002 54.3535 108.143 54.5605 108.24C54.7715 108.338 55.0117 108.387 55.2812 108.387C55.5508 108.387 55.7891 108.338 55.9961 108.24C56.207 108.143 56.3711 108.002 56.4883 107.818C56.6055 107.631 56.6641 107.41 56.6641 107.156C56.6641 106.906 56.6055 106.689 56.4883 106.506C56.3711 106.318 56.207 106.176 55.9961 106.078C55.7891 105.977 55.5508 105.926 55.2812 105.926ZM61.3047 113.098H55.7148V113.777H61.6211V114.961H54.2266V111.996H59.8047V111.363H54.2031V110.191H61.3047V113.098ZM68.0284 112.477H62.8956V105.41H68.0284V112.477ZM64.3839 111.293H66.5284V106.605H64.3839V111.293ZM70.9816 108.445H72.5519V109.688H70.9816V115.078H69.4698V104.414H70.9816V108.445ZM82.7444 109.688H81.2327V115.066H79.7209V104.402H81.2327V108.445H82.7444V109.688ZM74.6584 111.193C76.2014 111.166 77.6506 111.02 79.0061 110.754L79.1584 111.996C77.6545 112.309 75.9553 112.461 74.0608 112.453H73.1467V105.422H74.6584V111.193ZM92.0669 108.035H90.1802V108.715C91.1098 108.676 91.9575 108.621 92.7231 108.551L92.8052 109.57C91.7817 109.715 90.7173 109.812 89.6118 109.863C88.5063 109.91 87.3325 109.934 86.0903 109.934L85.9263 108.785C86.9067 108.785 87.8208 108.777 88.6684 108.762V108.035H86.8403V104.836H91.9614V105.973H88.3872V106.898H92.0669V108.035ZM94.8325 110.004H93.3208V104.414H94.8325V110.004ZM94.8325 113.227H89.0434V113.824H95.0903V115.008H87.5434V112.125H93.3325V111.562H87.5317V110.402H94.8325V113.227ZM100.244 107.297C100.244 107.887 100.343 108.467 100.543 109.037C100.746 109.607 101.048 110.119 101.451 110.572C101.853 111.025 102.341 111.371 102.916 111.609L102.084 112.805C101.482 112.547 100.963 112.17 100.525 111.674C100.088 111.174 99.7457 110.592 99.4996 109.928C99.2535 110.654 98.9078 111.291 98.4625 111.838C98.0211 112.385 97.4938 112.797 96.8805 113.074L96.0133 111.879C96.5875 111.621 97.0777 111.25 97.484 110.766C97.8902 110.277 98.1949 109.732 98.398 109.131C98.6012 108.525 98.7047 107.914 98.7086 107.297V106.676H96.4469V105.434H102.482V106.676H100.244V107.297ZM105.025 115.078H103.502V104.414H105.025V115.078ZM118.402 115.066H116.949V104.414H118.402V115.066ZM116.152 114.598H114.746V111.105H113.234V109.887H114.746V108.434H113.433C113.18 109.348 112.764 110.172 112.185 110.906C111.607 111.637 110.828 112.285 109.847 112.852L108.992 111.797C110.043 111.168 110.826 110.459 111.342 109.67C111.861 108.881 112.17 107.953 112.267 106.887H109.601V105.668H113.773C113.773 106.238 113.74 106.762 113.674 107.238H114.746V104.637H116.152V114.598ZM123.345 106.23C123.349 106.695 123.438 107.141 123.614 107.566C123.79 107.988 124.061 108.365 124.429 108.697C124.8 109.029 125.263 109.285 125.817 109.465L125.044 110.648C124.474 110.465 123.983 110.191 123.573 109.828C123.167 109.461 122.843 109.025 122.601 108.521C122.362 109.072 122.028 109.547 121.599 109.945C121.169 110.344 120.649 110.648 120.04 110.859L119.231 109.676C119.813 109.488 120.298 109.219 120.685 108.867C121.071 108.512 121.356 108.107 121.54 107.654C121.724 107.197 121.817 106.719 121.821 106.219V105.059H123.345V106.23ZM127.845 107.508H129.286V108.75H127.845V112.219H126.333V104.414H127.845V107.508ZM128.243 114.891H120.931V111.457H122.454V113.672H128.243V114.891ZM134.791 107.227H129.635V106.02H131.486V104.695H132.986V106.02H134.791V107.227ZM132.225 107.707C132.678 107.707 133.082 107.814 133.438 108.029C133.797 108.244 134.076 108.545 134.275 108.932C134.479 109.314 134.58 109.75 134.58 110.238C134.58 110.73 134.479 111.17 134.275 111.557C134.076 111.939 133.797 112.238 133.438 112.453C133.082 112.664 132.678 112.77 132.225 112.77C131.775 112.77 131.371 112.664 131.012 112.453C130.656 112.238 130.377 111.939 130.174 111.557C129.971 111.17 129.869 110.73 129.869 110.238C129.869 109.75 129.971 109.314 130.174 108.932C130.377 108.545 130.656 108.244 131.012 108.029C131.371 107.814 131.775 107.707 132.225 107.707ZM132.236 108.973C131.932 108.973 131.686 109.084 131.498 109.307C131.311 109.525 131.217 109.832 131.217 110.227C131.217 110.629 131.309 110.945 131.492 111.176C131.676 111.402 131.92 111.516 132.225 111.516C132.529 111.516 132.775 111.404 132.963 111.182C133.15 110.955 133.244 110.641 133.244 110.238C133.244 109.977 133.201 109.752 133.115 109.564C133.029 109.373 132.91 109.227 132.758 109.125C132.606 109.023 132.432 108.973 132.236 108.973ZM138.881 115.066H137.44V109.969H136.596V114.621H135.178V104.602H136.596V108.75H137.44V104.414H138.881V115.066ZM149.636 113.836H139.898V112.605H143.999V110.637H140.929V105.082H142.429V106.734H147.07V105.082H148.581V110.637H145.511V112.605H149.636V113.836ZM147.07 109.43V107.93H142.429V109.43H147.07ZM154.075 107.297C154.075 107.852 154.174 108.412 154.373 108.979C154.573 109.541 154.869 110.057 155.264 110.525C155.662 110.99 156.141 111.352 156.7 111.609L155.868 112.805C155.285 112.539 154.782 112.154 154.356 111.65C153.93 111.146 153.594 110.562 153.348 109.898C153.102 110.625 152.76 111.266 152.323 111.82C151.885 112.371 151.368 112.789 150.77 113.074L149.914 111.879C150.477 111.613 150.957 111.234 151.356 110.742C151.758 110.25 152.061 109.703 152.264 109.102C152.467 108.5 152.567 107.898 152.563 107.297V106.676H150.325V105.434H156.219V106.676H154.075V107.297ZM158.563 108.48H160.133V109.734H158.563V115.078H157.051V104.414H158.563V108.48ZM165.298 111.023C165.009 111.023 164.755 110.979 164.537 110.889C164.322 110.795 164.091 110.664 163.845 110.496C163.658 110.375 163.503 110.287 163.382 110.232C163.261 110.174 163.134 110.145 163.001 110.145C162.857 110.145 162.703 110.201 162.539 110.314C162.374 110.428 162.134 110.641 161.818 110.953L160.669 109.793C161.033 109.445 161.318 109.188 161.525 109.02C161.736 108.848 161.945 108.717 162.152 108.627C162.363 108.537 162.595 108.492 162.849 108.492C163.134 108.492 163.384 108.539 163.599 108.633C163.814 108.723 164.044 108.852 164.29 109.02C164.478 109.141 164.632 109.23 164.753 109.289C164.874 109.344 165.001 109.371 165.134 109.371C165.279 109.371 165.433 109.314 165.597 109.201C165.765 109.084 166.005 108.867 166.318 108.551L167.478 109.723C167.107 110.07 166.818 110.33 166.611 110.502C166.404 110.67 166.195 110.799 165.984 110.889C165.777 110.979 165.548 111.023 165.298 111.023Z" fill="white"/>
</g>
<defs>
<clipPath id="clip0_1442_2814">
<rect width="344" height="268" fill="white"/>
</clipPath>
</defs>
</svg>
