<svg width="344" height="268" viewBox="0 0 344 268" fill="none" xmlns="http://www.w3.org/2000/svg">
<g clip-path="url(#clip0_1555_4741)">
<rect x="141" y="161" width="48" height="48" rx="24" fill="#CEDAFE"/>
<path d="M161.002 182.998H169.002H161.002ZM160.002 186.998H161.002H160.002ZM169.002 186.998H170.002H169.002Z" fill="#5E85FD"/>
<path d="M161.002 182.998H169.002M160.002 186.998H161.002M169.002 186.998H170.002" stroke="#5E85FD" stroke-width="1.5" stroke-linecap="round" stroke-linejoin="round"/>
<path d="M156 190.999V184.409C156 184.138 156.055 183.871 156.162 183.622L158.481 178.212C158.635 177.852 158.891 177.545 159.218 177.33C159.545 177.114 159.928 176.999 160.319 176.999H169.681C170.072 176.999 170.455 177.114 170.782 177.329C171.108 177.545 171.365 177.851 171.519 178.211L173.839 183.621C173.946 183.87 174 184.139 174 184.41V190.999M156 190.999V193.399C156 193.558 156.063 193.711 156.176 193.823C156.288 193.936 156.441 193.999 156.6 193.999H159.4C159.559 193.999 159.712 193.936 159.824 193.823C159.937 193.711 160 193.558 160 193.399V190.999M156 190.999H160H156ZM174 190.999V193.399C174 193.558 173.937 193.711 173.824 193.823C173.712 193.936 173.559 193.999 173.4 193.999H170.6C170.521 193.999 170.443 193.984 170.37 193.953C170.298 193.923 170.231 193.879 170.176 193.823C170.12 193.768 170.076 193.701 170.046 193.629C170.016 193.556 170 193.478 170 193.399V190.999M174 190.999H170H174ZM160 190.999H170H160Z" fill="#5E85FD"/>
<path d="M156 190.999V184.409C156 184.138 156.055 183.871 156.162 183.622L158.481 178.212C158.635 177.852 158.891 177.545 159.218 177.33C159.545 177.114 159.928 176.999 160.319 176.999H169.681C170.072 176.999 170.455 177.114 170.782 177.329C171.108 177.545 171.365 177.851 171.519 178.211L173.839 183.621C173.946 183.87 174 184.139 174 184.41V190.999M156 190.999V193.399C156 193.558 156.063 193.711 156.176 193.823C156.288 193.936 156.441 193.999 156.6 193.999H159.4C159.559 193.999 159.712 193.936 159.824 193.823C159.937 193.711 160 193.558 160 193.399V190.999M156 190.999H160M174 190.999V193.399C174 193.558 173.937 193.711 173.824 193.823C173.712 193.936 173.559 193.999 173.4 193.999H170.6C170.521 193.999 170.443 193.984 170.37 193.953C170.298 193.923 170.231 193.879 170.176 193.823C170.12 193.768 170.076 193.701 170.046 193.629C170.016 193.556 170 193.478 170 193.399V190.999M174 190.999H170M160 190.999H170" stroke="#5E85FD" stroke-width="1.5"/>
<path d="M169.021 183.002H160.981" stroke="#F2F2F2" stroke-width="1.28571" stroke-linecap="round"/>
<path d="M160.979 187.001H159.999" stroke="#F2F2F2" stroke-width="1.28571" stroke-linecap="round"/>
<path d="M170.004 187.001H169.025" stroke="#F2F2F2" stroke-width="1.28571" stroke-linecap="round"/>
<rect x="202" y="12" width="78" height="78" rx="39" fill="#FFE5E2"/>
<path d="M226.375 41.9693H255.625H226.375ZM237.344 49.1915V60.0248V49.1915ZM244.656 49.1915V60.0248V49.1915ZM228.203 41.9693L230.031 63.636C230.031 64.5937 230.416 65.5122 231.102 66.1894C231.788 66.8666 232.718 67.2471 233.688 67.2471H248.312C249.282 67.2471 250.212 66.8666 250.898 66.1894C251.584 65.5122 251.969 64.5937 251.969 63.636L253.797 41.9693M235.516 41.9693V36.5526C235.516 36.0738 235.708 35.6145 236.051 35.2759C236.394 34.9373 236.859 34.7471 237.344 34.7471H244.656C245.141 34.7471 245.606 34.9373 245.949 35.2759C246.292 35.6145 246.484 36.0738 246.484 36.5526V41.9693" fill="#FF7D6F"/>
<path d="M226.375 41.9693H255.625M237.344 49.1915V60.0248M244.656 49.1915V60.0248M228.203 41.9693L230.031 63.636C230.031 64.5937 230.416 65.5122 231.102 66.1894C231.788 66.8666 232.718 67.2471 233.688 67.2471H248.313C249.282 67.2471 250.212 66.8666 250.898 66.1894C251.584 65.5122 251.969 64.5937 251.969 63.636L253.797 41.9693M235.516 41.9693V36.5526C235.516 36.0738 235.708 35.6145 236.051 35.2759C236.394 34.9373 236.859 34.7471 237.344 34.7471H244.656C245.141 34.7471 245.606 34.9373 245.949 35.2759C246.292 35.6145 246.484 36.0738 246.484 36.5526V41.9693" stroke="#FF7D6F" stroke-width="2.4375" stroke-linecap="round" stroke-linejoin="round"/>
<path d="M237.299 49.0449L237.299 60.1198" stroke="#FFE5E2" stroke-width="2.08929" stroke-linecap="round"/>
<path d="M244.695 49.0449L244.695 60.1198" stroke="#FFE5E2" stroke-width="2.08929" stroke-linecap="round"/>
<path fill-rule="evenodd" clip-rule="evenodd" d="M353.56 170.356C353.56 179.394 350.748 187.771 345.958 194.648C361.403 202.373 372 218.27 372 236.627C372 262.566 350.843 283.593 324.746 283.593C313.505 283.593 303.18 279.692 295.069 273.178V311.715C295.069 311.779 295.017 311.831 294.953 311.831H252.89C252.806 311.831 252.751 311.745 252.784 311.669L272.641 266.843C267.611 268.367 262.274 269.186 256.746 269.186C226.511 269.186 202 244.676 202 214.441C202 184.205 226.511 159.695 256.746 159.695C261.448 159.695 266.011 160.288 270.366 161.403C274.447 142.31 291.31 128 311.492 128C334.726 128 353.56 146.963 353.56 170.356Z" fill="#0FCE45"/>
<ellipse cx="301.784" cy="214.321" rx="11.4437" ry="11.4437" transform="rotate(7.01693 301.784 214.321)" fill="white"/>
<ellipse cx="301.785" cy="214.321" rx="8.54247" ry="8.54247" transform="rotate(7.01693 301.785 214.321)" fill="black"/>
<ellipse cx="274.11" cy="212.214" rx="11.4437" ry="11.4437" transform="rotate(7.01693 274.11 212.214)" fill="white"/>
<ellipse cx="274.111" cy="212.213" rx="8.54247" ry="8.54247" transform="rotate(7.01693 274.111 212.213)" fill="black"/>
<path d="M280.305 231.835C280.305 231.835 282.592 233.082 287.18 233.208C291.385 233.324 293.445 232.294 293.445 232.294" stroke="#F27840" stroke-width="7.09187" stroke-linecap="round"/>
<path d="M280.305 231.835C280.305 231.835 282.592 233.082 287.18 233.208C291.385 233.324 293.445 232.294 293.445 232.294" stroke="black" stroke-width="1.28943" stroke-linecap="round"/>
<circle cx="278.067" cy="210.407" r="1.72881" fill="white"/>
<circle cx="305.153" cy="212.711" r="1.72881" fill="white"/>
<rect x="21" y="73" width="180" height="53.8333" rx="26.9167" fill="#0FCE45" fill-opacity="0.32"/>
<path d="M70.0684 88.4971V97.2568H69.1309V88.4971H70.0684ZM65.3809 89.1514C66.6992 89.1514 67.6465 90.3477 67.6465 92.2178C67.6465 94.0928 66.6992 95.2939 65.3809 95.2939C64.0723 95.2939 63.1201 94.0928 63.125 92.2178C63.1201 90.3477 64.0723 89.1514 65.3809 89.1514ZM65.3809 89.9912C64.5752 89.9912 64.0186 90.8457 64.0234 92.2178C64.0186 93.6045 64.5752 94.459 65.3809 94.4541C66.1914 94.459 66.748 93.6045 66.748 92.2178C66.748 90.8457 66.1914 89.9912 65.3809 89.9912ZM78.6598 88.5068V94.9717H77.7125V91.6807H75.818V93.5264H71.775V89.083H72.7027V90.5576H74.9V89.083H75.818V90.9189H77.7125V88.5068H78.6598ZM78.8551 96.2998V97.0615H72.9371V94.3369H73.8648V96.2998H78.8551ZM72.7027 92.7646H74.9V91.29H72.7027V92.7646ZM86.5652 88.9854V89.7275H83.577V91.8564C85.242 91.8467 86.2332 91.7832 87.366 91.5537L87.4637 92.2959C86.2479 92.5498 85.198 92.6035 83.3426 92.5986H82.6492V88.9854H86.5652ZM89.1531 88.4971V90.2842H90.4227V91.0557H89.1531V92.8818H88.2254V88.4971H89.1531ZM89.1531 93.3018V95.5381H84.4363V96.3877H89.4656V97.1299H83.5184V94.8252H88.2449V94.0439H83.4891V93.3018H89.1531ZM97.6445 89.1904V89.9424H94.5098V91.0361H97.4883V91.7783H94.5098V92.9404C96.1064 92.9404 97.0879 92.9014 98.1914 92.6963L98.2988 93.4385C97.0977 93.6582 96.0576 93.6924 94.2754 93.6924H93.582V89.1904H97.6445ZM100.076 88.4971V91.1729H101.346V91.9541H100.076V94.9814H99.1484V88.4971H100.076ZM100.457 96.2998V97.0615H94.5391V94.3955H95.4668V96.2998H100.457ZM109.752 95.3721V96.1436H101.754V95.3721H105.25V93.3018H106.177V95.3721H109.752ZM106.207 89.7178C106.207 91.0996 107.72 92.3887 109.4 92.6865L109 93.4678C107.584 93.1846 106.29 92.291 105.709 91.0947C105.132 92.2861 103.843 93.1797 102.427 93.4678L102.027 92.6865C103.712 92.3887 105.215 91.0898 105.22 89.7178V89.0537H106.207V89.7178ZM113.858 89.3076V91.3975H115.509V89.3076H116.378V95.0889H112.97V89.3076H113.858ZM113.858 94.3369H115.509V92.1396H113.858V94.3369ZM120.196 88.4971V97.2373H119.298V92.6865H118.233V96.8174H117.354V88.6631H118.233V91.9248H119.298V88.4971H120.196ZM129.188 92.3252V93.0381H125.662V93.751H128.182V95.7432H123.104V96.4561H128.436V97.1592H122.186V95.0986H127.264V94.4443H122.157V93.751H124.735V93.0381H121.229V92.3252H129.188ZM125.662 88.458V89.2295H128.387V89.9424H125.741C125.916 90.6699 127.074 91.1924 128.787 91.2803L128.524 91.9834C126.986 91.876 125.75 91.4316 125.204 90.6748C124.647 91.4316 123.407 91.876 121.883 91.9834L121.61 91.2803C123.324 91.1924 124.481 90.6699 124.666 89.9424H122.02V89.2295H124.735V88.458H125.662ZM137.906 89.8057V90.5771H136.627V91.6416H137.906V92.4229H136.627V93.7803H135.699V88.5068H136.627V89.8057H137.906ZM134.088 89.0342V91.4854H131.041V92.5498C132.589 92.5449 133.648 92.4912 134.918 92.2764L135.006 93.0381C133.653 93.2676 132.472 93.3164 130.826 93.3213H130.123V90.7725H133.18V89.7861H130.113V89.0342H134.088ZM133.795 94.0146C135.602 94.0146 136.72 94.6006 136.715 95.626C136.72 96.6416 135.606 97.2373 133.795 97.2373C131.979 97.2373 130.87 96.6416 130.865 95.626C130.87 94.6006 131.983 94.0146 133.795 94.0146ZM133.795 94.7373C132.521 94.7324 131.783 95.0498 131.783 95.626C131.783 96.1973 132.516 96.5146 133.795 96.5146C135.069 96.5146 135.807 96.1973 135.807 95.626C135.807 95.0498 135.06 94.7324 133.795 94.7373ZM145.55 88.4971V97.2568H144.613V88.4971H145.55ZM140.863 89.1514C142.181 89.1514 143.129 90.3477 143.129 92.2178C143.129 94.0928 142.181 95.2939 140.863 95.2939C139.554 95.2939 138.602 94.0928 138.607 92.2178C138.602 90.3477 139.554 89.1514 140.863 89.1514ZM140.863 89.9912C140.057 89.9912 139.501 90.8457 139.505 92.2178C139.501 93.6045 140.057 94.459 140.863 94.4541C141.673 94.459 142.23 93.6045 142.23 92.2178C142.23 90.8457 141.673 89.9912 140.863 89.9912ZM70.1074 102.497V106.921H69.1699V105.134H67.4902C67.3096 106.101 66.4111 106.765 65.2344 106.765C63.9111 106.765 62.9443 105.935 62.9492 104.772C62.9443 103.601 63.9111 102.775 65.2344 102.771C66.3965 102.775 67.2852 103.415 67.4805 104.372H69.1699V102.497H70.1074ZM65.2344 103.542C64.4336 103.537 63.8428 104.04 63.8379 104.772C63.8428 105.505 64.4336 106.008 65.2344 106.003C66.04 106.008 66.626 105.505 66.6211 104.772C66.626 104.04 66.04 103.537 65.2344 103.542ZM70.1074 107.37V109.558H65.3223V110.388H70.4199V111.13H64.4043V108.864H69.1895V108.103H64.3848V107.37H70.1074ZM75.7887 103.356V109.05H71.6871V103.356H75.7887ZM72.6051 104.099V108.308H74.8609V104.099H72.6051ZM78.1812 102.497V105.935H79.5777V106.716H78.1812V111.247H77.2437V102.497H78.1812ZM88.0812 105.925V106.706H86.7238V111.237H85.7863V102.497H86.7238V105.925H88.0812ZM81.1574 103.347V108.269C82.3977 108.254 83.6623 108.161 85.0344 107.878L85.1418 108.659C83.6477 108.962 82.2561 109.045 80.9426 109.04H80.2297V103.347H81.1574ZM95.9184 104.714V105.427H94.2289V106.208C95.0199 106.174 95.8061 106.12 96.5434 106.042L96.5922 106.687C94.727 106.955 92.6566 107.004 90.9965 107.009L90.8793 106.276C91.6215 106.271 92.4467 106.262 93.2914 106.237V105.427H91.6605V102.858H95.8207V103.581H92.6176V104.714H95.9184ZM98.0961 102.507V107.165H97.1684V102.507H98.0961ZM98.0961 107.546V109.665H93.1645V110.417H98.3793V111.159H92.2465V108.972H97.1781V108.278H92.2367V107.546H98.0961ZM102.596 105.075C102.591 106.535 103.553 108.044 104.9 108.62L104.373 109.362C103.357 108.898 102.542 107.932 102.137 106.765C101.727 108.015 100.911 109.079 99.8809 109.577L99.3438 108.835C100.677 108.215 101.648 106.574 101.648 105.075V104.147H99.6562V103.376H104.588V104.147H102.596V105.075ZM106.619 102.497V111.247H105.682V102.497H106.619ZM117.825 102.497V111.237H116.927V102.497H117.825ZM116.019 102.712V110.817H115.15V107.839H113.655V107.077H115.15V105.642H113.802C113.382 107.116 112.449 108.396 110.794 109.372L110.247 108.708C112.103 107.609 112.991 106.145 113.148 104.343H110.677V103.581H114.066C114.066 104.035 114.031 104.475 113.968 104.899H115.15V102.712H116.019ZM121.886 104.089C121.886 105.256 122.691 106.364 124.014 106.823L123.546 107.556C122.559 107.209 121.832 106.506 121.446 105.622C121.065 106.608 120.313 107.375 119.268 107.761L118.77 107.019C120.157 106.55 120.953 105.368 120.958 104.069V103.024H121.886V104.089ZM125.704 102.497V105.134H126.973V105.905H125.704V108.942H124.776V102.497H125.704ZM126.085 110.3V111.062H120.177V108.317H121.114V110.3H126.085ZM131.698 103.942V104.694H127.362V103.942H129.08V102.741H130.008V103.942H131.698ZM129.539 105.222C130.648 105.222 131.444 106.057 131.444 107.233C131.444 108.43 130.648 109.26 129.539 109.255C128.436 109.26 127.635 108.43 127.635 107.233C127.635 106.057 128.436 105.222 129.539 105.222ZM129.539 106.003C128.91 106.003 128.465 106.501 128.465 107.233C128.465 107.985 128.91 108.479 129.539 108.474C130.164 108.479 130.619 107.985 130.614 107.233C130.619 106.501 130.164 106.003 129.539 106.003ZM134.881 102.497V111.237H133.993V106.901H132.987V110.837H132.108V102.683H132.987V106.14H133.993V102.497H134.881ZM143.922 109.392V110.163H135.924V109.392H139.439V107.595H136.832V103.093H137.76V104.587H142.057V103.093H142.984V107.595H140.367V109.392H143.922ZM137.76 106.833H142.057V105.349H137.76V106.833ZM147.504 105.075C147.504 106.447 148.426 107.995 149.75 108.62L149.222 109.362C148.231 108.884 147.455 107.893 147.064 106.745C146.664 107.99 145.853 109.079 144.847 109.577L144.31 108.835C145.624 108.2 146.586 106.545 146.586 105.075V104.147H144.623V103.376H149.408V104.147H147.504V105.075ZM151.283 102.497V105.974H152.679V106.755H151.283V111.247H150.345V102.497H151.283ZM156.866 107.78C155.89 107.78 155.538 107.004 154.933 106.999C154.679 107.004 154.449 107.15 153.966 107.692L153.214 107.019C153.863 106.311 154.279 105.983 154.894 105.983C155.865 105.983 156.217 106.76 156.818 106.765C157.071 106.76 157.306 106.613 157.794 106.062L158.546 106.745C157.892 107.453 157.477 107.78 156.866 107.78Z" fill="black"/>
<path d="M148.743 136.692C148.743 138.781 146.661 140.23 144.702 139.506L110.42 126.833L148.743 126.833V136.692Z" fill="#0FCE45" fill-opacity="0.32"/>
</g>
<defs>
<clipPath id="clip0_1555_4741">
<rect width="344" height="268" fill="white"/>
</clipPath>
</defs>
</svg>
