<svg width="344" height="268" viewBox="0 0 344 268" fill="none" xmlns="http://www.w3.org/2000/svg">
<g clip-path="url(#clip0_1555_4775)">
<rect x="202" y="12" width="78" height="78" rx="39" fill="#5E85FD" fill-opacity="0.2"/>
<rect x="231" y="26.2334" width="20" height="20" rx="10" fill="#000301"/>
<rect x="234.617" y="29.8506" width="12.7659" height="12.7659" rx="6.38295" fill="#FFD64E"/>
<circle cx="239.063" cy="35.551" r="1.59596" fill="white"/>
<ellipse cx="239.064" cy="35.5507" rx="1.19135" ry="1.19135" fill="black"/>
<circle cx="242.938" cy="35.551" r="1.59596" fill="white"/>
<ellipse cx="242.939" cy="35.5507" rx="1.19135" ry="1.19135" fill="black"/>
<path d="M240.618 39.1985C240.844 39.1985 241.021 39.0612 241.13 38.8966C241.241 38.7305 241.302 38.5141 241.302 38.2865C241.302 38.0589 241.241 37.8425 241.13 37.6764C241.021 37.5119 240.844 37.3745 240.618 37.3745C240.392 37.3745 240.216 37.5119 240.106 37.6764C239.995 37.8425 239.934 38.0589 239.934 38.2865C239.934 38.5141 239.995 38.7305 240.106 38.8966C240.216 39.0612 240.392 39.1985 240.618 39.1985Z" fill="black" stroke="#F26A40" stroke-width="0.455988"/>
<path d="M244.454 45.5059H237.363L240.224 48.723C240.586 49.1307 241.223 49.1311 241.586 48.7238L244.454 45.5059Z" fill="#000301"/>
<path d="M223.529 58.2507C223.529 56.4964 224.951 55.0742 226.706 55.0742H255.294C257.048 55.0742 258.47 56.4964 258.47 58.2507C258.47 60.005 257.048 61.4271 255.294 61.4271H226.706C224.951 61.4271 223.529 60.005 223.529 58.2507Z" fill="#9EB6FE"/>
<circle cx="240.998" cy="58.2506" r="5.16175" fill="#9EB6FE"/>
<circle cx="240.998" cy="58.2511" r="2.7794" fill="white"/>
<path d="M229.457 74.8913C231.4 73.6543 232.26 72.7237 232.264 71.8668C232.26 71.2968 231.884 70.9401 231.318 70.9362C230.88 70.9401 230.539 71.1495 230.364 71.7815L229.426 71.5411C229.709 70.5097 230.415 70.0444 231.318 70.0444C232.47 70.0444 233.237 70.8005 233.241 71.8513C233.237 72.8556 232.458 73.8327 230.992 74.8447V74.8757H233.319V75.7676H229.457V74.8913ZM236.256 75.8761C234.88 75.8761 234.058 74.7672 234.061 73.0766C234.058 71.1844 235.077 70.0444 236.458 70.0444C237.148 70.0444 237.772 70.3352 238.172 70.8276L237.45 71.448C237.206 71.1184 236.842 70.9633 236.458 70.9672C235.682 70.9633 235.093 71.6031 235.054 72.8439H235.085C235.399 72.3748 235.919 72.0878 236.528 72.0839C237.528 72.0878 238.3 72.8788 238.296 73.9451C238.3 75.0657 237.431 75.8761 236.256 75.8761ZM236.256 75.0076C236.877 75.0076 237.322 74.5733 237.319 73.9529C237.322 73.3364 236.877 72.9021 236.256 72.906C235.632 72.9021 235.186 73.3364 235.186 73.9529C235.186 74.5733 235.632 75.0076 236.256 75.0076ZM239.48 75.8451C239.12 75.8451 238.856 75.5853 238.852 75.2247C238.856 74.8719 239.12 74.6082 239.48 74.6121C239.845 74.6082 240.112 74.8719 240.109 75.2247C240.112 75.5853 239.845 75.8451 239.48 75.8451ZM240.425 71.0448V70.1529H244.318V70.9982C243.158 72.4911 242.487 73.9451 242.34 75.7676H241.379C241.51 73.9684 242.104 72.4756 243.123 71.068V71.0448H240.425ZM245.045 75.7676V70.1529H245.991V73.4411H246.006L247.402 71.766H248.558L246.914 73.6815L248.612 75.7676H247.48L246.006 73.9451H245.991V75.7676H245.045ZM250.906 74.8913C251.546 74.8951 252.007 74.4027 252.007 73.7047C252.007 73.0068 251.546 72.5143 250.906 72.5182C250.254 72.5143 249.801 73.0107 249.797 73.7047C249.801 74.3988 250.254 74.8951 250.906 74.8913ZM250.805 77.5512C249.998 77.5512 249.425 77.2372 248.913 76.6051L249.564 76.0545C249.921 76.5121 250.281 76.7021 250.774 76.7059C251.546 76.7021 251.976 76.2329 251.968 75.3643V75.0929H251.945C251.685 75.531 251.266 75.7521 250.72 75.7521C249.622 75.7521 248.839 74.868 248.835 73.7047C248.839 72.5415 249.622 71.6574 250.72 71.6574C251.266 71.6574 251.685 71.8784 251.945 72.3166H251.968V71.766H252.922V75.3643C252.926 76.737 252.112 77.5512 250.805 77.5512Z" fill="#5E85FD"/>
<path d="M315.022 315.229L285.303 248.14C285.284 248.097 285.241 248.069 285.195 248.069H271.806C271.741 248.069 271.688 248.122 271.688 248.187V315.277C271.688 315.342 271.741 315.395 271.806 315.395H314.914C315 315.395 315.057 315.307 315.022 315.229Z" fill="#28B0FB"/>
<circle cx="243.931" cy="168.931" r="41.931" fill="#28B0FB"/>
<circle cx="243.931" cy="240.982" r="41.931" fill="#28B0FB"/>
<circle cx="323.07" cy="168.931" r="41.931" fill="#28B0FB"/>
<circle cx="323.07" cy="240.982" r="41.931" fill="#28B0FB"/>
<rect x="229.164" y="160.663" width="88.5866" height="88.5866" fill="#28B0FB"/>
<ellipse cx="297.57" cy="208.628" rx="11.7278" ry="11.7278" transform="rotate(3.2312 297.57 208.628)" fill="white"/>
<ellipse cx="297.571" cy="208.628" rx="8.75455" ry="8.75454" transform="rotate(3.2312 297.571 208.628)" fill="black"/>
<ellipse cx="269.132" cy="208.347" rx="11.7278" ry="11.7278" transform="rotate(3.2312 269.132 208.347)" fill="white"/>
<ellipse cx="269.134" cy="208.346" rx="8.75455" ry="8.75454" transform="rotate(3.2312 269.134 208.346)" fill="black"/>
<path d="M279.461 225.37C279.461 225.37 279.748 229.308 283.587 229.316C287.425 229.324 287.532 225.485 287.532 225.485" stroke="#DF8080" stroke-width="4.72462" stroke-linecap="round"/>
<path d="M279.461 225.37C279.461 225.37 279.748 229.308 283.587 229.316C287.425 229.324 287.532 225.485 287.532 225.485" stroke="black" stroke-width="1.18115" stroke-linecap="round"/>
<circle cx="272.867" cy="204.958" r="1.77173" fill="white"/>
<circle cx="301.217" cy="204.958" r="1.77173" fill="white"/>
<rect x="21" y="73" width="180" height="53.8333" rx="26.9167" fill="#28B0FB" fill-opacity="0.32"/>
<path d="M60.7559 89.1904V89.9424H57.6211V91.0361H60.5996V91.7783H57.6211V92.9404C59.2178 92.9404 60.1992 92.9014 61.3027 92.6963L61.4102 93.4385C60.209 93.6582 59.1689 93.6924 57.3867 93.6924H56.6934V89.1904H60.7559ZM63.1875 88.4971V91.1729H64.457V91.9541H63.1875V94.9814H62.2598V88.4971H63.1875ZM63.5684 96.2998V97.0615H57.6504V94.3955H58.5781V96.2998H63.5684ZM72.8629 95.3721V96.1436H64.8648V95.3721H68.3609V93.3018H69.2887V95.3721H72.8629ZM69.318 89.7178C69.318 91.0996 70.8316 92.3887 72.5113 92.6865L72.1109 93.4678C70.6949 93.1846 69.401 92.291 68.8199 91.0947C68.2437 92.2861 66.9547 93.1797 65.5387 93.4678L65.1383 92.6865C66.8229 92.3887 68.3268 91.0898 68.3316 89.7178V89.0537H69.318V89.7178ZM76.9695 89.3076V91.3975H78.6199V89.3076H79.4891V95.0889H76.0809V89.3076H76.9695ZM76.9695 94.3369H78.6199V92.1396H76.9695V94.3369ZM83.3074 88.4971V97.2373H82.409V92.6865H81.3445V96.8174H80.4656V88.6631H81.3445V91.9248H82.409V88.4971H83.3074ZM92.2992 92.3252V93.0381H88.7738V93.751H91.2934V95.7432H86.2152V96.4561H91.5473V97.1592H85.2973V95.0986H90.3754V94.4443H85.268V93.751H87.8461V93.0381H84.3402V92.3252H92.2992ZM88.7738 88.458V89.2295H91.4984V89.9424H88.852C89.0277 90.6699 90.185 91.1924 91.8988 91.2803L91.6352 91.9834C90.0971 91.876 88.8617 91.4316 88.3148 90.6748C87.7582 91.4316 86.518 91.876 84.9945 91.9834L84.7211 91.2803C86.435 91.1924 87.5922 90.6699 87.7777 89.9424H85.1313V89.2295H87.8461V88.458H88.7738ZM102.5 88.4971V97.2373H101.562V88.4971H102.5ZM100.722 89.874V90.6357H95.4488V89.874H97.607V88.5947H98.5543V89.874H100.722ZM98.0953 91.2803C99.3648 91.2754 100.297 92.1152 100.293 93.3018C100.297 94.498 99.3648 95.3379 98.0953 95.3428C96.8209 95.3379 95.8932 94.498 95.898 93.3018C95.8932 92.1152 96.8209 91.2754 98.0953 91.2803ZM98.0953 92.0518C97.3385 92.0469 96.7818 92.5547 96.777 93.3018C96.7818 94.0635 97.3385 94.5664 98.0953 94.5713C98.8521 94.5664 99.399 94.0635 99.4039 93.3018C99.399 92.5547 98.8521 92.0469 98.0953 92.0518ZM108.249 89.7275C108.249 91.1582 109.758 92.501 111.423 92.8037L111.013 93.585C109.612 93.2725 108.327 92.3643 107.761 91.1338C107.18 92.3594 105.901 93.2773 104.499 93.585L104.089 92.8037C105.754 92.4912 107.258 91.1484 107.263 89.7275V89.0732H108.249V89.7275ZM111.794 95.3232V96.1045H103.796V95.3232H111.794ZM119.438 92.9697V93.7217H116.782V95.4307H120.337V96.1924H112.339V95.4307H115.864V93.7217H113.335V89.1709H119.36V89.9326H114.282V91.0459H119.165V91.7881H114.282V92.9697H119.438ZM128.147 88.4971V97.2568H127.209V88.4971H128.147ZM125.461 89.2881V92.4912H122.317V94.3955C123.733 94.3857 124.988 94.3271 126.438 94.0928L126.536 94.8447C124.988 95.1035 123.679 95.167 122.121 95.167H121.379V91.7393H124.514V90.0498H121.36V89.2881H125.461ZM138.679 88.5068V91.1045H139.929V91.876H138.679V94.3857H137.752V88.5068H138.679ZM131.736 93.4189C132.424 93.4189 133.206 93.4141 134.021 93.3896V92.7939C133.03 92.6914 132.4 92.2275 132.4 91.5342C132.4 90.7285 133.225 90.2305 134.48 90.2256C135.745 90.2305 136.57 90.7285 136.57 91.5342C136.57 92.2227 135.95 92.6865 134.959 92.7939V93.3604C135.74 93.3262 136.526 93.2676 137.263 93.165L137.332 93.8193C135.452 94.1465 133.396 94.1562 131.853 94.1611L131.736 93.4189ZM138.679 94.8057V97.2471H137.752V95.5479H132.83V94.8057H138.679ZM137.009 89.249V89.9424H131.951V89.249H134.021V88.4287H134.959V89.249H137.009ZM134.48 90.8701C133.748 90.8652 133.289 91.1094 133.289 91.5342C133.289 91.9395 133.753 92.1982 134.48 92.1982C135.217 92.1982 135.681 91.9395 135.681 91.5342C135.681 91.1094 135.217 90.8652 134.48 90.8701ZM147.603 88.5068V94.8643H146.665V88.5068H147.603ZM147.866 96.2998V97.0615H141.88V94.2197H142.808V96.2998H147.866ZM142.857 89.0928C144.175 89.0977 145.186 90.001 145.181 91.2705C145.186 92.5352 144.175 93.4434 142.857 93.4482C141.524 93.4434 140.518 92.5352 140.523 91.2705C140.518 90.001 141.524 89.0977 142.857 89.0928ZM142.857 89.9033C142.046 89.9033 141.431 90.4502 141.431 91.2705C141.431 92.0762 142.046 92.6182 142.857 92.6182C143.662 92.6182 144.273 92.0762 144.273 91.2705C144.273 90.4502 143.662 89.9033 142.857 89.9033ZM155.716 88.4971V92.0322H157.102V92.8232H155.716V97.2471H154.778V88.4971H155.716ZM154.026 89.8643V90.626H148.841V89.8643H150.989V88.6143H151.927V89.8643H154.026ZM151.468 91.2803C152.722 91.2754 153.636 92.1152 153.636 93.3018C153.636 94.498 152.722 95.3379 151.468 95.3428C150.213 95.3379 149.29 94.498 149.29 93.3018C149.29 92.1152 150.213 91.2754 151.468 91.2803ZM151.468 92.0518C150.721 92.0469 150.183 92.5547 150.188 93.3018C150.183 94.0635 150.721 94.5664 151.468 94.5713C152.205 94.5664 152.747 94.0635 152.747 93.3018C152.747 92.5547 152.205 92.0469 151.468 92.0518ZM164.502 89.3369V90.1865C164.507 91.2754 164.507 92.4863 164.18 94.2783L163.243 94.1709C163.575 92.4717 163.575 91.2412 163.575 90.1865V90.0986H158.272V89.3369H164.502ZM165.411 95.3037V96.0654H157.432V95.3037H160.45V92.208H161.387V95.3037H165.411ZM63.8418 102.497V111.237H62.9434V102.497H63.8418ZM62.0645 102.663V110.817H61.1855V106.608H60.1895C60.1113 108.322 59.3887 109.362 58.2949 109.362C57.1572 109.362 56.415 108.186 56.4199 106.276C56.415 104.382 57.1572 103.19 58.2949 103.19C59.3643 103.19 60.0771 104.201 60.1895 105.837H61.1855V102.663H62.0645ZM58.2949 104.069C57.6699 104.069 57.2695 104.88 57.2695 106.276C57.2695 107.668 57.6699 108.488 58.2949 108.493C58.9443 108.488 59.3398 107.668 59.3398 106.276C59.3398 104.88 58.9443 104.069 58.2949 104.069ZM72.1695 102.497V111.257H71.232V106.091H68.6148V105.329H71.232V102.497H72.1695ZM66.2613 103.464V108.376C67.5064 108.366 68.6979 108.283 69.982 108.034L70.0797 108.796C68.6783 109.074 67.4137 109.162 66.0367 109.157H65.3336V103.464H66.2613ZM76.6301 105.075C76.6252 106.535 77.5871 108.044 78.9348 108.62L78.4074 109.362C77.3918 108.898 76.5764 107.932 76.1711 106.765C75.7609 108.015 74.9455 109.079 73.9152 109.577L73.3781 108.835C74.7111 108.215 75.6828 106.574 75.6828 105.075V104.147H73.6906V103.376H78.6223V104.147H76.6301V105.075ZM80.6535 102.497V111.247H79.716V102.497H80.6535ZM89.9383 106.521V107.214H81.9402V106.521H89.9383ZM88.952 107.839V109.772H83.825V110.485H89.2254V111.14H82.8973V109.147H88.0438V108.503H82.8777V107.839H88.952ZM88.9227 102.722V104.616H83.8836V105.28H89.0887V105.935H82.9656V103.991H88.0047V103.376H82.9461V102.722H88.9227ZM95.9785 103.796C95.9785 104.802 96.7744 105.798 98.0684 106.188L97.6289 106.931C96.6328 106.613 95.9004 105.964 95.5195 105.153C95.1289 106.047 94.3574 106.784 93.3223 107.116L92.873 106.384C94.2012 105.944 95.0361 104.86 95.0312 103.796V103.669H93.1367V102.917H97.8633V103.669H95.9785V103.796ZM100.158 102.497V106.989H99.2207V105.153H97.5996V104.401H99.2207V102.497H100.158ZM100.158 107.399V109.577H95.373V110.407H100.471V111.149H94.4551V108.884H99.2402V108.142H94.4355V107.399H100.158ZM109.531 103.776V104.548H108.281V105.651H109.531V106.423H108.281V107.683H107.353V102.497H108.281V103.776H109.531ZM108.281 108.083V111.247H107.353V108.825H102.509V108.083H108.281ZM103.877 103.005C105.21 103 106.201 103.869 106.201 105.095C106.201 106.325 105.214 107.18 103.877 107.185C102.534 107.18 101.547 106.325 101.543 105.095C101.547 103.869 102.539 103 103.877 103.005ZM103.877 103.796C103.056 103.801 102.456 104.309 102.451 105.095C102.456 105.881 103.061 106.394 103.877 106.394C104.692 106.394 105.297 105.881 105.293 105.095C105.297 104.309 104.697 103.801 103.877 103.796ZM113.933 102.634C115.905 102.639 117.068 103.176 117.068 104.147C117.068 105.119 115.905 105.661 113.933 105.661C111.975 105.661 110.808 105.119 110.808 104.147C110.808 103.176 111.975 102.639 113.933 102.634ZM113.933 103.337C112.541 103.337 111.775 103.625 111.775 104.147C111.775 104.675 112.541 104.963 113.933 104.958C115.339 104.963 116.106 104.675 116.101 104.147C116.106 103.625 115.339 103.337 113.933 103.337ZM117.927 106.188V106.94H109.948V106.188H117.927ZM116.921 107.614V109.665H111.843V110.437H117.175V111.159H110.925V108.991H116.003V108.317H110.896V107.614H116.921ZM128.137 102.497V106.989H127.2V102.497H128.137ZM128.137 107.419V109.597H123.313V110.417H128.42V111.159H122.405V108.913H127.219V108.151H122.385V107.419H128.137ZM124.055 103.396C124.055 104.558 124.895 105.627 126.243 106.052L125.784 106.784C124.763 106.452 123.996 105.759 123.606 104.87C123.205 105.827 122.424 106.584 121.37 106.95L120.911 106.208C122.283 105.754 123.113 104.606 123.108 103.396V102.731H124.055V103.396ZM132.49 104.567C132.495 105.671 133.315 106.696 134.658 107.106L134.199 107.849C133.198 107.526 132.441 106.867 132.051 106.013C131.665 106.936 130.908 107.648 129.873 107.995L129.414 107.263C130.762 106.823 131.562 105.754 131.562 104.567V104.372H129.668V103.63H131.562V102.565H132.5V103.63H134.385V104.372H132.49V104.567ZM136.719 102.507V109.011H135.771V105.915H134.092V105.144H135.771V102.507H136.719ZM136.943 110.3V111.062H131.025V108.444H131.963V110.3H136.943ZM142.283 103.942V104.694H137.947V103.942H139.666V102.741H140.593V103.942H142.283ZM140.125 105.222C141.233 105.222 142.029 106.057 142.029 107.233C142.029 108.43 141.233 109.26 140.125 109.255C139.021 109.26 138.22 108.43 138.22 107.233C138.22 106.057 139.021 105.222 140.125 105.222ZM140.125 106.003C139.495 106.003 139.05 106.501 139.05 107.233C139.05 107.985 139.495 108.479 140.125 108.474C140.75 108.479 141.204 107.985 141.199 107.233C141.204 106.501 140.75 106.003 140.125 106.003ZM145.466 102.497V111.237H144.578V106.901H143.572V110.837H142.693V102.683H143.572V106.14H144.578V102.497H145.466ZM154.507 109.382V110.153H146.509V109.382H148.413V107.097C147.696 106.701 147.256 106.071 147.261 105.29C147.256 103.908 148.618 103.015 150.484 103.015C152.373 103.015 153.726 103.908 153.726 105.29C153.726 106.066 153.296 106.691 152.583 107.087V109.382H154.507ZM150.484 103.747C149.131 103.747 148.164 104.348 148.169 105.29C148.164 106.232 149.131 106.833 150.484 106.833C151.856 106.833 152.813 106.232 152.818 105.29C152.813 104.348 151.856 103.747 150.484 103.747ZM149.341 109.382H151.655V107.438C151.299 107.521 150.904 107.565 150.484 107.565C150.073 107.565 149.693 107.521 149.341 107.438V109.382ZM158.909 107.78C157.932 107.78 157.581 107.004 156.975 106.999C156.721 107.004 156.492 107.15 156.009 107.692L155.257 107.019C155.906 106.311 156.321 105.983 156.936 105.983C157.908 105.983 158.26 106.76 158.86 106.765C159.114 106.76 159.348 106.613 159.837 106.062L160.589 106.745C159.934 107.453 159.519 107.78 158.909 107.78Z" fill="black"/>
<path d="M148.743 136.692C148.743 138.781 146.661 140.23 144.702 139.506L110.42 126.833L148.743 126.833V136.692Z" fill="#28B0FB" fill-opacity="0.33"/>
<rect x="142" y="161" width="48" height="48" rx="24" fill="#FFEFEE"/>
<rect x="155" y="170.285" width="21.9991" height="9.7965" rx="4.89825" fill="#000301"/>
<path d="M160.2 177.242C159.133 177.242 158.64 176.36 158.64 175.182C158.64 174.004 159.133 173.122 160.2 173.122C161.274 173.122 161.761 174.004 161.761 175.182C161.761 176.36 161.274 177.242 160.2 177.242ZM160.2 176.615C160.839 176.615 161.1 176.064 161.1 175.182C161.1 174.3 160.839 173.749 160.2 173.749C159.568 173.749 159.307 174.3 159.307 175.182C159.307 176.064 159.568 176.615 160.2 176.615ZM162.661 177.224C162.441 177.224 162.255 177.044 162.255 176.824C162.255 176.598 162.441 176.418 162.661 176.418C162.888 176.418 163.073 176.598 163.073 176.824C163.073 177.044 162.888 177.224 162.661 177.224ZM165.717 177.218C165.532 177.218 165.393 177.073 165.393 176.894V176.186H163.82C163.617 176.186 163.461 176.052 163.461 175.855C163.461 175.756 163.495 175.658 163.553 175.571L165.16 173.378C165.271 173.227 165.398 173.146 165.584 173.146C165.868 173.146 166.037 173.36 166.037 173.616V175.571H166.344C166.512 175.571 166.651 175.71 166.651 175.878C166.651 176.052 166.512 176.186 166.344 176.186H166.037V176.894C166.037 177.073 165.897 177.218 165.717 177.218ZM165.398 174.01L164.25 175.571H165.398V174.01ZM167.639 177.218C167.459 177.218 167.32 177.079 167.32 176.894V173.465C167.32 173.285 167.459 173.146 167.639 173.146C167.825 173.146 167.964 173.285 167.964 173.465V175.739L169.223 174.393C169.298 174.312 169.38 174.271 169.472 174.271C169.635 174.271 169.774 174.41 169.774 174.573C169.774 174.642 169.745 174.718 169.67 174.805L168.939 175.559L169.768 176.708C169.821 176.789 169.844 176.841 169.844 176.911C169.844 177.079 169.699 177.218 169.525 177.218C169.409 177.218 169.316 177.155 169.235 177.039L168.492 176.006L167.964 176.563V176.894C167.964 177.079 167.825 177.218 167.639 177.218ZM172.056 178.321H170.907C170.745 178.321 170.617 178.199 170.617 178.031C170.617 177.862 170.745 177.741 170.907 177.741H172.073C172.421 177.741 172.619 177.578 172.619 177.189V176.76C172.398 177.021 172.062 177.166 171.679 177.166C170.838 177.166 170.234 176.528 170.234 175.704C170.234 174.886 170.884 174.248 171.679 174.248C172.068 174.248 172.404 174.393 172.625 174.66V174.584C172.625 174.405 172.758 174.265 172.938 174.265C173.112 174.265 173.245 174.405 173.245 174.584V177.16C173.245 177.967 172.735 178.321 172.056 178.321ZM171.737 176.569C172.236 176.569 172.601 176.203 172.601 175.704C172.601 175.205 172.236 174.84 171.737 174.84C171.238 174.84 170.878 175.205 170.878 175.704C170.878 176.203 171.238 176.569 171.737 176.569Z" fill="white"/>
<path d="M165.248 181.34C165.037 181.548 164.698 181.548 164.486 181.34L163.202 180.081L166.533 180.081L165.248 181.34Z" fill="#000301"/>
<path d="M173.481 184.715C175.425 184.715 177 186.29 177 188.233L177 199.715L155 199.715L155 188.233C155 186.29 156.575 184.715 158.519 184.715L173.481 184.715Z" fill="#FF7D6F"/>
<path d="M173.481 184.715C175.425 184.715 177 186.29 177 188.233L177 199.715L155 199.715L155 188.233C155 186.29 156.575 184.715 158.519 184.715L173.481 184.715Z" stroke="white"/>
</g>
<defs>
<clipPath id="clip0_1555_4775">
<rect width="344" height="268" fill="white"/>
</clipPath>
</defs>
</svg>
