<svg width="56" height="56" viewBox="0 0 56 56" fill="none" xmlns="http://www.w3.org/2000/svg">
<rect width="56" height="56" rx="28" fill="#5E85FD" fill-opacity="0.3"/>
<path d="M23.3337 25.667H32.667ZM22.167 30.3337H23.3337ZM32.667 30.3337H33.8337Z" fill="#5E85FD"/>
<path d="M23.3337 25.667H32.667M22.167 30.3337H23.3337M32.667 30.3337H33.8337" stroke="#5E85FD" stroke-width="1.75" stroke-linecap="round" stroke-linejoin="round"/>
<path d="M17.5 35.0003V27.312C17.5002 26.9963 17.5645 26.6839 17.689 26.3938L20.3945 20.0822C20.5742 19.6623 20.8732 19.3044 21.2544 19.0529C21.6355 18.8013 22.0821 18.6671 22.5388 18.667H33.4612C33.9177 18.667 34.3643 18.801 34.7454 19.0524C35.1266 19.3037 35.4256 19.6614 35.6055 20.081L38.3122 26.3927C38.4365 26.6836 38.5004 26.9968 38.5 27.3132V35.0003M17.5 35.0003V37.8003C17.5 37.986 17.5737 38.164 17.705 38.2953C17.8363 38.4266 18.0143 38.5003 18.2 38.5003H21.4667C21.6523 38.5003 21.8304 38.4266 21.9616 38.2953C22.0929 38.164 22.1667 37.986 22.1667 37.8003V35.0003M17.5 35.0003H22.1667ZM38.5 35.0003V37.8003C38.5 37.986 38.4263 38.164 38.295 38.2953C38.1637 38.4266 37.9857 38.5003 37.8 38.5003H34.5333C34.4414 38.5003 34.3504 38.4822 34.2655 38.447C34.1805 38.4119 34.1034 38.3603 34.0384 38.2953C33.9734 38.2303 33.9218 38.1531 33.8866 38.0682C33.8514 37.9833 33.8333 37.8923 33.8333 37.8003V35.0003M38.5 35.0003H33.8333ZM22.1667 35.0003H33.8333Z" fill="#5E85FD"/>
<path d="M17.5 35.0003V27.312C17.5002 26.9963 17.5645 26.6839 17.689 26.3938L20.3945 20.0822C20.5742 19.6623 20.8732 19.3044 21.2544 19.0529C21.6355 18.8013 22.0821 18.6671 22.5388 18.667H33.4612C33.9177 18.667 34.3643 18.801 34.7454 19.0524C35.1266 19.3037 35.4256 19.6614 35.6055 20.081L38.3122 26.3927C38.4365 26.6836 38.5004 26.9968 38.5 27.3132V35.0003M17.5 35.0003V37.8003C17.5 37.986 17.5737 38.164 17.705 38.2953C17.8363 38.4266 18.0143 38.5003 18.2 38.5003H21.4667C21.6523 38.5003 21.8304 38.4266 21.9616 38.2953C22.0929 38.164 22.1667 37.986 22.1667 37.8003V35.0003M17.5 35.0003H22.1667M38.5 35.0003V37.8003C38.5 37.986 38.4263 38.164 38.295 38.2953C38.1637 38.4266 37.9857 38.5003 37.8 38.5003H34.5333C34.4414 38.5003 34.3504 38.4822 34.2655 38.447C34.1805 38.4119 34.1034 38.3603 34.0384 38.2953C33.9734 38.2303 33.9218 38.1531 33.8866 38.0682C33.8514 37.9833 33.8333 37.8923 33.8333 37.8003V35.0003M38.5 35.0003H33.8333M22.1667 35.0003H33.8333" stroke="#5E85FD" stroke-width="1.75"/>
<path d="M32.6895 25.667H23.3086" stroke="#F2F2F2" stroke-width="1.5" stroke-linecap="round"/>
<path d="M23.3086 30.334H22.166" stroke="#F2F2F2" stroke-width="1.5" stroke-linecap="round"/>
<path d="M33.833 30.334H32.6904" stroke="#F2F2F2" stroke-width="1.5" stroke-linecap="round"/>
</svg>
