<svg width="191" height="243" viewBox="0 0 191 243" fill="none" xmlns="http://www.w3.org/2000/svg">
<mask id="mask0_1660_15978" style="mask-type:alpha" maskUnits="userSpaceOnUse" x="0" y="0" width="191" height="243">
<rect x="0.0820312" width="190.311" height="243" fill="#D9D9D9"/>
</mask>
<g mask="url(#mask0_1660_15978)">
<path d="M6.70683 117.146C37.1576 28.2803 102.77 6.20631 125.947 1.08579C131.279 -0.0921559 136.714 1.35358 140.755 5.02587C158.379 21.0417 204.532 73.0488 185.216 164.978C159.325 261.603 90.7785 253.349 72.3362 249.225C69.1956 248.523 66.1741 247.692 63.1134 246.698C45.0329 240.826 -18.9479 212.891 6.70683 117.146Z" fill="#FFD64E"/>
<ellipse cx="113.449" cy="107.573" rx="15.6166" ry="15.6166" transform="rotate(7.01693 113.449 107.573)" fill="white"/>
<ellipse cx="113.449" cy="107.574" rx="11.6575" ry="11.6575" transform="rotate(7.01693 113.449 107.574)" fill="black"/>
<ellipse cx="75.6876" cy="104.696" rx="15.6166" ry="15.6166" transform="rotate(7.01693 75.6876 104.696)" fill="white"/>
<ellipse cx="75.6871" cy="104.697" rx="11.6575" ry="11.6575" transform="rotate(7.01693 75.6871 104.697)" fill="black"/>
<path d="M92.8846 141.478C94.2107 141.478 95.1103 140.669 95.5978 140.051C96.1056 139.406 96.463 138.616 96.7208 137.842C97.2445 136.271 97.5291 134.246 97.5291 132.115C97.5291 129.983 97.2445 127.958 96.7208 126.387C96.463 125.614 96.1056 124.823 95.5978 124.179C95.1103 123.56 94.2107 122.752 92.8846 122.752C91.5585 122.752 90.6589 123.56 90.1714 124.179C89.6636 124.823 89.3062 125.614 89.0484 126.387C88.5248 127.958 88.2401 129.983 88.2401 132.115C88.2401 134.246 88.5248 136.271 89.0484 137.842C89.3062 138.616 89.6636 139.406 90.1714 140.051C90.6589 140.669 91.5585 141.478 92.8846 141.478Z" fill="black" stroke="#F26A40" stroke-width="4.57053"/>
<circle cx="81.0858" cy="102.232" r="2.35922" fill="white"/>
<circle cx="118.832" cy="104.59" r="2.35922" fill="white"/>
</g>
</svg>
