<svg width="245" height="243" viewBox="0 0 245 243" fill="none" xmlns="http://www.w3.org/2000/svg">
<mask id="mask0_1660_15803" style="mask-type:alpha" maskUnits="userSpaceOnUse" x="0" y="0" width="245" height="243">
<rect x="0.814453" width="244.186" height="243" fill="#D9D9D9"/>
</mask>
<g mask="url(#mask0_1660_15803)">
<path d="M170.223 242.788L130.454 155.15C130.429 155.096 130.375 155.061 130.315 155.061H112.39C112.306 155.061 112.237 155.129 112.237 155.213V242.851C112.237 242.935 112.306 243.003 112.39 243.003H170.084C170.195 243.003 170.268 242.889 170.223 242.788Z" fill="#FF738F"/>
<path d="M17.3182 124.455C53.1063 184.966 108.897 185.864 123.5 184.975C125.844 184.833 127.886 183.682 129.183 181.771C137.223 169.922 164.001 122.655 128.129 62.002C99.8209 14.138 50.0659 3.0537 28.3549 0.487027C21.7647 -0.292051 15.7097 3.13973 13.1143 9.10423C4.50276 28.8941 -10.7589 76.9824 17.3182 124.455Z" fill="#FF738F"/>
<path d="M228.774 124.455C192.985 184.966 137.195 185.864 122.592 184.975C120.248 184.833 118.205 183.682 116.909 181.771C108.869 169.922 82.0904 122.655 117.963 62.002C146.271 14.138 196.026 3.0537 217.737 0.487027C224.327 -0.292051 230.382 3.13973 232.978 9.10423C241.589 28.8941 256.851 76.9824 228.774 124.455Z" fill="#FF738F"/>
<ellipse cx="15.6873" cy="15.3248" rx="15.6873" ry="15.3248" transform="matrix(-0.992859 0.119296 0.125096 0.992145 114.145 90.7637)" fill="white"/>
<ellipse cx="11.7102" cy="11.4396" rx="11.7102" ry="11.4396" transform="matrix(-0.992859 0.119296 0.125096 0.992145 110.682 95.0938)" fill="black"/>
<ellipse cx="15.6873" cy="15.3248" rx="15.6873" ry="15.3248" transform="matrix(-0.992859 0.119296 0.125096 0.992145 152.094 87.9453)" fill="white"/>
<ellipse cx="11.7102" cy="11.4396" rx="11.7102" ry="11.4396" transform="matrix(-0.992859 0.119296 0.125096 0.992145 148.631 92.2754)" fill="black"/>
<path d="M111.447 134.762C111.447 134.762 112.589 136.529 114.913 136.247C117.238 135.966 116.559 134.143 118.883 133.862C121.208 133.581 121.006 135.51 123.33 135.229C125.654 134.948 124.976 133.125 127.3 132.843C129.624 132.562 129.422 134.492 131.747 134.21C134.071 133.929 134.977 131.914 134.977 131.914" stroke="#DC3D5C" stroke-width="8.37931" stroke-linecap="round"/>
<path d="M111.447 134.762C111.447 134.762 112.589 136.529 114.913 136.247C117.238 135.966 116.559 134.143 118.883 133.862C121.208 133.581 121.006 135.51 123.33 135.229C125.654 134.948 124.976 133.125 127.3 132.843C129.624 132.562 129.422 134.492 131.747 134.21C134.071 133.929 134.977 131.914 134.977 131.914" stroke="black" stroke-width="1.52351" stroke-linecap="round"/>
</g>
<ellipse cx="104.336" cy="103.373" rx="2.37073" ry="2.31429" fill="white"/>
<ellipse cx="141.478" cy="100.285" rx="2.37073" ry="2.31429" fill="white"/>
</svg>
