<svg width="211" height="243" viewBox="0 0 211 243" fill="none" xmlns="http://www.w3.org/2000/svg">
<path d="M145.782 242.786L107.448 156.251C107.424 156.196 107.369 156.16 107.309 156.16H90.0403C89.9561 156.16 89.8879 156.228 89.8879 156.313V242.848C89.8879 242.932 89.9561 243 90.0403 243H145.643C145.753 243 145.827 242.887 145.782 242.786Z" fill="#28B0FB"/>
<circle cx="54.0846" cy="54.0846" r="54.0846" fill="#28B0FB"/>
<circle cx="54.0846" cy="147.018" r="54.0846" fill="#28B0FB"/>
<circle cx="156.161" cy="54.0846" r="54.0846" fill="#28B0FB"/>
<circle cx="156.161" cy="147.018" r="54.0846" fill="#28B0FB"/>
<rect x="35.041" y="43.4199" width="114.263" height="114.263" fill="#28B0FB"/>
<ellipse cx="123.272" cy="105.288" rx="15.1271" ry="15.1271" transform="rotate(3.2312 123.272 105.288)" fill="white"/>
<ellipse cx="123.272" cy="105.288" rx="11.292" ry="11.292" transform="rotate(3.2312 123.272 105.288)" fill="black"/>
<ellipse cx="86.5902" cy="104.92" rx="15.1271" ry="15.1271" transform="rotate(3.2312 86.5902 104.92)" fill="white"/>
<ellipse cx="86.5907" cy="104.92" rx="11.292" ry="11.292" transform="rotate(3.2312 86.5907 104.92)" fill="black"/>
<path d="M99.9176 126.88C99.9176 126.88 100.288 131.959 105.239 131.969C110.19 131.98 110.328 127.028 110.328 127.028" stroke="#DF8080" stroke-width="6.09404" stroke-linecap="round"/>
<path d="M99.9176 126.88C99.9176 126.88 100.288 131.959 105.239 131.969C110.19 131.98 110.328 127.028 110.328 127.028" stroke="black" stroke-width="1.52351" stroke-linecap="round"/>
</svg>
