<svg width="225" height="243" viewBox="0 0 225 243" fill="none" xmlns="http://www.w3.org/2000/svg">
<path fill-rule="evenodd" clip-rule="evenodd" d="M200.341 55.989C200.341 67.9357 196.625 79.0085 190.293 88.0994C210.71 98.3106 224.717 119.325 224.717 143.591C224.717 177.878 196.751 205.674 162.253 205.674C147.394 205.674 133.747 200.517 123.024 191.906V242.848C123.024 242.932 122.956 243 122.872 243H67.2693C67.1591 243 67.0854 242.887 67.13 242.786L93.3783 183.533C86.7286 185.547 79.6742 186.63 72.3668 186.63C32.3997 186.63 0 154.23 0 114.263C0 74.2962 32.3997 41.8965 72.3668 41.8965C78.5819 41.8965 84.614 42.68 90.3698 44.1536C95.764 18.9159 118.055 0 144.733 0C175.445 0 200.341 25.0671 200.341 55.989Z" fill="#0FCE45"/>
<ellipse cx="131.9" cy="114.106" rx="15.1271" ry="15.1271" transform="rotate(7.01693 131.9 114.106)" fill="white"/>
<ellipse cx="131.9" cy="114.106" rx="11.292" ry="11.292" transform="rotate(7.01693 131.9 114.106)" fill="black"/>
<ellipse cx="95.3221" cy="111.321" rx="15.1271" ry="15.1271" transform="rotate(7.01693 95.3221 111.321)" fill="white"/>
<ellipse cx="95.3221" cy="111.321" rx="11.292" ry="11.292" transform="rotate(7.01693 95.3221 111.321)" fill="black"/>
<path d="M103.506 137.256C103.506 137.256 106.529 138.905 112.594 139.071C118.153 139.224 120.875 137.863 120.875 137.863" stroke="#F27840" stroke-width="9.37453" stroke-linecap="round"/>
<path d="M103.506 137.256C103.506 137.256 106.529 138.905 112.594 139.071C118.153 139.224 120.875 137.863 120.875 137.863" stroke="black" stroke-width="1.70446" stroke-linecap="round"/>
<circle cx="100.551" cy="108.932" r="2.28527" fill="white"/>
<circle cx="136.354" cy="111.979" r="2.28527" fill="white"/>
</svg>
