<svg width="360" height="360" viewBox="0 0 360 360" fill="none" xmlns="http://www.w3.org/2000/svg">
<rect width="360" height="360" rx="180" fill="#00320F"/>
<path fill-rule="evenodd" clip-rule="evenodd" d="M296 114.5C296 130.183 291.122 144.719 282.809 156.653C309.612 170.058 328 197.644 328 229.5C328 274.511 291.287 311 246 311C226.493 311 208.577 304.23 194.5 292.925V359.8C194.5 359.91 194.41 360 194.3 360H121.307C121.163 360 121.066 359.851 121.124 359.719L155.582 281.934C146.853 284.578 137.592 286 128 286C75.5329 286 33 243.467 33 191C33 138.533 75.5329 96 128 96C136.159 96 144.078 97.0286 151.634 98.9632C158.715 65.832 187.977 41 223 41C263.317 41 296 73.9071 296 114.5Z" fill="#0FCE45"/>
<ellipse cx="206.155" cy="190.792" rx="19.8582" ry="19.8582" transform="rotate(7.01693 206.155 190.792)" fill="white"/>
<ellipse cx="206.156" cy="190.792" rx="14.8237" ry="14.8237" transform="rotate(7.01693 206.156 190.792)" fill="black"/>
<ellipse cx="158.135" cy="187.135" rx="19.8582" ry="19.8582" transform="rotate(7.01693 158.135 187.135)" fill="white"/>
<ellipse cx="158.136" cy="187.136" rx="14.8237" ry="14.8237" transform="rotate(7.01693 158.136 187.136)" fill="black"/>
<path d="M168.879 221.184C168.879 221.184 172.847 223.348 180.809 223.566C188.106 223.767 191.681 221.981 191.681 221.981" stroke="#F27840" stroke-width="12.3065" stroke-linecap="round"/>
<path d="M168.879 221.184C168.879 221.184 172.847 223.348 180.809 223.566C188.106 223.767 191.681 221.981 191.681 221.981" stroke="black" stroke-width="2.23754" stroke-linecap="round"/>
</svg>
