<svg width="56" height="56" viewBox="0 0 56 56" fill="none" xmlns="http://www.w3.org/2000/svg">
<rect width="56" height="56" rx="28" fill="#5E85FD" fill-opacity="0.3"/>
<path d="M22.167 22.4C22.167 21.2861 22.7816 20.2178 23.8755 19.4302C24.9695 18.6425 26.4532 18.2 28.0003 18.2C29.5474 18.2 31.0312 18.6425 32.1251 19.4302C33.2191 20.2178 33.8337 21.2861 33.8337 22.4V41.16C33.8337 41.2703 33.8035 41.3795 33.7449 41.4815C33.6862 41.5834 33.6003 41.676 33.492 41.754C33.3836 41.832 33.255 41.8938 33.1135 41.9361C32.9719 41.9783 32.8202 42 32.667 42H23.3337C23.1805 42 23.0287 41.9783 22.8872 41.9361C22.7456 41.8938 22.617 41.832 22.5087 41.754C22.4004 41.676 22.3144 41.5834 22.2558 41.4815C22.1972 41.3795 22.167 41.2703 22.167 41.16V22.4ZM22.167 26.6H33.8337ZM28.0003 18.2V14ZM28.0003 14H26.0559ZM28.0003 14H29.9448Z" fill="#5E85FD"/>
<path d="M28.0003 18.2C26.4532 18.2 24.9695 18.6425 23.8755 19.4302C22.7816 20.2178 22.167 21.2861 22.167 22.4V41.16C22.167 41.2703 22.1972 41.3795 22.2558 41.4815C22.3144 41.5834 22.4004 41.676 22.5087 41.754C22.617 41.832 22.7456 41.8938 22.8872 41.9361C23.0287 41.9783 23.1805 42 23.3337 42H32.667C32.8202 42 32.9719 41.9783 33.1135 41.9361C33.255 41.8938 33.3836 41.832 33.492 41.754C33.6003 41.676 33.6862 41.5834 33.7449 41.4815C33.8035 41.3795 33.8337 41.2703 33.8337 41.16V22.4C33.8337 21.2861 33.2191 20.2178 32.1251 19.4302C31.0312 18.6425 29.5474 18.2 28.0003 18.2ZM28.0003 18.2V14M22.167 26.6H33.8337M28.0003 14H26.0559M28.0003 14H29.9448" stroke="#5E85FD" stroke-width="1.75" stroke-linecap="round"/>
<path d="M31.9766 26.6094L24.0254 26.6094" stroke="#F2F2F2" stroke-width="1.5" stroke-linecap="round"/>
</svg>
