<svg width="48" height="48" viewBox="0 0 48 48" fill="none" xmlns="http://www.w3.org/2000/svg">
<rect x="0.5" y="0.5" width="47" height="47" rx="23.5" fill="white"/>
<rect x="0.5" y="0.5" width="47" height="47" rx="23.5" stroke="#DCECDC"/>
<path fill-rule="evenodd" clip-rule="evenodd" d="M24.707 25.9629L28.086 29.3419C28.5225 29.7784 28.8198 30.3345 28.9403 30.94C29.0607 31.5454 28.9989 32.173 28.7627 32.7433C28.5264 33.3136 28.1264 33.8011 27.6131 34.144C27.0998 34.487 26.4963 34.67 25.879 34.6699H25.678C25.0881 34.6713 24.5087 34.5145 24 34.2159C23.4913 34.5145 22.9119 34.6713 22.322 34.6699H22.122C21.5046 34.6702 20.901 34.4873 20.3876 34.1444C19.8741 33.8016 19.4739 33.3141 19.2375 32.7438C19.0012 32.1734 18.9393 31.5458 19.0597 30.9402C19.1801 30.3347 19.4774 29.7785 19.914 29.3419L23.293 25.9619C23.4805 25.7745 23.7348 25.6691 24 25.6691C24.2652 25.6691 24.5195 25.7745 24.707 25.9619V25.9629ZM30.88 19.6699C31.6772 19.6697 32.4442 19.9746 33.0237 20.5221C33.6031 21.0695 33.951 21.818 33.996 22.6139L34.001 22.7909V22.9919C34.0024 23.5818 33.8456 24.1612 33.547 24.6699C33.799 25.0989 33.957 25.5909 33.993 26.1199L34.001 26.3479V26.5479C34.0013 27.1479 33.8288 27.7352 33.5039 28.2396C33.1791 28.744 32.7157 29.1441 32.1694 29.3919C31.623 29.6398 31.0168 29.7249 30.4233 29.6371C29.8298 29.5493 29.2742 29.2923 28.823 28.8969L28.673 28.7559L25.293 25.3769C25.121 25.2046 25.0177 24.9754 25.0026 24.7324C24.9875 24.4894 25.0616 24.2492 25.211 24.0569L25.294 23.9629L28.673 20.5839C29.258 19.9988 30.0526 19.67 30.88 19.6699ZM17.12 19.6699C17.88 19.6699 18.61 19.9459 19.177 20.4429L19.327 20.5839L22.707 23.9629C22.879 24.1353 22.9823 24.3644 22.9974 24.6074C23.0125 24.8505 22.9384 25.0906 22.789 25.2829L22.706 25.3769L19.327 28.7559C18.901 29.1814 18.3611 29.4746 17.7723 29.6002C17.1835 29.7258 16.5709 29.6785 16.0084 29.464C15.4459 29.2494 14.9574 28.8768 14.6017 28.391C14.2461 27.9052 14.0385 27.327 14.004 26.7259L14 26.5489V26.3479C14 25.7329 14.167 25.1599 14.454 24.6699C14.1947 24.2278 14.042 23.7313 14.008 23.2199L14 22.9929V22.7929C13.9996 22.3829 14.0801 21.9768 14.2367 21.5978C14.3934 21.2189 14.6233 20.8745 14.9131 20.5845C15.203 20.2944 15.5472 20.0643 15.926 19.9074C16.3049 19.7505 16.7099 19.6698 17.12 19.6699ZM22.321 14.6699C22.9109 14.6686 23.4903 14.8254 23.999 15.1239C24.4411 14.8647 24.9376 14.712 25.449 14.6779L25.677 14.6699H25.877C26.477 14.6696 27.0643 14.8422 27.5687 15.167C28.0731 15.4919 28.4731 15.9552 28.721 16.5016C28.9689 17.0479 29.054 17.6541 28.9662 18.2476C28.8784 18.8411 28.6214 19.3967 28.226 19.8479L28.085 19.9979L24.706 23.3779C24.5337 23.55 24.3045 23.6532 24.0615 23.6683C23.8185 23.6834 23.5783 23.6093 23.386 23.4599L23.292 23.3769L19.913 19.9979C19.4871 19.5721 19.1936 19.0322 19.0677 18.4432C18.9418 17.8543 18.989 17.2415 19.2036 16.6788C19.4182 16.1161 19.791 15.6275 20.2771 15.2719C20.7632 14.9164 21.3417 14.709 21.943 14.6749L22.121 14.6699H22.321Z" fill="#FF7D6F"/>
</svg>
