<svg width="380" height="380" viewBox="0 0 380 380" fill="none" xmlns="http://www.w3.org/2000/svg">
<rect width="380" height="380" rx="40" fill="#CBF5CB"/>
<path fill-rule="evenodd" clip-rule="evenodd" d="M307.122 130.652C307.122 146.581 302.167 161.345 293.724 173.467C320.945 187.082 339.621 215.101 339.621 247.454C339.621 293.171 302.333 330.232 256.335 330.232C236.525 330.232 218.33 323.357 204.033 311.877V379.796C204.033 379.908 203.942 379.999 203.83 379.999H129.693C129.546 379.999 129.448 379.848 129.508 379.714L164.504 300.711C155.638 303.397 146.232 304.841 136.489 304.841C83.1996 304.841 40 261.641 40 208.352C40 155.062 83.1996 111.863 136.489 111.863C144.776 111.863 152.819 112.908 160.493 114.872C167.685 81.2216 197.406 56 232.978 56C273.927 56 307.122 89.4229 307.122 130.652Z" fill="#0FCE45"/>
<ellipse cx="215.87" cy="208.14" rx="20.1694" ry="20.1694" transform="rotate(7.01693 215.87 208.14)" fill="white"/>
<ellipse cx="215.872" cy="208.14" rx="15.0561" ry="15.056" transform="rotate(7.01693 215.872 208.14)" fill="black"/>
<ellipse cx="167.094" cy="204.426" rx="20.1694" ry="20.1694" transform="rotate(7.01693 167.094 204.426)" fill="white"/>
<ellipse cx="167.095" cy="204.427" rx="15.0561" ry="15.056" transform="rotate(7.01693 167.095 204.427)" fill="black"/>
<path d="M178.009 239.008C178.009 239.008 182.039 241.206 190.126 241.428C197.538 241.631 201.168 239.817 201.168 239.817" stroke="#F27840" stroke-width="12.4994" stroke-linecap="round"/>
<path d="M178.009 239.008C178.009 239.008 182.039 241.206 190.126 241.428C197.538 241.631 201.168 239.817 201.168 239.817" stroke="black" stroke-width="2.27261" stroke-linecap="round"/>
</svg>
