<svg width="110" height="54" viewBox="0 0 110 54" fill="none" xmlns="http://www.w3.org/2000/svg">
<mask id="path-1-inside-1_1266_612" fill="white">
<path fill-rule="evenodd" clip-rule="evenodd" d="M22 0C9.84974 0 0 9.84974 0 22C0 34.1503 9.84973 44 22 44H41.5887C42.6616 44 43.6895 44.431 44.4416 45.1962L51.9282 52.8139C53.4957 54.4089 56.0664 54.4089 57.6339 52.8139L65.1206 45.1962C65.8726 44.431 66.9005 44 67.9734 44H88C100.15 44 110 34.1503 110 22C110 9.84974 100.15 0 88 0H22Z"/>
</mask>
<path d="M51.9282 52.8139L53.3546 51.412L53.3546 51.412L51.9282 52.8139ZM57.6339 52.8139L56.2075 51.412L56.2075 51.412L57.6339 52.8139ZM65.1206 45.1962L66.547 46.5981L65.1206 45.1962ZM44.4416 45.1962L45.868 43.7943L44.4416 45.1962ZM2 22C2 10.9543 10.9543 2 22 2V-2C8.74517 -2 -2 8.74517 -2 22H2ZM22 42C10.9543 42 2 33.0457 2 22H-2C-2 35.2548 8.74516 46 22 46V42ZM41.5887 42H22V46H41.5887V42ZM53.3546 51.412L45.868 43.7943L43.0151 46.5981L50.5018 54.2158L53.3546 51.412ZM56.2075 51.412C55.4237 52.2095 54.1384 52.2095 53.3546 51.412L50.5018 54.2158C52.8531 56.6083 56.7091 56.6083 59.0604 54.2158L56.2075 51.412ZM63.6941 43.7943L56.2075 51.412L59.0604 54.2158L66.547 46.5981L63.6941 43.7943ZM88 42H67.9734V46H88V42ZM108 22C108 33.0457 99.0457 42 88 42V46C101.255 46 112 35.2548 112 22H108ZM88 2C99.0457 2 108 10.9543 108 22H112C112 8.74517 101.255 -2 88 -2V2ZM22 2H88V-2H22V2ZM66.547 46.5981C66.923 46.2155 67.437 46 67.9734 46V42C66.3641 42 64.8222 42.6465 63.6941 43.7943L66.547 46.5981ZM41.5887 46C42.1251 46 42.6391 46.2155 43.0151 46.5981L45.868 43.7943C44.7399 42.6465 43.198 42 41.5887 42V46Z" fill="black" mask="url(#path-1-inside-1_1266_612)"/>
</svg>
