<svg width="424" height="20" viewBox="0 0 424 20" fill="none" xmlns="http://www.w3.org/2000/svg">
<path d="M0 8C0 3.58172 3.58172 0 8 0H92C96.4183 0 100 3.58172 100 8V12C100 16.4183 96.4183 20 92 20H8C3.58172 20 0 16.4183 0 12V8Z" fill="#5E85FD" fill-opacity="0.4"/>
<path d="M108 8C108 3.58172 111.582 0 116 0H200C204.418 0 208 3.58172 208 8V12C208 16.4183 204.418 20 200 20H116C111.582 20 108 16.4183 108 12V8Z" fill="#5E85FD" fill-opacity="0.6"/>
<path d="M216 8C216 3.58172 219.582 0 224 0H308C312.418 0 316 3.58172 316 8V12C316 16.4183 312.418 20 308 20H224C219.582 20 216 16.4183 216 12V8Z" fill="#5E85FD" fill-opacity="0.8"/>
<path d="M324 8C324 3.58172 327.582 0 332 0H416C420.418 0 424 3.58172 424 8V12C424 16.4183 420.418 20 416 20H332C327.582 20 324 16.4183 324 12V8Z" fill="#5E85FD"/>
<circle cx="414" cy="10" r="6" fill="white"/>
<circle cx="11" cy="10" r="6" fill="white"/>
</svg>
