<svg width="400" height="216" viewBox="0 0 400 216" fill="none" xmlns="http://www.w3.org/2000/svg">
<g clip-path="url(#clip0_1241_2852)">
<rect width="400" height="216" rx="24" fill="white"/>
<path d="M104.285 159.95C104.285 161.824 105.804 163.342 107.677 163.342H116.57C118.444 163.342 119.962 161.824 119.962 159.95V133.002C122.36 133.502 124.762 133.753 127.168 133.753C131.749 133.753 136.286 132.866 140.521 131.141C144.755 129.416 148.604 126.887 151.848 123.697C155.092 120.507 157.667 116.718 159.424 112.546C161.181 108.374 162.086 103.902 162.086 99.3839C162.086 94.8662 161.181 90.3935 159.424 86.2214C157.667 82.0494 155.092 78.2606 151.848 75.0706C148.604 71.8806 144.755 69.3517 140.521 67.627C136.286 65.9022 131.749 65.0148 127.168 65.0148H126.602C121.339 57.8789 112.755 53.1791 103.097 53.1791C87.0762 53.1791 74.1968 65.8015 74.1968 81.6303C74.1968 85.1658 74.8552 88.5536 76.0379 91.66C71.0472 96.7798 68.1791 103.648 68.1791 111.22C68.1791 127.048 81.0585 139.671 97.0795 139.671C99.579 139.671 101.982 139.363 104.285 138.771V159.95Z" fill="#9ED7AF" stroke="white" stroke-width="3.64176"/>
<path d="M160.867 159.95C160.867 161.824 162.386 163.342 164.259 163.342H173.152C175.026 163.342 176.544 161.824 176.544 159.95V133.002C178.942 133.502 181.344 133.753 183.75 133.753C188.331 133.753 192.868 132.866 197.103 131.141C201.337 129.416 205.186 126.887 208.43 123.697C211.674 120.507 214.249 116.718 216.006 112.546C217.763 108.374 218.668 103.902 218.668 99.3839C218.668 94.8662 217.763 90.3935 216.006 86.2214C214.249 82.0494 211.674 78.2606 208.43 75.0706C205.186 71.8806 201.337 69.3517 197.103 67.627C192.868 65.9022 188.331 65.0148 183.75 65.0148H183.184C177.921 57.8789 169.337 53.1791 159.679 53.1791C143.658 53.1791 130.779 65.8015 130.779 81.6303C130.779 85.1658 131.437 88.5536 132.62 91.66C127.629 96.7798 124.761 103.648 124.761 111.22C124.761 127.048 137.641 139.671 153.662 139.671C156.161 139.671 158.564 139.363 160.867 138.771V159.95Z" fill="#6EC486" stroke="white" stroke-width="3.64176"/>
<path d="M217.449 159.95C217.449 161.824 218.968 163.342 220.841 163.342H229.734C231.608 163.342 233.126 161.824 233.126 159.95V133.002C235.524 133.502 237.926 133.753 240.332 133.753C244.913 133.753 249.45 132.866 253.685 131.141C257.919 129.416 261.768 126.887 265.012 123.697C268.256 120.507 270.831 116.718 272.588 112.546C274.345 108.374 275.25 103.902 275.25 99.3839C275.25 94.8662 274.345 90.3935 272.588 86.2214C270.831 82.0494 268.256 78.2606 265.012 75.0706C261.768 71.8806 257.919 69.3517 253.685 67.627C249.45 65.9022 244.913 65.0148 240.332 65.0148H239.766C234.503 57.8789 225.919 53.1791 216.261 53.1791C200.24 53.1791 187.361 65.8015 187.361 81.6303C187.361 85.1658 188.019 88.5536 189.202 91.66C184.211 96.7798 181.343 103.648 181.343 111.22C181.343 127.048 194.223 139.671 210.244 139.671C212.743 139.671 215.146 139.363 217.449 138.771V159.95Z" fill="#3DB05E" stroke="white" stroke-width="3.64176"/>
<path d="M274.021 159.95C274.021 161.824 275.54 163.342 277.414 163.342H286.306C288.18 163.342 289.699 161.824 289.699 159.95V133.002C292.096 133.502 294.499 133.753 296.904 133.753C301.486 133.753 306.023 132.866 310.257 131.141C314.491 129.416 318.34 126.887 321.584 123.697C324.828 120.507 327.403 116.718 329.16 112.546C330.917 108.374 331.822 103.902 331.822 99.3839C331.822 94.8662 330.917 90.3935 329.16 86.2214C327.403 82.0494 324.828 78.2606 321.584 75.0706C318.34 71.8806 314.491 69.3517 310.257 67.627C306.023 65.9022 301.486 65.0148 296.904 65.0148H296.339C291.076 57.8789 282.491 53.1791 272.834 53.1791C256.813 53.1791 243.933 65.8015 243.933 81.6303C243.933 85.1658 244.592 88.5536 245.774 91.66C240.784 96.7798 237.915 103.648 237.915 111.22C237.915 127.048 250.795 139.671 266.816 139.671C269.315 139.671 271.719 139.363 274.021 138.771V159.95Z" fill="#0D9C36" stroke="white" stroke-width="3.64176"/>
</g>
<defs>
<clipPath id="clip0_1241_2852">
<rect width="400" height="216" rx="24" fill="white"/>
</clipPath>
</defs>
</svg>
