<svg width="440" height="220" viewBox="0 0 440 220" fill="none" xmlns="http://www.w3.org/2000/svg">
<g clip-path="url(#clip0_1457_4552)">
<rect width="440" height="220" rx="24" fill="url(#paint0_linear_1457_4552)"/>
<g filter="url(#filter0_i_1457_4552)">
<path fill-rule="evenodd" clip-rule="evenodd" d="M257 91C257 92.9895 256.834 94.9403 256.515 96.8392C269.421 99.9871 279 111.625 279 125.5C279 141.792 265.792 155 249.5 155C241.761 155 234.718 152.02 229.455 147.144L236 185H206L212.636 148.749C207.822 152.658 201.684 155 195 155C179.536 155 167 142.464 167 127C167 113.907 175.987 102.913 188.128 99.8494C187.392 97.0228 187 94.0572 187 91C187 71.67 202.67 56 222 56C241.33 56 257 71.67 257 91Z" fill="#0FCE45"/>
</g>
<g filter="url(#filter1_i_1457_4552)">
<path fill-rule="evenodd" clip-rule="evenodd" d="M333.625 134.688C333.625 135.807 333.532 136.904 333.352 137.972C340.612 139.743 346 146.289 346 154.094C346 163.258 338.571 170.688 329.406 170.688C325.053 170.688 321.091 169.011 318.131 166.269L321.812 187.562H304.938L308.67 167.171C305.962 169.37 302.51 170.688 298.75 170.688C290.052 170.688 283 163.636 283 154.938C283 147.573 288.055 141.388 294.885 139.665C294.47 138.075 294.25 136.407 294.25 134.688C294.25 123.814 303.064 115 313.938 115C324.811 115 333.625 123.814 333.625 134.688Z" fill="#0FCE45"/>
</g>
<g filter="url(#filter2_i_1457_4552)">
<path fill-rule="evenodd" clip-rule="evenodd" d="M152.786 144.25C152.786 145.174 152.709 146.079 152.561 146.961C158.553 148.423 163 153.826 163 160.268C163 167.832 156.868 173.964 149.304 173.964C145.71 173.964 142.44 172.581 139.997 170.317L143.036 187.893H129.107L132.188 171.062C129.953 172.877 127.103 173.964 124 173.964C116.82 173.964 111 168.144 111 160.964C111 154.885 115.172 149.781 120.81 148.359C120.468 147.046 120.286 145.669 120.286 144.25C120.286 135.275 127.561 128 136.536 128C145.51 128 152.786 135.275 152.786 144.25Z" fill="#0FCE45"/>
</g>
<ellipse cx="220.5" cy="259.5" rx="270.5" ry="77.5" fill="#0D9C36"/>
<path fill-rule="evenodd" clip-rule="evenodd" d="M48.6987 30.7503C49.9194 21.8534 57.551 15 66.7832 15C75.7164 15 83.1509 21.4168 84.729 29.8925H88.642C98.0606 29.8925 105.696 37.5278 105.696 46.9464C105.696 56.365 98.0606 64.0003 88.642 64.0003H54.0539C44.6353 64.0003 37 56.365 37 46.9464C37 39.3985 41.9035 32.9959 48.6987 30.7503Z" fill="#FBFFEE"/>
<path fill-rule="evenodd" clip-rule="evenodd" d="M387.699 66.7503C388.919 57.8534 396.551 51 405.783 51C414.716 51 422.151 57.4168 423.729 65.8925H427.642C437.061 65.8925 444.696 73.5278 444.696 82.9464C444.696 92.365 437.061 100 427.642 100H393.054C383.635 100 376 92.365 376 82.9464C376 75.3985 380.903 68.9959 387.699 66.7503Z" fill="#FBFFEE"/>
<path fill-rule="evenodd" clip-rule="evenodd" d="M120.187 66.393C120.76 62.2169 124.343 59 128.676 59C132.869 59 136.359 62.0119 137.1 65.9904H138.936C143.357 65.9904 146.941 69.5742 146.941 73.9952C146.941 78.4161 143.357 82 138.936 82H122.701C118.28 82 114.696 78.4161 114.696 73.9952C114.696 70.4523 116.998 67.447 120.187 66.393Z" fill="#FBFFEE"/>
<path fill-rule="evenodd" clip-rule="evenodd" d="M300.491 24.393C301.064 20.2169 304.646 17 308.98 17C313.173 17 316.663 20.0119 317.403 23.9904H319.24C323.661 23.9904 327.245 27.5742 327.245 31.9952C327.245 36.4161 323.661 40 319.24 40H303.005C298.584 40 295 36.4161 295 31.9952C295 28.4523 297.302 25.447 300.491 24.393Z" fill="#FBFFEE"/>
<path opacity="0.24" d="M156 218L500 -47L268.594 218H156Z" fill="white"/>
<path opacity="0.24" d="M276 227L525 -64L304.358 227H276Z" fill="white"/>
<circle cx="194.5" cy="107.5" r="3.5" fill="white"/>
<circle cx="200.5" cy="101.5" r="1.5" fill="white"/>
<path d="M279.501 67.7587C278.642 65.437 275.358 65.437 274.499 67.7587L273.104 71.5286C272.834 72.2585 272.258 72.834 271.529 73.1041L267.759 74.4991C265.437 75.3582 265.437 78.6418 267.759 79.5009L271.529 80.8959C272.258 81.166 272.834 81.7415 273.104 82.4714L274.499 86.2413C275.358 88.563 278.642 88.563 279.501 86.2413L280.896 82.4714C281.166 81.7415 281.742 81.166 282.471 80.8959L286.241 79.5009C288.563 78.6418 288.563 75.3582 286.241 74.4991L282.471 73.1041C281.742 72.834 281.166 72.2585 280.896 71.5286L279.501 67.7587Z" fill="#FFD64E"/>
<path d="M295.229 62.3902C294.798 61.2256 293.151 61.2256 292.72 62.3902L292.02 64.2812C291.885 64.6473 291.596 64.936 291.23 65.0714L289.339 65.7712C288.174 66.2021 288.174 67.8492 289.339 68.2801L291.23 68.9799C291.596 69.1153 291.885 69.404 292.02 69.7701L292.72 71.6611C293.151 72.8257 294.798 72.8257 295.229 71.6611L295.929 69.7701C296.064 69.404 296.353 69.1153 296.719 68.9799L298.61 68.2801C299.774 67.8492 299.774 66.2021 298.61 65.7712L296.719 65.0714C296.353 64.936 296.064 64.6473 295.929 64.2812L295.229 62.3902Z" fill="#FFD64E"/>
</g>
<defs>
<filter id="filter0_i_1457_4552" x="167" y="56" width="112" height="129" filterUnits="userSpaceOnUse" color-interpolation-filters="sRGB">
<feFlood flood-opacity="0" result="BackgroundImageFix"/>
<feBlend mode="normal" in="SourceGraphic" in2="BackgroundImageFix" result="shape"/>
<feColorMatrix in="SourceAlpha" type="matrix" values="0 0 0 0 0 0 0 0 0 0 0 0 0 0 0 0 0 0 127 0" result="hardAlpha"/>
<feOffset dx="-6"/>
<feComposite in2="hardAlpha" operator="arithmetic" k2="-1" k3="1"/>
<feColorMatrix type="matrix" values="0 0 0 0 0 0 0 0 0 0 0 0 0 0 0 0 0 0 0.25 0"/>
<feBlend mode="normal" in2="shape" result="effect1_innerShadow_1457_4552"/>
</filter>
<filter id="filter1_i_1457_4552" x="283" y="115" width="63" height="72.5625" filterUnits="userSpaceOnUse" color-interpolation-filters="sRGB">
<feFlood flood-opacity="0" result="BackgroundImageFix"/>
<feBlend mode="normal" in="SourceGraphic" in2="BackgroundImageFix" result="shape"/>
<feColorMatrix in="SourceAlpha" type="matrix" values="0 0 0 0 0 0 0 0 0 0 0 0 0 0 0 0 0 0 127 0" result="hardAlpha"/>
<feOffset dx="-3.375"/>
<feComposite in2="hardAlpha" operator="arithmetic" k2="-1" k3="1"/>
<feColorMatrix type="matrix" values="0 0 0 0 0 0 0 0 0 0 0 0 0 0 0 0 0 0 0.25 0"/>
<feBlend mode="normal" in2="shape" result="effect1_innerShadow_1457_4552"/>
</filter>
<filter id="filter2_i_1457_4552" x="111" y="128" width="52" height="59.8926" filterUnits="userSpaceOnUse" color-interpolation-filters="sRGB">
<feFlood flood-opacity="0" result="BackgroundImageFix"/>
<feBlend mode="normal" in="SourceGraphic" in2="BackgroundImageFix" result="shape"/>
<feColorMatrix in="SourceAlpha" type="matrix" values="0 0 0 0 0 0 0 0 0 0 0 0 0 0 0 0 0 0 127 0" result="hardAlpha"/>
<feOffset dx="-2.78571"/>
<feComposite in2="hardAlpha" operator="arithmetic" k2="-1" k3="1"/>
<feColorMatrix type="matrix" values="0 0 0 0 0 0 0 0 0 0 0 0 0 0 0 0 0 0 0.25 0"/>
<feBlend mode="normal" in2="shape" result="effect1_innerShadow_1457_4552"/>
</filter>
<linearGradient id="paint0_linear_1457_4552" x1="220" y1="142" x2="220" y2="220" gradientUnits="userSpaceOnUse">
<stop stop-color="#CBF5CB"/>
<stop offset="1" stop-color="white"/>
</linearGradient>
<clipPath id="clip0_1457_4552">
<rect width="440" height="220" rx="24" fill="white"/>
</clipPath>
</defs>
</svg>
