<svg width="56" height="56" viewBox="0 0 56 56" fill="none" xmlns="http://www.w3.org/2000/svg">
<rect width="56" height="56" rx="28" fill="white"/>
<path d="M17.5 21.5182H38.5ZM25.375 26.7034V34.4812ZM30.625 26.7034V34.4812ZM18.8125 21.5182L20.125 37.0737C20.125 37.7613 20.4016 38.4208 20.8938 38.907C21.3861 39.3932 22.0538 39.6663 22.75 39.6663H33.25C33.9462 39.6663 34.6139 39.3932 35.1062 38.907C35.5984 38.4208 35.875 37.7613 35.875 37.0737L37.1875 21.5182M24.0625 21.5182V17.6293C24.0625 17.2855 24.2008 16.9558 24.4469 16.7127C24.6931 16.4696 25.0269 16.333 25.375 16.333H30.625C30.9731 16.333 31.3069 16.4696 31.5531 16.7127C31.7992 16.9558 31.9375 17.2855 31.9375 17.6293V21.5182" fill="#FF7D6F"/>
<path d="M17.5 21.5182H38.5M25.375 26.7034V34.4812M30.625 26.7034V34.4812M18.8125 21.5182L20.125 37.0737C20.125 37.7613 20.4016 38.4208 20.8938 38.907C21.3861 39.3932 22.0538 39.6663 22.75 39.6663H33.25C33.9462 39.6663 34.6139 39.3932 35.1062 38.907C35.5984 38.4208 35.875 37.7613 35.875 37.0737L37.1875 21.5182M24.0625 21.5182V17.6293C24.0625 17.2855 24.2008 16.9558 24.4469 16.7127C24.6931 16.4696 25.0269 16.333 25.375 16.333H30.625C30.9731 16.333 31.3069 16.4696 31.5531 16.7127C31.7992 16.9558 31.9375 17.2855 31.9375 17.6293V21.5182" stroke="#FF7D6F" stroke-width="1.75" stroke-linecap="round" stroke-linejoin="round"/>
<path d="M25.3467 26.5977L25.3467 34.5488" stroke="#F2F2F2" stroke-width="1.5" stroke-linecap="round"/>
<path d="M30.6523 26.5977L30.6523 34.5488" stroke="#F2F2F2" stroke-width="1.5" stroke-linecap="round"/>
</svg>
